<?xml version="1.0" encoding="UTF-8" standalone="no"?>
<!-- Created with Inkscape (http://www.inkscape.org/) -->

<svg
   version="1.1"
   id="svg2"
   xml:space="preserve"
   width="816"
   height="1056"
   viewBox="0 0 816 1056"
   sodipodi:docname="gymart.ai"
   xmlns:inkscape="http://www.inkscape.org/namespaces/inkscape"
   xmlns:sodipodi="http://sodipodi.sourceforge.net/DTD/sodipodi-0.dtd"
   xmlns="http://www.w3.org/2000/svg"
   xmlns:svg="http://www.w3.org/2000/svg"><defs
     id="defs6"><clipPath
       clipPathUnits="userSpaceOnUse"
       id="clipPath18"><path
         d="M 0,792 H 612 V 0 H 0 Z"
         id="path16" /></clipPath></defs><sodipodi:namedview
     id="namedview4"
     pagecolor="#ffffff"
     bordercolor="#666666"
     borderopacity="1.0"
     inkscape:pageshadow="2"
     inkscape:pageopacity="0.0"
     inkscape:pagecheckerboard="0" /><g
     id="g8"
     inkscape:groupmode="layer"
     inkscape:label="gymart"
     transform="matrix(1.3333333,0,0,-1.3333333,0,1056)"><path
       d="M 541.194,205.432 H 74.709 v 531.517 h 466.485 z"
       style="fill:#d6fcfc;fill-opacity:1;fill-rule:nonzero;stroke:none"
       id="path10" /><g
       id="g12"><g
         id="g14"
         clip-path="url(#clipPath18)"><g
           id="g20"
           transform="translate(290.4243,708.7158)"><path
             d="m 0,0 c 8.247,0 14.08,-1.389 18.966,-5.243 2.684,-2.119 4.016,-4.403 6.125,-9.555 l 0.164,-0.398 c 0.082,-0.2 0.116,-0.282 0.164,-0.399 0.123,-0.302 0.229,-0.555 0.331,-0.798 0.127,-0.307 0.248,-0.589 0.365,-0.859 0.29,-0.67 0.635,-1.179 1.463,-2.247 l 0.074,-0.093 c 0.959,-1.239 1.369,-1.877 1.648,-2.739 0.256,-0.786 0.416,-1.675 0.535,-2.812 0.043,-0.428 0.063,-0.655 0.135,-1.561 0.024,-0.294 0.041,-0.484 0.057,-0.676 0.342,-4.65 0.077,-6.84 -3.867,-9.421 -0.264,-2.095 -0.121,-1.054 -0.43,-3.126 -0.166,-1.088 -0.229,-1.509 -0.309,-2.079 -0.115,-0.832 -0.051,-1.486 0.213,-2.953 l 0.022,-0.122 c 0.23,-1.286 0.3,-1.96 0.221,-2.766 -0.21,-2.158 -1.909,-3.915 -4.426,-5.206 -0.293,-0.133 -0.126,-0.069 -0.51,-0.172 -0.092,-0.137 -0.185,-0.274 -0.278,-0.41 -0.384,-0.578 -0.621,-1.018 -0.752,-1.438 -0.172,-0.563 -0.12,-1.02 0.2,-1.413 0.037,-0.045 0.181,-0.124 0.387,-0.202 0.107,-0.042 0.219,-0.081 0.353,-0.122 0.069,-0.022 0.069,-0.022 0.122,-0.037 0.024,-0.007 0.024,-0.007 0.044,-0.014 0.008,0.028 0.008,0.028 0.193,-0.267 -0.24,-1.124 -1.972,-1.013 -2.777,-0.803 -0.213,-0.608 -0.426,-1.217 -0.651,-1.821 -0.608,-1.405 -0.249,-0.744 -1.069,-1.986 -0.065,-0.565 -0.032,-1.142 -0.02,-1.71 0.01,-0.365 0.015,-0.547 0.017,-0.762 0.021,-1.994 -0.287,-3.149 -1.336,-3.794 -0.395,-0.237 -0.85,-0.309 -1.309,-0.266 -0.056,-0.178 -0.006,-0.02 -0.166,-0.467 -0.014,-0.038 -0.014,-0.038 -0.027,-0.075 -0.26,-0.717 -0.373,-1.085 -0.445,-1.527 -0.046,-0.278 -0.081,-0.542 -0.115,-0.828 -0.019,-0.159 -0.069,-0.627 -0.072,-0.656 -0.115,-1.022 -0.296,-1.388 -0.999,-1.774 -0.385,-0.191 -0.191,-0.105 -0.582,-0.259 0.128,-1.778 -0.785,-2.617 -2.103,-3.519 -0.262,-0.746 -0.408,-1.524 -0.566,-2.298 -0.037,-0.191 -0.055,-0.282 -0.076,-0.384 -0.543,-2.694 -1.082,-3.987 -2.411,-4.896 -3.571,-2.031 -8.238,-1.803 -12.143,-1.349 1.847,-1.937 3.867,-3.686 6.154,-5.048 3.49,-1.952 6.937,-4.252 8.237,-5.807 0.38,-0.456 0.636,-0.862 1.127,-1.734 0.043,-0.074 0.043,-0.074 0.084,-0.148 l 0.072,-0.125 0.196,0.02 1.418,0.028 c 3.299,-0.083 6.328,-1.274 9.261,-2.714 3.1,-1.719 5.702,-3.782 10.156,-7.78 3.856,-3.376 5.705,-5.988 8,-10.526 0.426,0.052 0.152,0.022 0.822,0.074 l 0.918,0.03 c 1.931,-0.155 1.125,-0.012 2.437,-0.306 6.091,-1.704 11.842,-7.513 15.976,-14.931 0.385,-0.707 0.687,-1.4 0.96,-2.177 1.238,5.798 3.737,11.209 6.166,16.561 l 0.186,0.406 c 4.447,9.7 6.088,14.157 6.807,20.066 0.184,1.5 0.105,2.705 -0.24,5.341 l -0.006,0.038 c -0.063,0.497 -0.091,0.719 -0.126,0.995 -0.09,0.892 -0.061,0.469 -0.095,1.266 -1.737,-0.837 -3.616,-1.09 -5.506,-1.207 l -0.003,0.001 -0.003,-0.001 c -7.156,0 -12.965,5.503 -12.965,12.307 0.107,5.238 3.419,9.665 8.236,11.341 -0.264,1.08 0.503,2.055 1.15,2.799 0.918,0.911 2.021,1.616 3.213,2.088 1.716,4.355 5.694,6.829 10.156,7.132 l 1.134,-0.06 c 5.88,-0.907 9.658,-5.597 9.946,-11.601 -0.097,-1.676 -0.042,-2.006 -0.646,-3.927 -0.161,-0.511 -0.461,-0.962 -0.692,-1.444 0.334,-1.788 0.497,-3.604 0.663,-5.414 0.132,-1.492 0.129,-2.688 0.042,-5.378 -0.004,-0.116 -0.004,-0.116 -0.009,-0.233 -0.071,-2.208 -0.077,-3.356 0.014,-4.655 0.12,-1.715 0.138,-3.137 0.118,-6.156 0,-0.048 0,-0.048 -0.001,-0.095 -0.019,-3.113 -0.004,-4.492 0.116,-6.206 0.293,-4.206 0.273,-8.663 0,-13.971 -0.114,-2.232 -0.159,-4.013 -0.224,-8.026 -0.105,-6.347 -0.213,-9.169 -0.582,-12.699 -0.113,-1.086 -0.248,-2.138 -0.406,-3.166 -1.362,-7.824 -3.571,-15.61 -7.175,-22.675 -0.351,-5.101 -2.461,-9.939 -6.938,-12.505 -4.839,-1.846 -11.281,0.913 -15.393,3.55 -1.599,0.452 -3.122,1.138 -4.649,1.795 -0.124,0.054 -0.234,0.103 -0.47,0.206 -1.492,0.655 -2.214,0.962 -3.085,1.297 -1.829,0.702 -3.359,1.467 -6.185,3.013 -0.112,0.062 -0.226,0.123 -0.451,0.247 -1.305,0.714 -1.974,1.074 -2.756,1.475 -6.61,3.39 -13.194,8.382 -17.586,13.528 -0.213,0.25 -0.438,0.511 -0.711,0.822 -0.103,0.118 -0.21,0.239 -0.351,0.399 -0.176,0.2 -0.274,0.311 -0.354,0.4 -1.318,1.496 -2.031,2.356 -2.743,3.359 -0.184,0.259 -0.335,0.511 -0.602,0.982 -0.044,0.077 -0.044,0.077 -0.087,0.154 -0.254,0.44 -0.5,0.896 -0.836,1.276 -2.04,-4.33 -4.593,-8.367 -7.277,-12.3 -0.123,-0.177 -0.237,-0.358 -0.417,-0.656 -0.07,-0.114 -0.113,-0.186 -0.139,-0.23 -0.395,-0.652 -0.645,-1.01 -0.971,-1.346 -0.632,-0.647 -1.275,-1.294 -2.186,-2.204 l -0.817,-0.814 c -0.333,-3.096 -0.807,-6.175 -1.27,-9.253 -0.012,-0.074 -0.012,-0.074 -0.023,-0.146 -0.886,-5.858 -1.249,-8.586 -1.52,-11.914 -0.047,-0.584 -0.055,-1.091 -0.049,-2.111 10e-4,-0.036 10e-4,-0.036 10e-4,-0.073 0.007,-1.161 -10e-4,-1.678 -0.059,-2.323 -0.254,-2.88 -0.311,-5.322 -0.107,-7.419 0.222,-2.689 0.548,-5.386 0.492,-8.089 l 0.253,0.011 c 0.748,-0.019 1.357,-0.307 1.944,-0.748 1.593,-1.36 3.6,-8.939 2.98,-11.166 -0.279,-1.11 -0.948,-2.006 -1.596,-2.908 0.194,-0.364 0.046,-0.093 0.46,-0.801 0.013,-0.024 0.013,-0.024 0.027,-0.046 0.545,-0.921 0.791,-1.368 1.04,-1.929 0.445,-1.004 0.728,-1.833 1.297,-3.673 0.04,-0.133 0.04,-0.133 0.081,-0.264 0.373,-1.205 0.601,-1.893 0.888,-2.629 2.263,-5.804 3.935,-11.666 4.835,-17.201 0.195,-1.198 0.282,-2.51 0.304,-4.147 l 0.005,-0.448 c 6.669,-7.457 12.183,-15.867 16.908,-24.721 0.951,-1.861 1.622,-3.43 2.991,-6.852 l 0.033,-0.086 c 0.435,-1.083 0.633,-1.575 0.881,-2.18 l 0.052,-0.126 c 0.18,-0.439 0.267,-0.649 0.673,-1.627 1.741,-4.186 2.502,-6.205 3.18,-8.708 0.376,-1.387 0.67,-2.251 1.812,-5.443 0.28,-0.781 0.47,-1.318 0.657,-1.861 1.002,-2.914 1.552,-5.018 1.722,-6.944 0.031,-0.349 0.038,-0.426 0.123,-1.329 0.138,-1.504 0.206,-2.311 0.258,-3.223 0.065,-1.467 0.08,-1.397 0.041,-3.197 -0.005,-0.268 -0.034,-0.538 -0.052,-0.807 0.733,-2.096 1.74,-4.069 2.741,-6.039 l 0.042,-0.084 c 1.555,-3.051 2.22,-4.492 2.819,-6.334 1.736,-5.992 1.018,-12.998 -2.537,-18.184 0.118,-2.14 0.459,-4.26 0.795,-6.374 0.059,-0.352 0.103,-0.616 0.214,-1.284 0.514,-3.066 0.723,-4.466 0.893,-6.215 0.13,-1.322 0.277,-2.434 0.605,-4.705 0.009,-0.066 0.009,-0.066 0.018,-0.132 0.331,-2.28 0.466,-3.3 0.599,-4.583 0.855,-8.331 0.304,-16.926 -1.547,-25.781 -0.95,-4.547 -1.84,-8.259 -3.843,-16.272 -0.846,-3.389 -1.181,-4.731 -1.62,-6.532 -0.224,-0.923 -0.429,-1.679 -0.878,-3.278 -0.008,-0.028 -0.008,-0.028 -0.017,-0.058 -0.546,-1.943 -0.78,-2.811 -1.03,-3.907 -0.481,-2.096 -0.688,-4.14 -0.842,-7.441 -0.015,-0.3 -0.026,-0.535 -0.05,-1.082 -0.057,-1.312 -0.085,-1.901 -0.13,-2.631 -0.011,-0.168 -0.02,-0.338 -0.043,-0.683 l -0.034,-0.575 c 1.914,-4.567 5.444,-8.17 8.8,-11.651 0.159,-0.163 0.305,-0.314 0.609,-0.627 0.338,-0.347 0.565,-0.656 1.024,-1.353 l 0.008,-0.014 c 0.344,-0.52 0.503,-0.748 0.721,-1.006 1.77,-2.12 3.611,-3.867 5.463,-5.089 0.625,-0.411 4.161,-2.611 5.201,-3.296 3.84,-2.528 6.246,-4.68 7.37,-6.986 0.356,-0.672 0.377,-1.452 0.386,-2.198 1.523,-0.987 1.741,-3.252 1.152,-4.854 -0.261,-0.709 -0.396,-0.839 -0.769,-1.345 0.986,-2.032 0.62,-3.486 -1.291,-4.585 -0.292,-3.261 -2.424,-3.424 -5.063,-2.617 -0.178,-0.344 -0.056,-0.15 -0.395,-0.557 -2.704,-2.773 -7.648,-1.621 -10.17,1.703 -0.643,0.846 -1.017,1.961 -1.397,3.802 -0.032,0.151 -0.063,0.308 -0.101,0.501 -0.018,0.091 -0.083,0.421 -0.098,0.494 -0.193,0.94 -0.092,0.488 -0.303,1.354 l -0.405,0.21 c -0.087,0.047 -0.397,0.214 -0.456,0.246 -0.31,0.165 -0.536,0.28 -0.771,0.391 -4.328,1.732 -7.166,4.722 -9.856,8.449 l -0.862,0.18 c 0.281,-0.058 -3.804,0.762 -4.954,1.009 -4.9,1.044 -8.137,2.055 -10.531,3.486 -0.415,0.248 -0.757,0.476 -1.425,0.941 -0.082,0.059 -0.082,0.059 -0.164,0.115 -0.529,0.366 -0.836,0.572 -1.174,0.78 -1.95,1.201 -3.684,3.25 -4.112,5.158 -0.801,3.557 -0.041,6.263 2.67,12.122 0.211,0.453 0.286,0.619 0.395,0.852 0.824,1.756 1.576,3.546 2.058,5.432 l 0.002,0.125 c 0.004,0.935 0.005,1.35 0.006,1.87 0.012,4.397 -0.052,7.274 -0.271,10.202 -0.344,4.58 -0.834,8.297 -2.065,16.407 -0.201,1.338 -0.272,1.801 -0.373,2.48 -0.439,2.924 -0.996,5.238 -2.4,10.394 -0.038,0.137 -0.038,0.137 -0.075,0.274 -0.753,2.767 -1.125,4.196 -1.504,5.848 -2.654,12.886 -3.623,27.488 2.515,39.541 -1.129,2.439 -2.563,4.693 -4.244,6.765 -0.372,0.441 -0.697,0.837 -1.299,1.58 -0.085,0.105 -0.085,0.105 -0.171,0.21 -1.357,1.672 -2.049,2.484 -2.915,3.372 -0.179,0.185 -1.134,1.161 -1.404,1.438 -3.371,3.462 -5.211,5.587 -6.922,8.219 -1.803,2.773 -2.9,4.561 -3.905,6.455 -0.789,1.479 -1.321,2.749 -2.358,5.465 l -0.04,0.105 c -0.897,2.346 -1.322,3.389 -1.934,4.644 -0.479,0.984 -0.934,1.859 -1.774,3.442 -0.089,0.17 -0.089,0.17 -0.18,0.339 -0.44,0.828 -0.669,1.261 -0.928,1.758 -1.811,3.484 -4.045,6.404 -8.251,11.174 -0.112,0.126 -1.705,1.928 -2.166,2.453 -2.078,2.368 -3.784,5.157 -5.838,9.246 -0.38,0.755 -0.663,1.33 -1.341,2.722 -0.151,0.31 -0.3,0.611 -0.527,1.071 -0.157,0.317 -0.238,0.482 -0.313,0.635 -0.396,0.805 -0.225,0.452 -0.515,1.054 -0.781,-0.286 -1.543,-0.64 -2.344,-0.861 -3.773,-1.039 -7.568,-0.673 -11.158,0.818 -4.019,-6.575 -7.447,-13.497 -10.689,-20.499 -0.385,-0.846 -0.681,-1.539 -1.323,-3.075 -0.02,-0.048 -0.02,-0.048 -0.04,-0.097 -0.852,-2.037 -1.273,-3.004 -1.827,-4.141 -0.419,-0.86 -0.82,-1.671 -1.483,-3.003 -0.113,-0.227 -0.113,-0.227 -0.225,-0.455 -2.031,-4.083 -2.943,-5.975 -3.974,-8.323 -0.858,-1.959 -1.484,-3.672 -2.653,-7.12 -0.046,-0.139 -0.046,-0.139 -0.094,-0.277 -1.521,-4.487 -2.27,-6.484 -3.443,-8.891 -0.161,-0.329 -0.282,-0.599 -0.547,-1.203 l -0.005,-0.011 c -0.376,-0.906 -0.817,-1.779 -1.343,-2.602 -2.691,-3.943 -4.688,-6.311 -7.187,-8.142 -0.574,-0.42 -1.081,-0.739 -2.133,-1.369 l -0.084,-0.05 -0.07,-0.042 c -0.522,-0.894 -0.928,-1.849 -1.343,-2.798 -0.017,-0.041 -0.017,-0.041 -0.035,-0.08 -0.951,-2.194 -1.437,-3.152 -2.252,-4.227 -0.548,-0.727 -1.162,-1.398 -1.778,-2.062 -0.124,-0.439 -0.048,-0.173 -0.232,-0.8 0,-10e-4 0,-10e-4 0,-0.003 -0.434,-1.468 -0.605,-2.125 -0.74,-2.957 -1.44,-8.858 -2.912,-14.829 -5.432,-21.031 -1.446,-3.561 -2.858,-6.285 -6.536,-12.933 -2.939,-5.311 -4.279,-7.866 -5.633,-10.921 -0.322,-0.727 -2.412,-5.049 -2.907,-6.109 -0.264,-0.564 -0.51,-1.098 -0.741,-1.614 -0.654,-1.485 -0.395,-0.86 -0.8,-1.864 -0.231,-2.525 -0.063,-5.068 0.139,-7.585 0.051,-0.576 0.149,-1.036 0.41,-2.061 0.017,-0.069 0.017,-0.069 0.034,-0.137 0.165,-0.65 0.251,-1.025 0.318,-1.442 0.406,-2.673 0.108,-5.385 -0.627,-7.972 -0.274,-0.962 -0.699,-1.873 -1.048,-2.807 -0.189,-1.867 -0.169,-3.747 -0.165,-5.621 0,-0.12 0,-0.12 10e-4,-0.242 0.004,-2.058 0.021,-4.12 -0.176,-6.171 -0.046,-0.488 -0.134,-0.971 -0.202,-1.456 1.066,-1.258 1.553,-2.794 1.74,-4.414 0.018,-0.207 0.029,-0.384 0.05,-0.74 0.085,-1.434 0.176,-2.1 0.495,-3.084 0.088,-0.272 0.205,-0.555 0.351,-0.861 0.206,-0.434 0.365,-0.719 0.874,-1.603 1.406,-2.439 1.817,-3.687 1.334,-5.339 -0.742,-2.535 -3.522,-3.826 -6.326,-3.264 -1.773,0.393 -3.721,1.608 -4.111,3.585 l -0.076,-0.326 c -0.054,-0.334 -0.077,-0.588 -0.119,-1.188 -0.056,-0.818 -0.102,-1.192 -0.232,-1.66 -0.098,-0.356 -0.235,-0.686 -0.424,-1.01 -1.27,-1.739 -4.826,-1.42 -5.788,0.501 -1.797,-1.011 -3.276,-0.658 -4.398,1.054 -0.167,0.289 -0.255,0.618 -0.383,0.927 -1.311,-0.557 -2.53,-0.507 -3.408,0.697 -0.161,0.256 -0.249,0.553 -0.375,0.831 -0.861,-0.542 -1.62,-0.322 -2.403,0.209 -0.864,0.709 -1.415,2.054 -1.415,3.408 0,1.146 -0.14,2.143 -0.504,3.992 -0.024,0.125 -0.024,0.125 -0.05,0.252 -0.319,1.621 -0.443,2.356 -0.519,3.294 -0.185,2.282 0.132,4.23 1.054,7.713 0.042,0.154 0.069,0.255 0.149,0.559 0.256,0.961 0.374,1.413 0.508,1.961 0.108,0.442 0.194,0.904 0.268,1.417 0.071,0.496 0.115,0.897 0.203,1.795 0.097,0.983 0.145,1.418 0.228,1.967 0.47,3.653 2.736,6.37 5.031,9.003 0.066,1.451 0.322,2.877 0.635,4.289 0.101,0.413 0.205,0.817 0.313,1.223 0.206,0.767 0.415,1.486 0.693,2.402 0.077,0.254 0.358,1.17 0.333,1.089 0.13,0.428 0.226,0.745 0.317,1.056 0.752,2.558 1.137,4.536 1.331,7.313 0.184,2.65 0.125,5.358 -0.128,9.502 -0.564,9.26 0.44,29.165 2.11,36.016 2.154,8.837 5.255,16.4 9.596,22.762 1.091,1.598 2.12,2.767 4.485,5.239 0.032,0.035 0.032,0.035 0.064,0.069 1.729,1.775 3.403,3.604 4.756,5.699 0.54,7.327 2.669,14.371 5.375,21.127 -0.033,0.253 -0.004,0.036 -0.088,0.656 -0.846,6.272 -1.089,9.121 -0.872,12.684 0.407,6.685 1.125,12.003 3.029,23.913 0.081,0.503 0.117,0.727 0.161,1.006 0.71,4.446 1.109,7.037 1.499,9.838 0.949,6.816 2.026,12.325 3.275,14.887 0.167,0.347 0.346,0.686 0.522,1.029 -0.666,0.633 -1.079,1.425 -1.295,2.319 -0.34,1.741 0.299,5.113 1.758,10.344 0.175,0.626 0.362,1.281 0.569,1.996 0.266,0.916 1.172,3.979 1.333,4.535 0.426,1.483 0.213,0.719 0.636,2.294 -1.278,0.705 -0.769,0.324 -1.595,1.045 -0.223,0.229 -0.294,0.435 -0.369,0.873 -0.005,0.033 -0.005,0.033 -0.011,0.064 -0.007,0.042 -0.01,0.058 -0.015,0.083 -0.045,0.235 -0.118,0.461 -0.255,0.832 -0.023,0.061 -0.023,0.061 -0.046,0.122 -0.207,0.554 -0.289,0.81 -0.343,1.143 -0.447,2.747 2.225,10.577 4.146,12.547 0.374,0.396 0.899,0.556 1.401,0.699 l 0.086,1.12 c 0.041,0.452 0.091,0.89 0.151,1.321 0.198,1.417 0.441,2.54 1.049,5.04 0.033,0.135 0.033,0.135 0.066,0.27 0.586,2.412 0.851,3.676 1.026,5.124 0.637,5.219 0.748,10.497 0.526,18.009 -0.038,1.295 -0.074,2.342 -0.157,4.662 -0.088,2.623 -0.2,5.244 -0.235,7.868 -0.441,0.879 -0.828,1.785 -1.227,2.685 -0.075,0.17 -0.075,0.17 -0.15,0.341 -0.666,1.512 -0.995,2.24 -1.408,3.087 -4.591,9.417 -6.27,14.855 -6.991,23.724 -0.049,0.621 -0.134,1.239 -0.224,1.855 -1.951,-3.623 -4.805,-6.602 -7.756,-9.375 -3.138,-2.817 -5.956,-4.583 -12.472,-8.158 -0.014,-0.008 -0.014,-0.008 -0.029,-0.016 -2.27,-1.245 -3.28,-1.809 -4.522,-2.537 -0.59,-0.346 -1.097,-0.584 -2.2,-1.06 -0.017,-0.008 -0.017,-0.008 -0.033,-0.015 -1.196,-0.517 -1.72,-0.767 -2.327,-1.139 -0.679,-0.41 -1.251,-0.973 -1.782,-1.565 -0.229,-1.214 -0.33,-2.448 -0.452,-3.676 -0.022,-0.227 -0.032,-0.328 -0.044,-0.454 -0.209,-2.138 -0.375,-3.372 -0.674,-4.703 -0.344,-1.521 -0.591,-2.754 -1.12,-5.505 -0.036,-0.189 -0.036,-0.189 -0.072,-0.377 -0.598,-3.104 -0.937,-4.742 -1.386,-6.586 -0.411,-1.685 -0.954,-3.147 -2.1,-5.872 -0.045,-0.108 -0.105,-0.25 -0.21,-0.499 -0.083,-0.198 -0.147,-0.349 -0.208,-0.496 -0.156,-0.373 -0.286,-0.686 -0.407,-0.984 -0.869,-2.141 -1.692,-3.804 -3.609,-7.448 -0.03,-0.058 -0.03,-0.058 -0.061,-0.116 -1.017,-1.934 -1.501,-2.872 -2.05,-3.999 -3.389,-7.182 -5.844,-15.089 -5.422,-23.143 l 0.428,0.004 c 2.86,-0.159 4.707,-1.124 6.536,-3.338 0.014,-0.019 0.014,-0.019 0.028,-0.038 0.098,-0.136 0.434,-0.61 0.462,-0.649 0.408,-0.572 0.702,-0.927 1.039,-1.223 0.521,-0.458 1.03,-0.85 1.657,-1.292 0.114,-0.08 0.229,-0.16 0.375,-0.26 0.026,-0.018 0.283,-0.195 0.356,-0.246 0.284,-0.196 0.479,-0.334 0.661,-0.472 1.241,-0.875 1.838,-2.135 1.888,-3.656 1.88,1.113 4.013,1.471 6.148,1.594 6.948,0 12.587,-5.459 12.587,-12.201 0,-6.742 -5.639,-12.2 -12.587,-12.2 h -0.003 -0.002 c -4.604,0.099 -9.051,2.434 -11.158,6.762 -0.518,-0.889 -1.335,-1.436 -2.281,-1.735 -0.901,-0.221 -1.48,-0.17 -3.641,0.189 -0.472,0.077 -0.807,0.129 -1.154,0.173 -0.772,0.099 -1.309,0.045 -2.085,-0.143 0.096,0.022 -0.305,-0.076 -0.398,-0.097 -0.149,-0.035 -0.275,-0.061 -0.396,-0.078 -1.219,-0.183 -2.111,0.577 -3.012,1.288 -0.3,-0.245 -0.634,-0.395 -0.976,-0.551 -2.015,-0.716 -3.914,0.324 -5.143,1.988 -1.755,-0.375 -2.781,-0.164 -4.202,0.929 -0.142,0.121 -0.281,0.225 -0.536,0.403 -0.038,0.027 -0.038,0.027 -0.077,0.054 l -0.024,0.019 c -1.872,-1.109 -4,-1.464 -6.126,-1.586 l -0.002,0.001 -0.004,-0.001 c -6.948,0 -12.587,5.458 -12.587,12.2 0,6.743 5.639,12.202 12.585,12.202 1.442,-0.007 2.909,-0.201 4.256,-0.754 0.125,0.527 0.029,0.13 0.306,1.186 l 0.016,0.059 c -1.052,2.628 -0.579,5.572 -0.213,8.29 0.158,1.131 0.224,1.647 0.288,2.28 0.025,0.238 0.045,0.466 0.062,0.689 0.08,1.067 0.155,2.142 0.257,3.647 0.018,0.276 0.034,0.504 0.066,0.992 0.09,1.336 0.129,1.917 0.18,2.654 1.268,18.196 2.358,27.007 5.219,37.276 0.456,1.64 0.953,2.89 2.161,5.641 0.006,0.014 0.006,0.014 0.013,0.029 0.519,1.182 0.755,1.729 1.028,2.402 0.181,0.444 0.326,0.807 0.641,1.597 0.018,0.044 0.018,0.044 0.035,0.087 1.248,3.345 2.751,6.549 4.716,9.51 0.385,1.676 0.133,0.821 0.781,2.557 0.851,2.05 2.05,4.107 3.914,6.893 0.404,0.603 1.762,2.598 1.8,2.654 0.68,1.006 1.159,1.739 1.573,2.419 0.624,1.023 1.086,1.91 2.043,3.857 0.041,0.083 0.041,0.083 0.082,0.166 1.381,2.809 2.106,4.116 3.177,5.529 1.143,1.507 4.814,6.571 4.837,6.601 3.788,5.269 8.212,10.144 14.072,12.951 0.245,2.43 0.857,4.771 1.802,7.007 5.538,12.307 16.858,21.149 29.448,22.584 l 2.308,0.163 1.657,0.002 c 1.376,-0.152 2.749,-0.271 4.101,-0.577 l 0.078,0.048 c 1.219,0.714 2.416,1.132 4.621,1.719 0.11,0.029 0.204,0.054 0.408,0.109 0.737,0.195 1.099,0.293 1.519,0.415 3.782,1.11 6.87,1.649 13.842,2.599 0.205,0.028 0.205,0.028 0.408,0.056 3.381,0.443 6.753,0.956 10.086,1.689 l 0.086,0.13 c 3.24,5.03 5.661,10.592 7.262,16.389 -1.475,0.527 -2.167,2.048 -2.784,3.405 -0.161,0.382 -0.311,0.778 -0.485,1.266 -0.04,0.113 -0.317,0.9 -0.39,1.099 -1.517,4.147 -1.363,9.387 0.124,14.472 0.063,0.215 0.112,0.365 0.251,0.778 0.227,0.677 0.322,1.001 0.39,1.387 0.122,0.684 0.177,1.247 0.269,2.522 0.005,0.072 0.005,0.072 0.01,0.143 0.092,1.257 0.161,1.917 0.306,2.658 0.639,3.293 1.961,6.391 3.777,9.173 1.389,5.615 5.947,9.006 10.621,11.695 0.156,0.088 0.317,0.183 0.492,0.291 0.248,0.153 0.352,0.22 0.928,0.596 1.277,0.834 1.947,1.206 2.781,1.463 2.35,0.595 0.946,0.322 4.247,0.611 1.394,-0.082 2.856,-0.305 4.105,-0.994 C -6.502,-0.811 -3.296,-0.114 0,0"
             style="fill:#000000;fill-opacity:1;fill-rule:nonzero;stroke:none"
             id="path22" /></g><g
           id="g24"
           transform="translate(465.1611,365.2158)"><path
             d="m 0,0 c 0.669,0 1.028,-0.033 1.434,-0.163 0.649,-0.204 1.185,-0.628 1.657,-1.117 0.364,0.109 0.739,0.147 1.115,0.182 l 0.551,0.016 0.552,-0.005 c 2.105,-0.152 3.936,-1.098 5.419,-2.61 0.354,-0.39 0.606,-0.762 1.085,-1.551 0.021,-0.035 0.021,-0.035 0.042,-0.069 0.289,-0.472 0.431,-0.701 0.613,-0.954 0.233,-0.332 0.313,-0.444 0.429,-0.61 1.204,-1.72 1.81,-2.866 2.13,-4.283 0.117,-0.521 0.159,-1.048 0.159,-1.722 0,-0.197 -0.003,-0.354 -0.012,-0.71 -0.017,-0.699 -0.017,-1.012 0.009,-1.407 0.019,-0.336 0.048,-0.628 0.096,-1.005 0.009,-0.068 0.039,-0.317 0.048,-0.374 0.018,-0.141 0.03,-0.253 0.041,-0.358 0.07,-0.695 0.044,-1.281 -0.122,-2.133 -0.322,-1.655 -1.653,-3.216 -3.149,-3.522 -0.61,-0.102 -0.273,-0.058 -1.014,-0.116 -0.884,-1.278 -2.095,-2.254 -3.331,-3.15 -0.256,-0.175 -0.445,-0.349 -0.834,-0.74 -0.014,-0.014 -0.014,-0.014 -0.028,-0.027 -0.628,-0.634 -0.953,-0.891 -1.465,-1.067 -0.376,-0.128 -0.761,-0.145 -1.383,-0.097 -0.058,0.005 -0.108,0.009 -0.207,0.018 -0.341,0.025 -0.22,0.022 -0.36,0.026 -0.07,-0.134 -0.006,-0.008 -0.202,-0.375 -0.024,-0.047 -0.05,-0.097 -0.082,-0.154 -0.043,-0.078 -0.043,-0.078 -0.085,-0.156 -0.653,-1.207 -0.938,-1.798 -1.179,-2.539 -0.014,-0.046 -0.142,-0.473 -0.187,-0.607 -0.216,-0.634 -0.484,-0.994 -0.938,-1.06 -0.607,-0.088 -1.119,0.222 -1.851,0.945 -0.119,0.119 -0.051,0.051 -0.204,0.205 -0.06,-0.126 -0.024,-0.045 -0.104,-0.245 -0.003,-0.005 -0.003,-0.005 -0.003,-0.011 -0.097,-0.25 -0.147,-0.361 -0.224,-0.493 -0.083,-0.141 -0.178,-0.232 -0.372,-0.376 -0.033,-0.025 -0.051,-0.039 -0.066,-0.051 -0.016,-0.013 -0.016,-0.013 -0.033,-0.024 -0.36,-0.259 -0.521,-0.349 -0.967,-0.322 -0.376,-1.292 -1.124,-1.364 -2.233,-0.972 -0.038,-0.089 -0.086,-0.174 -0.14,-0.255 -0.824,-1.183 -1.875,-1.867 -2.996,-1.723 -0.703,0.089 -1.121,0.24 -1.553,0.61 -0.552,0.472 -0.911,0.963 -1.554,2.016 l -0.057,0.096 c -0.366,0.65 -0.812,1.228 -1.302,1.781 0.212,-1.951 0.77,-3.837 1.315,-5.712 0.017,-0.058 0.017,-0.058 0.032,-0.116 0.482,-1.646 0.686,-2.388 0.905,-3.32 0.15,-0.647 0.268,-1.229 0.472,-2.294 l 0.031,-0.166 c 0.202,-1.046 0.295,-1.515 0.423,-2.095 0.298,-1.413 0.639,-2.836 0.666,-4.289 l 0.035,-0.039 0.012,-0.011 c 0.129,-0.137 0.192,-0.206 0.256,-0.295 0.464,-0.634 1.563,-3.053 2.163,-4.596 0.13,-0.332 0.255,-0.646 0.459,-1.152 -0.013,0.033 0.139,-0.345 0.182,-0.447 0.067,-0.17 0.124,-0.313 0.178,-0.448 0.54,-1.317 1.012,-2.658 1.343,-4.047 1.919,-0.621 3.723,-1.683 4.986,-3.311 0.184,-0.252 0.341,-0.547 0.49,-0.902 0.088,-0.215 0.165,-0.432 0.244,-0.647 0.84,0.387 1.746,0.6 2.636,0.828 0.05,0.011 0.05,0.011 0.099,0.024 0.557,0.139 0.809,0.204 1.117,0.29 0.578,0.162 1.049,0.307 2.067,0.628 0.319,0.101 0.438,0.138 0.602,0.19 0.154,0.048 0.292,0.091 0.425,0.132 0.468,0.145 0.92,0.275 1.627,0.475 0.076,0.021 0.142,0.039 0.283,0.079 2.155,0.605 3.119,0.91 4.276,1.406 1.051,0.434 2.037,1.006 3.002,1.612 -0.813,0.934 -1.161,2.149 -1.216,3.377 0.032,1.882 0.976,3.657 2.602,4.58 0.298,0.129 0.596,0.261 0.894,0.393 0.008,0.003 0.017,0.004 0.025,0.006 -0.008,0.364 0.114,0.718 0.215,1.062 0.016,0.05 0.032,0.103 0.055,0.165 0.011,0.034 0.049,0.15 0.054,0.165 0.185,0.555 0.268,0.874 0.307,1.285 0.036,0.375 -0.021,0.659 -0.21,1.206 -0.066,0.194 -0.078,0.23 -0.105,0.317 -0.24,0.774 -0.158,1.33 0.455,2.04 0.338,0.36 0.141,0.175 0.612,0.533 l -0.003,0.077 c 0,3.414 2.576,6.184 5.755,6.184 3.179,0 5.755,-2.77 5.755,-6.182 0.003,-1.499 -0.487,-2.805 -1.39,-3.967 0.299,-0.652 0.356,-1.28 0.228,-1.981 -0.119,-0.51 -0.262,-0.818 -0.884,-2 -0.149,-0.286 -0.261,-0.524 -0.499,-1.054 -0.007,-0.016 -0.007,-0.016 -0.015,-0.032 -0.223,-0.495 -0.333,-0.735 -0.478,-1.014 -0.247,-0.473 -0.436,-0.868 -0.833,-1.742 -0.013,-0.026 -0.013,-0.026 -0.025,-0.052 -0.602,-1.318 -0.902,-1.924 -1.325,-2.618 -0.172,-0.286 -0.336,-0.48 -0.715,-0.885 -0.001,-0.003 -0.001,-0.003 -0.004,-0.003 -0.198,-0.214 -0.125,-0.13 -0.221,-0.245 -0.427,-1.326 -1.488,-2.247 -2.506,-3.108 -0.127,-0.104 -0.651,-0.536 -0.785,-0.646 -0.287,-0.24 -0.513,-0.442 -1.012,-0.897 l -0.006,-0.005 c -0.323,-0.296 -0.472,-0.431 -0.657,-0.594 -0.156,-0.136 -0.269,-0.261 -0.518,-0.546 -0.003,-10e-4 -0.003,-10e-4 -0.006,-0.004 -0.163,-0.188 -0.239,-0.273 -0.337,-0.374 -0.845,-0.866 -1.802,-1.677 -3.189,-2.742 -2.848,-2.193 -6.411,-4.252 -11.714,-6.971 C 5.359,-75.964 5.026,-76.146 4.3,-76.545 4.292,-76.55 4.292,-76.55 4.285,-76.553 3.846,-76.795 3.406,-77.037 2.962,-77.268 l -0.008,-0.284 c 0,-0.016 0,-0.016 -0.001,-0.035 -0.014,-0.43 -0.014,-0.621 0,-0.854 0.219,-3.369 -0.06,-6.801 -0.805,-10.463 -0.107,-0.529 -0.188,-0.956 -0.367,-1.908 -0.01,-0.06 -0.01,-0.06 -0.022,-0.123 -0.31,-1.655 -0.475,-2.479 -0.709,-3.436 -0.067,-0.275 -0.138,-0.56 -0.223,-0.905 -0.039,-0.157 -0.067,-0.267 -0.144,-0.572 -0.9,-3.596 -1.242,-5.227 -1.425,-7.294 -0.162,-1.741 -0.154,-3.494 -0.046,-5.24 0.025,-0.43 0.087,-0.856 0.129,-1.284 1.004,-1.498 2.524,-2.507 3.97,-3.506 0.804,-0.563 1.634,-1.1 2.372,-1.759 0.648,-0.09 1.247,-0.387 1.837,-0.669 0.02,-0.009 0.02,-0.009 0.042,-0.02 0.565,-0.274 0.823,-0.389 1.149,-0.501 0.094,-0.032 0.194,-0.064 0.331,-0.106 0.039,-0.01 0.178,-0.052 0.176,-0.052 0.071,-0.022 0.127,-0.038 0.178,-0.056 0.865,-0.276 1.626,-0.584 1.658,-1.599 l 0.117,-0.057 c 0.058,-0.029 0.116,-0.057 0.194,-0.092 -0.006,0.002 0.151,-0.07 0.193,-0.09 0.586,-0.265 1.233,-0.664 1.151,-1.418 0.24,-0.135 0.11,-0.067 0.396,-0.196 l 0.003,-10e-4 c 0.445,-0.195 0.632,-0.301 0.806,-0.506 0.359,-0.495 0.264,-0.669 0.124,-1.205 0.758,-0.846 0.266,-1.901 -0.784,-2.064 -0.224,-0.435 -0.102,-0.25 -0.344,-0.566 -0.043,-0.051 -0.074,-0.095 -0.142,-0.197 -0.002,-0.002 -0.002,-0.002 -0.002,-0.004 -0.137,-0.202 -0.209,-0.292 -0.329,-0.38 -1.659,-1.01 -3.965,-0.07 -4.932,1.525 -0.729,0.089 -1.411,0.362 -2.083,0.654 -0.581,0.264 -1.168,0.583 -1.956,1.043 -0.19,0.111 -0.921,0.545 -1.097,0.647 -0.406,0.237 -0.717,0.412 -1,0.557 -0.266,0.138 -0.499,0.213 -1.036,0.36 -0.002,0 -0.002,0 -0.004,0.001 -0.335,0.078 -0.655,0.197 -0.973,0.33 -1.294,-0.069 -2.595,-0.107 -3.891,-0.011 -1.054,0.081 -1.409,0.158 -2.319,0.318 -0.041,0.007 -0.082,0.015 -0.126,0.023 -0.131,0.025 -0.638,0.114 -0.744,0.134 -0.311,0.055 -0.565,0.106 -0.81,0.163 -1.051,0.239 -1.8,0.561 -2.284,1.06 -1.015,1.04 -1.188,2.277 -0.723,3.81 0.19,0.622 0.448,1.218 0.904,2.143 0.009,0.016 0.287,0.584 0.366,0.742 l 0.014,0.033 c 0.02,0.387 0.064,0.774 0.104,1.159 0.007,0.061 0.012,0.111 0.023,0.221 0.078,0.728 0.111,1.051 0.137,1.457 0.246,4.171 0.402,8.351 0.295,12.53 -0.042,0.104 -0.015,0.035 -0.081,0.208 -0.549,1.43 -0.79,2.132 -0.99,2.989 -0.656,2.854 -1.017,5.797 -0.84,8.729 0.08,1.309 0.147,1.538 0.347,2.789 -0.388,0.467 -0.71,0.978 -0.914,1.555 -0.222,0.738 -0.119,1.514 0.161,2.219 -0.474,0.659 -0.873,1.371 -1.267,2.081 -0.025,0.044 -0.053,0.093 -0.104,0.188 -0.219,0.401 -0.451,0.795 -0.681,1.188 -1.856,-0.206 -3.681,-0.64 -5.491,-1.089 -0.137,-0.035 -0.279,-0.075 -0.442,-0.12 -0.126,-0.035 -0.22,-0.064 -0.457,-0.134 -0.719,-0.209 -1.052,-0.299 -1.463,-0.379 -0.548,-0.109 -1.026,-0.219 -1.947,-0.439 -0.045,-0.012 -0.045,-0.012 -0.091,-0.023 -0.648,-0.156 -0.94,-0.225 -1.305,-0.306 -2.462,-0.55 -5.103,-0.758 -7.764,-0.635 -0.248,0.012 -0.448,0.011 -0.902,10e-4 h -0.005 c -0.357,-0.005 -0.218,-0.005 -0.417,-0.004 -0.85,-0.977 -1.816,-1.828 -2.871,-2.561 -0.433,-0.238 -0.867,-0.474 -1.302,-0.713 -0.007,-0.001 -0.013,-0.004 -0.021,-0.006 -0.715,-6.165 -0.774,-12.382 -0.849,-18.581 -0.001,-0.145 -0.001,-0.145 -0.002,-0.29 -0.062,-5.406 -0.11,-7.806 -0.242,-10.802 -0.03,-0.676 -0.041,-1.222 -0.054,-2.454 -0.007,-0.514 -0.009,-0.741 -0.015,-1.024 -0.049,-2.922 -0.255,-4.747 -0.873,-6.572 -0.049,-0.145 -0.237,-0.715 -0.235,-0.71 -0.103,-0.311 -0.188,-0.553 -0.275,-0.791 -0.315,-0.857 -0.626,-1.483 -0.981,-1.91 -1.679,-2.007 -4.153,-3.018 -6.78,-2.811 -0.112,0.009 -0.2,0.013 -0.401,0.018 l -0.154,0.004 c -0.098,-0.01 -0.043,-0.004 -0.16,-0.017 -0.382,-0.04 -0.654,-0.043 -0.924,0.004 -1.29,0.22 -2.742,0.82 -3.977,1.611 -0.09,0.058 -0.175,0.115 -0.31,0.207 -0.03,0.019 -0.03,0.019 -0.059,0.038 -0.46,0.312 -0.682,0.447 -0.967,0.57 -1.664,0.71 -3.076,1.425 -4.275,2.192 -0.432,0.277 -0.767,0.543 -1.455,1.128 -0.037,0.033 -0.037,0.033 -0.075,0.064 -0.377,0.32 -0.58,0.491 -0.814,0.67 -2.228,1.713 -5.486,4.691 -7.32,6.708 -0.075,0.081 -0.46,0.505 -0.577,0.631 -0.248,0.274 -0.462,0.509 -0.678,0.744 -0.556,0.603 -1.067,1.147 -1.568,1.662 -0.365,0.377 -0.715,0.728 -1.054,1.058 -0.767,0.724 -1.526,1.475 -2.393,2.073 0.232,-1.143 0.749,-2.186 1.433,-3.111 0.145,-0.181 0.346,-0.361 0.653,-0.595 0.062,-0.046 0.126,-0.094 0.211,-0.159 0.018,-0.012 0.171,-0.126 0.216,-0.16 1.114,-0.826 1.531,-1.373 1.381,-2.225 -0.272,-1.204 -1.611,-2.071 -2.753,-1.531 -0.281,-0.867 -0.872,-1.196 -1.738,-1.004 -0.156,0.065 -0.312,0.128 -0.468,0.192 -0.006,0.003 -0.012,0.006 -0.017,0.008 -0.557,-0.672 -1.087,-0.694 -1.708,-0.123 -0.562,-0.583 -1.204,-0.377 -1.773,0.065 -0.12,-0.093 -0.222,-0.221 -0.361,-0.277 -0.518,-0.213 -0.838,0.028 -1.195,0.373 -0.391,0.462 -0.627,1.032 -0.803,1.61 -0.663,0.356 -0.494,0.238 -0.955,0.609 -1.128,0.993 -1.68,2.458 -2.042,4.797 -0.062,0.395 -0.076,0.499 -0.203,1.463 -0.087,0.653 -0.141,1.031 -0.209,1.416 -0.059,0.334 -0.137,0.708 -0.247,1.193 -0.058,0.263 -0.279,1.214 -0.306,1.336 -0.233,1.018 -0.383,1.753 -0.498,2.488 -0.432,2.775 -0.176,4.75 1.079,6.036 0.164,0.138 0.076,0.085 0.263,0.163 0.414,0.471 1.062,0.514 1.638,0.591 l 0.433,-0.013 c 0.926,-0.069 1.998,-0.418 2.773,-0.852 0.745,-0.416 1.373,-0.679 2.78,-1.203 0.08,-0.029 0.08,-0.029 0.161,-0.059 0.888,-0.331 1.378,-0.528 1.912,-0.776 0.577,-0.268 1.022,-0.522 1.986,-1.107 l 0.04,-0.025 c 1.268,-0.77 1.872,-1.096 2.663,-1.384 0.995,-0.359 1.86,-0.614 3.601,-1.088 0.066,-0.019 0.066,-0.019 0.132,-0.035 1.651,-0.448 2.388,-0.662 3.295,-0.973 2.524,-0.904 4.84,-2.394 6.81,-4.245 -0.114,1.291 -0.34,2.568 -0.564,3.844 -0.111,0.627 -0.195,1.136 -0.375,2.261 -0.024,0.154 -0.035,0.222 -0.048,0.305 -0.394,2.449 -0.637,3.741 -1.014,5.179 -0.173,0.66 -0.338,1.207 -0.69,2.325 -0.103,0.329 -0.118,0.374 -0.16,0.512 -0.364,1.169 -0.716,2.346 -0.926,3.558 -0.059,0.333 -0.085,0.67 -0.129,1.006 -0.894,0.924 -1.679,1.945 -2.382,3.026 -2.465,3.93 -3.43,9.187 -2.808,14.296 0.205,1.281 0.096,0.773 0.276,1.534 -0.238,0.272 -0.161,0.139 -0.27,0.373 -0.186,0.509 -0.174,1.709 0.056,2.642 0.224,0.868 0.531,1.501 1.43,1.693 0.2,1.684 0.685,3.316 1.159,4.935 0.249,0.851 0.259,0.886 0.351,1.203 0.295,1.028 0.389,1.358 0.535,1.865 1.297,4.484 2.195,7.242 3.335,10.019 1.42,3.46 3.073,6.468 5.17,9.292 1.07,1.441 2.609,3.147 3.774,4.143 0.054,0.047 0.106,0.091 0.189,0.161 0.021,0.018 0.021,0.018 0.043,0.036 0.323,0.271 0.644,0.551 0.944,0.849 l 0.286,0.38 c 0.208,0.267 0.431,0.544 0.669,0.834 0.553,0.667 0.856,1.013 1.828,2.1 0.363,0.405 0.729,0.789 1.102,1.153 1.111,1.087 2.246,1.991 3.805,3.07 0.325,0.224 0.669,0.458 1.097,0.746 0.236,0.157 1.066,0.711 1.161,0.774 0.289,0.194 2.089,1.42 2.646,1.792 0.719,0.478 1.349,0.88 1.95,1.242 1.276,0.766 2.372,1.316 3.339,1.646 1.575,0.581 3.232,0.731 4.889,0.81 1.621,0.032 3.239,-0.122 4.85,-0.279 1.055,0.352 2.062,0.822 3.009,1.411 0.196,0.128 0.352,0.242 0.689,0.496 0.003,0.002 0.003,0.002 0.006,0.005 0.447,0.338 0.651,0.485 0.923,0.643 0.613,0.36 1.204,0.762 1.775,1.188 0.059,1.569 0.702,3.068 1.743,4.199 0.303,0.31 0.581,0.523 1.213,0.962 0.008,0.004 0.008,0.004 0.015,0.011 0.62,0.428 0.891,0.638 1.183,0.939 1.061,1.085 2.037,1.932 3.107,2.664 0.13,0.089 0.244,0.154 0.487,0.284 0.003,0.002 0.003,0.002 0.009,0.005 0.275,0.145 0.394,0.215 0.531,0.315 C -4.744,-0.903 -2.67,0 0,0"
             style="fill:#000000;fill-opacity:1;fill-rule:nonzero;stroke:none"
             id="path26" /></g><g
           id="g28"
           transform="translate(436.0449,699.374)"><path
             d="m 0,0 c 1.219,-0.079 2.403,-0.37 3.561,-0.759 0.614,-0.236 1.326,-0.639 2.043,-1.129 0.357,-0.244 0.628,-0.533 1.108,-1.123 -0.006,0.009 0.119,-0.145 0.153,-0.187 0.209,-0.258 0.351,-0.423 0.498,-0.574 0.241,-0.247 0.474,-0.427 0.967,-0.772 0.023,-0.017 0.023,-0.017 0.045,-0.032 0.766,-0.536 1.092,-0.819 1.382,-1.288 0.297,-0.477 0.389,-0.877 0.489,-1.781 0.028,-0.256 0.039,-0.364 0.061,-0.503 0.031,-0.212 0.066,-0.395 0.116,-0.569 0.075,-0.274 0.188,-0.522 0.376,-0.86 0.045,-0.08 0.202,-0.358 0.211,-0.373 0.361,-0.639 0.546,-1.088 0.644,-1.708 0.006,-0.03 0.012,-0.064 0.019,-0.105 0.005,-0.023 0.01,-0.054 0.018,-0.109 0.023,-0.121 0.036,-0.199 0.045,-0.281 0.027,-0.19 0.035,-0.347 0.019,-0.487 -0.149,-1.118 -0.902,-2.381 -2.109,-2.461 -0.113,-0.65 -0.049,-0.318 -0.195,-0.996 -0.014,-0.066 -0.027,-0.116 -0.055,-0.24 -0.105,-0.462 -0.151,-0.672 -0.202,-0.93 -0.039,-0.2 -0.039,-0.362 -0.013,-0.727 0.025,-0.355 0.028,-0.514 -0.006,-0.715 -0.244,-0.986 -1.244,-1.701 -2.137,-2.015 -0.011,-0.049 -0.011,-0.022 0.014,-0.083 0.025,-0.043 0.066,-0.089 0.132,-0.154 0.015,-0.016 0.069,-0.068 0.071,-0.069 0.026,-0.028 0.046,-0.048 0.063,-0.068 0.063,-0.069 0.091,-0.122 0.069,-0.19 -0.021,-0.025 -0.032,-0.064 -0.06,-0.077 -0.224,-0.103 -0.465,-0.08 -0.694,-0.015 -0.213,-0.391 -0.194,-0.849 -0.162,-1.279 0.037,-0.302 0.103,-0.588 0.232,-1.057 0.258,-0.932 0.307,-1.178 0.251,-1.525 -0.239,-0.848 -1.583,-1.056 -2.273,-1.081 -0.047,-0.269 -0.033,-0.545 -0.03,-0.816 0.003,-0.608 0.02,-0.965 -0.555,-1.269 0.059,-1.03 -0.298,-1.283 -1.204,-1.48 -0.103,-0.325 -0.052,-0.151 -0.147,-0.525 -0.016,-0.06 -0.021,-0.089 -0.029,-0.121 -0.178,-0.715 -0.323,-1.079 -0.63,-1.393 -0.289,-0.298 -0.601,-0.387 -1.267,-0.455 -1.056,-0.108 -2.077,0.24 -3.389,1.009 -0.128,0.076 -0.223,0.146 -0.428,0.312 -0.002,10e-4 -0.002,10e-4 -0.003,0.003 -0.201,0.159 -0.1,0.083 -0.305,0.228 -0.194,-0.177 -0.386,-0.354 -0.58,-0.534 -0.224,-0.212 -0.427,-0.408 -0.61,-0.596 -0.208,-0.215 -0.138,-0.136 -0.22,-0.229 0.445,-0.497 0.764,-1.094 1.084,-1.678 0.087,-0.16 0.166,-0.286 0.346,-0.562 0.002,-0.002 0.002,-0.002 0.002,-0.004 0.227,-0.349 0.325,-0.509 0.429,-0.72 0.404,-0.832 0.703,-1.524 1.325,-3.041 0.041,-0.098 0.041,-0.098 0.081,-0.196 0.135,-0.328 0.227,-0.551 0.321,-0.776 0.211,-0.504 0.343,-0.963 0.573,-1.887 0.01,-0.042 0.01,-0.042 0.02,-0.083 0.166,-0.672 0.246,-0.974 0.362,-1.335 0.219,-0.672 0.457,-1.214 0.977,-2.294 0.038,-0.081 0.038,-0.081 0.078,-0.162 0.029,-0.061 0.054,-0.112 0.078,-0.161 0.466,-1.022 0.984,-2.06 1.157,-3.188 0.047,-0.317 0.049,-0.639 0.074,-0.958 0.363,0.292 0.743,0.559 1.122,0.826 0.017,0.011 0.017,0.011 0.035,0.024 0.53,0.37 0.772,0.545 1.055,0.771 1.772,1.413 3.148,3.148 4.38,5.424 0.125,0.23 0.247,0.406 0.525,0.772 l 0.008,0.014 c 0.118,0.153 0.233,0.31 0.339,0.472 -0.118,0.057 -0.038,0.012 -0.211,0.179 0,-0.001 -0.202,0.23 -0.269,0.3 -0.666,0.683 -0.87,1.672 -0.323,2.347 0.101,0.125 0.195,0.218 0.396,0.408 l 0.013,0.012 c 0.231,0.219 0.336,0.326 0.441,0.471 0.236,0.322 0.397,0.6 0.736,1.238 0.003,0.003 0.003,0.003 0.005,0.007 0.146,0.27 0.285,0.543 0.452,0.803 0.347,0.888 0.756,1.756 1.392,2.466 0.34,0.349 0.595,0.47 1.054,0.566 0.468,0.023 0.728,-0.173 1.12,-0.41 0.396,0.143 0.796,0.281 1.221,0.29 0.457,-0.003 0.826,-0.214 1.136,-0.691 0.134,-0.193 0.242,-0.399 0.32,-0.621 1.025,-0.034 1.336,-0.533 1.531,-1.48 0.407,-0.052 0.655,-0.143 0.976,-0.407 0.381,-0.393 0.424,-1.073 0.302,-2.074 -0.008,-0.08 -0.016,-0.174 -0.028,-0.318 -0.003,-0.036 -0.017,-0.201 -0.02,-0.247 -0.006,-0.1 -0.014,-0.183 -0.022,-0.263 -0.043,-0.45 -0.1,-0.755 -0.196,-0.954 -0.165,-0.338 -0.351,-0.591 -0.746,-1.054 -0.034,-0.039 -0.034,-0.039 -0.066,-0.077 -0.175,-0.204 -0.267,-0.319 -0.37,-0.451 -0.195,-0.258 -0.915,-1.278 -1.09,-1.486 -0.512,-0.656 -1.149,-0.832 -1.911,-1.01 -0.646,-1.558 -1.219,-3.147 -1.793,-4.735 -0.035,-0.099 -0.035,-0.099 -0.072,-0.199 -0.378,-1.047 -0.593,-1.63 -0.833,-2.271 -0.09,-0.242 -0.173,-0.43 -0.371,-0.846 v 0 c -0.182,-0.378 -0.259,-0.548 -0.344,-0.763 -0.067,-0.175 -0.121,-0.325 -0.232,-0.632 -0.02,-0.057 -0.02,-0.057 -0.04,-0.113 -0.169,-0.476 -0.273,-0.745 -0.404,-1.03 -0.204,-0.449 -0.412,-0.836 -0.814,-1.544 -0.012,-0.022 -0.097,-0.17 -0.122,-0.214 -1.694,-3.098 -3.557,-6.089 -6.057,-8.569 0.014,-0.183 0.009,-0.107 0.019,-0.23 0.046,-0.448 0.018,-0.294 0.049,-0.468 1.163,0.679 2.247,1.482 3.268,2.369 0.106,0.094 0.186,0.177 0.368,0.369 0.002,10e-4 0.002,10e-4 0.003,0.002 0.195,0.207 0.283,0.297 0.402,0.402 0.07,0.061 0.604,0.592 0.61,0.598 0.027,0.027 0.053,0.052 0.079,0.077 0.389,0.376 0.618,0.569 0.749,0.589 l 0.202,0.005 c 0.273,-0.08 0.138,-0.021 0.404,-0.187 1.927,1.767 4.355,2.743 6.752,3.634 0.245,0.09 0.455,0.161 0.889,0.302 0.071,0.023 0.105,0.034 0.142,0.046 0.728,0.237 1.125,0.382 1.544,0.581 0.162,0.076 0.33,0.156 0.536,0.255 0.111,0.054 0.493,0.238 0.539,0.26 1.752,0.814 3.519,1.701 5.435,2.018 0.715,0.118 0.897,0.099 1.616,0.121 l 0.414,-0.014 c 2.403,-0.131 3.847,-1.536 4.962,-4.28 0.282,-0.69 0.433,-1.133 0.522,-1.59 0.179,-0.915 0.252,-1.907 0.252,-3.084 v -0.2 c 0.002,-0.581 -0.002,-0.909 -0.026,-1.295 -0.033,-0.429 -0.009,-0.189 -0.076,-0.718 0.091,-0.389 0.204,-0.773 0.312,-1.157 0.014,-0.05 0.025,-0.09 0.052,-0.18 0.413,-1.442 0.569,-2.098 0.661,-2.939 0.097,-0.912 0.131,-1.883 0.109,-3.005 -0.015,-0.737 -0.043,-1.36 -0.11,-2.625 -0.006,-0.128 -0.012,-0.193 -0.015,-0.258 -0.019,-0.404 -0.025,-0.727 -0.019,-1.456 v -0.174 c 0.003,-0.717 -0.006,-1.142 -0.043,-1.598 -0.409,-5.008 -0.516,-8.691 -0.266,-12.276 0.035,-0.386 0.008,-0.157 0.096,-0.687 0.113,-0.229 0.213,-0.466 0.311,-0.701 0.003,-0.004 0.003,-0.004 0.003,-0.007 0.363,-0.85 0.548,-1.216 0.854,-1.618 0.745,-0.985 1.694,-1.627 3.497,-2.536 0.131,-0.066 0.611,-0.307 0.565,-0.284 0.556,-0.279 0.901,-0.457 1.243,-0.654 0.683,-0.382 1.292,-0.883 1.899,-1.38 0.405,-0.048 0.813,0.038 1.211,0.112 0.056,0.012 0.104,0.022 0.198,0.041 0.408,0.1 0.824,0.135 1.241,0.172 0.383,0.019 0.719,-0.109 1.03,-0.322 0.192,0.03 0.092,0.014 0.302,0.047 0.19,0.031 0.329,0.05 0.468,0.065 l 0.308,0.023 c 0.587,-0.013 0.993,-0.065 1.152,-0.705 0.02,-0.17 0.031,-0.222 0.025,-0.414 0,-0.03 -0.011,-0.058 -0.017,-0.088 0.263,0.024 0.502,-0.093 0.721,-0.221 0.463,-0.358 0.548,-0.858 0.322,-1.414 -0.176,-0.429 -0.535,-0.876 -0.915,-1.178 -0.289,-0.23 -0.658,-0.368 -1.209,-0.498 -0.722,-0.171 -1.084,-0.167 -1.518,-0.033 -0.048,0.016 -0.213,0.069 -0.241,0.079 -0.173,0.05 -0.11,0.037 -0.182,0.052 -0.673,-0.599 -1.458,-0.87 -2.331,-0.951 -0.745,-0.037 -1.293,0.057 -2.78,0.409 -0.608,0.143 -0.945,0.217 -1.324,0.281 -0.468,0.08 -0.86,0.097 -1.695,0.095 h -0.029 -0.17 c -0.93,0 -1.863,-0.084 -3.12,-0.257 -0.291,-0.041 -0.502,-0.072 -1.058,-0.154 -0.164,-0.024 -0.257,-0.038 -0.363,-0.053 -0.209,-0.031 -0.374,-0.066 -0.765,-0.159 -0.714,-0.171 -1.044,-0.223 -1.459,-0.195 -0.638,0.044 -1.24,0.167 -1.961,0.39 -0.041,0.011 -0.227,0.068 -0.276,0.082 -0.121,0.037 -0.222,0.07 -0.32,0.105 -0.377,0.135 -0.642,0.281 -0.793,0.469 -0.368,0.453 -0.577,0.858 -0.616,1.304 -0.042,0.478 0.03,0.851 0.27,1.646 0.058,0.2 0.082,0.278 0.111,0.383 0.029,0.107 0.053,0.204 0.073,0.296 0.213,0.938 0.357,1.919 0.452,2.988 l 0.005,0.028 c -0.14,0.706 -0.22,1.42 -0.3,2.135 -0.089,0.86 -0.14,1.534 -0.236,3.036 -0.082,1.262 -0.305,2.512 -0.735,4.381 -0.443,1.936 -0.705,2.918 -1.104,4 -0.401,1.072 -0.863,2.152 -1.375,3.2 -1.036,2.126 -1.65,5.568 -1.323,7.744 0.087,0.631 0.283,1.237 0.503,1.83 -0.24,-0.116 -0.464,-0.26 -0.685,-0.412 -1.034,-0.758 -1.698,-1.533 -3.062,-3.394 l -0.004,-0.006 c -0.675,-0.921 -0.984,-1.328 -1.394,-1.81 -1.142,-1.417 -2.58,-2.482 -4.077,-3.462 0.131,-1.002 -0.751,-1.588 -1.48,-2.059 -0.064,-0.041 -0.829,-0.5 -1,-0.617 -0.393,-0.269 -0.719,-0.52 -1.364,-1.037 -0.034,-0.028 -0.034,-0.028 -0.07,-0.055 -0.947,-0.76 -1.396,-1.095 -1.984,-1.439 C 7.858,-84.06 7.491,-84.209 6.689,-84.49 6.678,-84.494 6.678,-84.494 6.666,-84.498 6.373,-84.601 6.508,-84.553 6.264,-84.641 6.14,-84.921 6.196,-84.792 6.093,-85.027 L 6.091,-85.03 c -0.286,-0.643 -0.418,-0.93 -0.601,-1.278 -0.794,-1.51 -1.697,-4.78 -1.862,-6.637 -0.045,-0.497 -0.07,-0.896 -0.122,-1.797 v -0.025 c -0.042,-0.767 -0.065,-1.129 -0.102,-1.565 -0.048,-0.614 -0.047,-1.329 10e-4,-1.981 0.011,-0.135 0.022,-0.238 0.053,-0.5 0.022,-0.187 0.032,-0.281 0.043,-0.391 0.028,-0.311 0.032,-0.561 0.002,-0.796 -0.061,-0.481 -0.134,-0.964 -0.312,-1.416 -0.065,-0.138 -0.129,-0.276 -0.198,-0.413 0,-0.003 -0.003,-0.004 -0.004,-0.007 l 0.013,-0.183 c 0.017,-0.273 0.025,-0.392 0.034,-0.543 0.017,-0.264 0.017,-0.476 0.011,-0.952 -0.008,-0.511 -0.007,-0.737 0.015,-1.017 0.063,-0.857 0.178,-1.739 0.368,-2.9 0.049,-0.305 0.091,-0.543 0.192,-1.108 0.372,-2.057 0.482,-2.993 0.4,-4.171 -0.005,-0.066 -0.008,-0.125 -0.017,-0.25 -0.091,-1.294 -0.151,-1.892 -0.286,-2.619 -0.05,-0.254 -0.105,-0.5 -0.167,-0.739 -0.079,-0.297 -0.148,-0.492 -0.423,-1.268 -0.02,-0.055 -0.036,-0.102 -0.052,-0.147 -0.263,-0.745 -0.392,-1.182 -0.435,-1.53 -0.02,-0.154 -0.035,-0.279 -0.064,-0.552 -0.01,-0.084 -0.013,-0.122 -0.018,-0.168 -0.17,-1.521 -0.343,-2.303 -0.792,-3.131 -0.245,-0.443 -0.512,-0.866 -0.816,-1.268 -0.185,-0.82 -0.322,-1.649 -0.405,-2.486 -0.067,-0.74 -0.076,-1.335 -0.062,-2.677 v -0.061 c 0.01,-1.109 0.005,-1.65 -0.037,-2.29 -0.043,-0.644 -0.074,-1.246 -0.122,-2.264 l -0.012,-0.248 c -0.05,-1.107 -0.076,-1.6 -0.113,-2.215 -0.059,-0.963 -0.195,-1.723 -0.56,-3.409 -0.026,-0.113 -0.037,-0.163 -0.051,-0.226 -0.298,-1.375 -0.435,-2.138 -0.498,-2.989 -0.129,-1.864 -0.271,-3.735 -0.192,-5.607 0.015,-0.353 0.057,-0.704 0.085,-1.056 0.97,-2.426 2.4,-4.717 4.272,-6.515 0.307,-0.282 0.594,-0.471 1.23,-0.848 0.013,-0.008 0.013,-0.008 0.026,-0.015 0.623,-0.37 0.898,-0.551 1.207,-0.821 0.351,-0.305 0.632,-0.679 0.91,-1.051 l 0.019,-0.009 c 0.254,-0.171 0.447,-0.322 0.867,-0.668 0.001,-0.002 0.001,-0.002 0.005,-0.004 0.054,-0.045 0.078,-0.065 0.109,-0.09 0.164,-0.135 0.354,-0.241 0.808,-0.471 0.017,-0.008 0.017,-0.008 0.034,-0.017 0.572,-0.288 0.806,-0.431 0.965,-0.626 0.483,-0.594 0.435,-1.252 -0.042,-1.771 -0.411,-0.412 -0.986,-0.701 -1.573,-0.666 -0.045,-0.208 -0.016,-0.111 -0.082,-0.293 -0.325,-0.728 -1.19,-0.791 -1.81,-0.42 -0.142,-0.414 -0.477,-0.676 -0.889,-0.702 -0.44,0.005 -0.795,0.281 -1.138,0.526 -0.122,-0.334 -0.049,-0.203 -0.184,-0.409 -0.686,-0.783 -1.728,-0.309 -2.335,0.33 -0.145,-0.785 -0.913,-1.022 -1.573,-0.737 -0.298,0.129 -0.392,0.218 -0.619,0.395 -0.085,0.074 -0.151,0.139 -0.293,0.28 -0.003,0.002 -0.003,0.002 -0.005,0.006 -0.246,0.245 -0.362,0.348 -0.526,0.444 -0.207,0.123 -0.389,0.208 -0.782,0.382 l -0.012,0.005 c -0.637,0.282 -0.915,0.43 -1.23,0.687 -0.55,0.451 -0.918,0.888 -1.615,1.836 -0.057,0.076 -0.085,0.116 -0.112,0.152 -0.339,0.459 -0.543,0.724 -0.782,0.999 -0.115,0.133 -0.24,0.269 -0.407,0.444 -0.037,0.039 -0.074,0.078 -0.125,0.132 -0.063,0.066 -0.099,0.102 -0.127,0.132 -1.061,1.111 -1.486,1.754 -1.579,2.717 -0.091,0.936 0.099,1.667 0.694,3.181 0.223,0.563 0.301,0.772 0.397,1.062 0.007,0.021 0.014,0.042 0.02,0.062 0.267,0.813 0.355,1.671 0.394,2.523 -0.381,1.93 -0.948,3.815 -1.515,5.695 -0.064,0.211 -0.092,0.307 -0.236,0.782 -0.472,1.541 -0.695,2.292 -0.945,3.19 -0.256,0.919 -0.45,1.768 -0.764,3.269 -0.017,0.083 -0.032,0.149 -0.062,0.296 -0.019,0.092 -0.019,0.092 -0.039,0.183 -0.518,2.48 -0.351,6.642 0.348,9.146 0.299,1.078 0.625,1.915 1.41,3.765 l 0.023,0.055 c 0.51,1.258 1.087,2.503 1.428,3.826 0.097,0.369 0.162,0.744 0.241,1.117 -0.348,1.252 -0.147,0.621 -0.609,1.893 -0.053,0.131 -0.108,0.257 -0.197,0.455 -0.018,0.039 -0.018,0.039 -0.036,0.077 -0.186,0.41 -0.266,0.6 -0.338,0.84 -0.189,0.63 -0.387,1.205 -0.749,2.193 -0.024,0.064 -0.044,0.12 -0.088,0.24 -0.339,0.924 -0.494,1.357 -0.666,1.888 -0.149,0.46 -0.246,0.924 -0.359,1.657 -0.013,0.08 -0.02,0.128 -0.047,0.297 -0.052,0.347 -0.08,0.516 -0.114,0.713 -0.165,0.823 -0.234,1.659 -0.31,2.494 -0.411,0.114 -0.724,0.383 -0.959,0.735 -0.231,0.393 -0.274,0.721 -0.271,1.473 0.001,0.274 -10e-4,0.395 -0.011,0.546 -0.002,0.015 -0.002,0.03 -0.004,0.044 -0.008,0.111 -0.019,0.226 -0.033,0.343 -0.04,0.354 -0.084,0.646 -0.186,1.268 -0.029,0.167 -0.037,0.22 -0.05,0.303 -0.174,1.07 -0.4,1.921 -0.958,3.791 -0.058,0.189 -0.076,0.254 -0.106,0.351 -0.137,0.449 -0.263,0.902 -0.387,1.356 l -0.099,0.086 c -0.017,0.014 -0.017,0.014 -0.034,0.029 -0.314,0.276 -0.471,0.406 -0.668,0.541 -0.743,0.508 -1.328,1.151 -2.216,2.322 -2.488,3.177 -3.046,6.92 -2.983,10.885 -0.534,0.277 -0.315,0.122 -0.681,0.43 -0.489,0.501 -0.621,2.723 -0.18,3.288 0.159,0.219 0.373,0.293 0.613,0.393 -0.16,1.039 -0.091,0.563 -0.21,1.43 -0.095,0.706 -0.135,0.992 -0.197,1.373 -0.354,2.181 -0.8,4.201 -1.37,6.144 -0.266,0.916 -0.687,1.613 -2.243,3.914 -0.232,0.344 -0.399,0.593 -0.56,0.84 -0.669,1.021 -1.117,1.805 -1.421,2.533 -0.368,0.882 -0.614,1.986 -0.885,3.736 -0.026,0.174 -0.054,0.355 -0.088,0.584 -0.011,0.071 -0.069,0.463 -0.086,0.576 -0.131,0.873 -0.218,1.397 -0.318,1.893 -0.191,0.925 -0.324,1.684 -0.595,3.323 -0.121,0.726 -0.169,1.013 -0.234,1.398 -0.611,3.432 -1.015,6.878 -0.076,10.289 0.002,0.341 0.043,0.68 0.083,1.019 0.264,1.891 1.043,4.096 2.027,5.736 0.769,1.282 1.624,2.28 3.331,4.032 0.35,0.358 0.683,0.611 1.434,1.124 l 0.035,0.023 c 0.738,0.505 1.061,0.749 1.396,1.091 0.57,0.587 1.087,1.02 2.233,1.919 0.03,0.024 0.03,0.024 0.061,0.048 0.557,0.442 1.122,0.873 1.646,1.357 0.75,1.277 1.332,2.651 1.916,4.015 0.043,0.106 0.085,0.205 0.172,0.41 0.078,0.183 0.156,0.366 0.233,0.549 -0.031,0.034 -0.004,0.005 -0.086,0.085 -0.008,0.007 -0.008,0.007 -0.015,0.013 -0.217,0.204 -0.302,0.311 -0.349,0.479 -0.166,0.595 -0.16,1.132 -0.006,1.741 0.075,0.3 0.143,0.5 0.365,1.107 0.228,0.623 0.397,1.312 0.591,2.304 0.385,1.97 0.633,3.052 1.015,4.224 1.165,3.486 3.297,6.521 7.082,6.745 0.147,-0.008 0.088,-0.005 0.169,-0.01 0.394,0.478 0.884,0.844 1.43,1.115 0.864,0.371 1.813,0.355 2.733,0.363 z"
             style="fill:#000000;fill-opacity:1;fill-rule:nonzero;stroke:none"
             id="path30" /></g><g
           id="g32"
           transform="translate(403.2539,532.2588)"><path
             d="m 0,0 0.309,-0.017 c 1.965,-0.168 4.193,-1.565 5.627,-3.361 0.629,-0.79 1.111,-1.678 1.626,-2.906 0.054,-0.131 0.098,-0.245 0.183,-0.474 0.017,-0.043 0.017,-0.043 0.033,-0.087 0.166,-0.44 0.268,-0.677 0.408,-0.922 0.184,-0.325 0.388,-0.644 0.646,-1.021 0.072,-0.106 0.146,-0.213 0.242,-0.35 0.012,-0.017 0.188,-0.269 0.239,-0.341 0.192,-0.276 0.326,-0.474 0.451,-0.67 0.75,-1.143 1.071,-2.326 0.692,-3.672 0.573,-0.461 0.907,-1.097 1.28,-1.723 0.186,-0.021 0.098,-0.013 0.261,-0.029 0.367,-0.031 0.762,-0.027 1.233,0.005 0.244,0.017 0.459,0.037 0.865,0.078 0.296,0.031 0.36,0.037 0.492,0.049 0.482,0.045 0.963,0.149 1.735,0.357 0.071,0.018 0.134,0.035 0.247,0.066 1.071,0.29 1.519,0.391 2.07,0.435 l 0.661,0.032 c 1.83,0.022 3.585,-0.487 5.317,-1.025 2.879,-0.897 5.676,-2.148 7.953,-4.194 0.346,-0.041 0.689,-0.11 1.029,-0.177 0.258,-0.053 0.526,-0.112 0.837,-0.183 0.189,-0.043 0.933,-0.218 1.105,-0.258 0.155,-0.035 1.306,-0.284 1.669,-0.367 0.837,-0.193 1.441,-0.36 1.848,-0.527 0.521,-0.214 1.014,-0.401 1.473,-0.558 0.128,-0.044 0.256,-0.088 0.511,-0.175 1.505,-0.514 2.272,-0.783 3.157,-1.112 0.196,-0.073 0.374,-0.131 0.727,-0.236 0.05,-0.015 0.05,-0.015 0.097,-0.03 0.049,-0.014 0.069,-0.021 0.098,-0.029 0.589,-0.179 0.938,-0.309 1.275,-0.502 0.131,-0.075 0.26,-0.153 0.445,-0.269 0.034,-0.022 0.062,-0.039 0.123,-0.078 0.361,-0.229 0.535,-0.334 0.747,-0.443 0.018,-0.009 0.018,-0.009 0.036,-0.018 l 0.209,-0.104 c 0.194,-0.1 0.33,-0.183 0.447,-0.284 0.229,-0.19 0.402,-0.432 0.563,-0.681 0.976,-0.848 0.917,-2.006 0.545,-3.145 -0.052,-0.135 -0.112,-0.241 -0.226,-0.424 -0.015,-0.025 -0.015,-0.025 -0.03,-0.048 -0.052,-0.081 -0.082,-0.129 -0.113,-0.182 -0.445,-0.783 -0.778,-1.492 -0.995,-2.157 -0.116,-0.355 -0.216,-0.643 -0.442,-1.265 -0.025,-0.073 -0.025,-0.073 -0.053,-0.146 -0.182,-0.505 -0.29,-0.809 -0.395,-1.132 -0.026,-0.083 -0.054,-0.167 -0.091,-0.28 -0.045,-0.14 -0.067,-0.214 -0.09,-0.279 -0.392,-1.279 -0.856,-2.529 -1.428,-3.736 0.198,-0.533 0.412,-1.061 0.643,-1.581 0.152,-0.342 0.294,-0.611 0.626,-1.202 0.006,-0.009 0.006,-0.009 0.009,-0.017 0.261,-0.466 0.378,-0.685 0.51,-0.958 0.709,-1.418 1.296,-2.895 1.85,-4.382 0.417,-1.202 0.831,-2.406 1.265,-3.602 0.189,-0.524 0.371,-1.001 0.544,-1.438 0.223,-0.588 0.484,-1.158 0.751,-1.726 0.399,0.139 0.173,0.075 0.687,0.167 l 0.193,-0.021 c 0.438,-0.114 0.662,-0.446 0.872,-0.827 0.079,-0.163 0.158,-0.346 0.274,-0.631 0.031,-0.078 0.148,-0.363 0.151,-0.376 0.065,-0.159 0.117,-0.286 0.17,-0.415 0.047,-0.112 0.238,-0.543 0.266,-0.613 0.173,-0.402 0.287,-0.711 0.365,-1.015 0.114,-0.435 0.137,-0.815 0.054,-1.152 -0.039,-0.181 -0.134,-0.34 -0.249,-0.482 0.034,-0.222 0.017,-0.102 0.051,-0.36 0.008,-0.062 0.009,-0.089 0.014,-0.123 0.042,-0.338 0.078,-0.55 0.136,-0.765 0.043,-0.163 0.082,-0.296 0.17,-0.588 0.006,-0.017 0.006,-0.017 0.01,-0.036 0.103,-0.343 0.155,-0.521 0.206,-0.729 0.15,-0.62 0.226,-1.35 0.252,-2.26 0.011,-0.415 0.012,-0.755 0.009,-1.468 v -0.514 c 0,-0.192 0,-0.346 0.005,-0.697 0.002,-0.229 0.004,-0.333 0.005,-0.462 0.003,-0.593 -0.007,-1.029 -0.045,-1.453 -0.222,-2.511 -0.734,-5.144 -1.48,-7.7 -0.138,-0.464 -0.318,-0.921 -0.617,-1.595 -0.088,-0.199 -0.153,-0.394 -0.261,-0.751 -0.011,-0.038 -0.011,-0.038 -0.022,-0.076 -0.076,-0.252 -0.114,-0.376 -0.164,-0.517 -0.123,-0.343 -0.226,-0.621 -0.458,-1.228 l -0.026,-0.069 c -0.509,-1.333 -0.732,-1.984 -0.929,-2.782 -0.299,-1.238 -0.381,-2.365 -0.381,-4.331 0,-0.195 0.004,-0.344 0.026,-0.757 0.016,-0.312 0.024,-0.476 0.027,-0.664 0.016,-0.96 -0.119,-1.612 -0.524,-2.099 -0.236,-0.277 -0.557,-0.442 -0.893,-0.548 -0.025,-0.242 -0.046,-0.486 -0.068,-0.729 -0.028,-0.33 -0.04,-0.457 -0.057,-0.631 -0.116,-1.242 -0.238,-2.074 -0.456,-2.893 -0.113,-0.422 -0.244,-0.786 -0.505,-1.444 -0.022,-0.058 -0.022,-0.058 -0.045,-0.115 -0.1,-0.252 -0.15,-0.379 -0.207,-0.528 -0.647,-1.709 -1.086,-2.868 -1.523,-4.037 -0.135,-0.362 -0.257,-0.648 -0.525,-1.277 -0.008,-0.017 -0.008,-0.017 -0.015,-0.034 -0.32,-0.744 -0.465,-1.1 -0.618,-1.538 -0.415,-1.179 -0.584,-2.427 -0.601,-3.677 -0.009,-0.489 0.001,-0.549 0.04,-0.831 0.597,-0.445 0.305,-0.249 0.871,-0.598 0.444,-0.252 0.813,-0.432 1.655,-0.82 0.779,-0.357 1.12,-0.523 1.536,-0.753 0.138,-0.076 0.268,-0.147 0.481,-0.264 0.125,-0.069 0.189,-0.104 0.251,-0.138 2.269,-1.249 3.39,-1.93 4.593,-2.881 1.451,-1.144 2.619,-2.32 4.682,-4.594 0.092,-0.104 0.187,-0.207 0.373,-0.414 0.129,-0.145 0.241,-0.26 0.48,-0.508 0.006,-0.006 0.006,-0.006 0.012,-0.012 0.464,-0.484 0.671,-0.709 0.9,-1.011 0.241,-0.312 0.434,-0.573 0.839,-1.129 0.023,-0.031 0.023,-0.031 0.046,-0.061 0.389,-0.534 0.587,-0.802 0.822,-1.108 0.08,-0.105 0.164,-0.214 0.269,-0.349 0.047,-0.062 0.099,-0.131 0.201,-0.262 1.324,-1.722 1.947,-2.571 2.631,-3.619 0.219,-0.34 0.39,-0.617 0.77,-1.238 l 0.003,-0.003 c 0.513,-0.837 0.744,-1.207 1.052,-1.657 1.009,-1.478 2.23,-2.91 3.817,-4.536 0.111,-0.115 0.21,-0.212 0.414,-0.403 l 0.024,-0.024 c 0.364,-0.344 0.529,-0.511 0.71,-0.728 l 0.054,-0.07 c 1.702,-0.929 3.007,-2.029 3.537,-3.983 0.187,-0.767 0.207,-1.407 -0.002,-1.967 -0.318,-0.846 -0.854,-1.497 -1.617,-2.037 -0.581,-0.412 -1.146,-0.689 -2.295,-1.176 -0.068,-0.028 -0.068,-0.028 -0.134,-0.056 -0.578,-0.244 -0.861,-0.367 -1.178,-0.524 -0.398,-0.192 -0.784,-0.399 -1.177,-0.629 -0.531,-0.308 -2.134,-1.34 -2.414,-1.505 -1.777,-1.075 -3.139,-1.282 -5.167,-1.116 -0.296,-0.298 -0.646,-0.521 -1.027,-0.684 -0.486,-0.189 -1.118,-0.255 -1.611,-0.145 -0.305,0.085 -0.728,0.228 -0.849,0.57 -0.382,-0.179 -0.784,-0.274 -1.2,-0.308 -0.578,-0.007 -0.939,0.231 -1.03,0.828 -0.506,-0.241 -0.961,-0.298 -1.505,-0.166 -0.079,0.019 -0.147,0.063 -0.217,0.096 -0.42,0.237 -0.62,0.708 -0.521,1.19 -0.449,-0.129 -0.245,-0.085 -0.608,-0.149 -0.924,-0.122 -1.6,0.743 -1.397,1.653 -0.289,0.063 -0.555,0.195 -0.806,0.352 -0.795,0.571 -1.11,1.633 -0.466,2.293 0.283,0.292 0.723,0.456 1.5,0.628 0.057,0.013 0.115,0.026 0.19,0.041 0.017,0.003 0.149,0.032 0.187,0.041 0.404,0.085 0.625,0.142 0.816,0.216 0.423,0.163 0.776,0.347 1.41,0.717 0.032,0.019 0.066,0.038 0.13,0.076 0.388,0.226 0.593,0.342 0.834,0.465 0.249,0.13 0.491,0.203 0.961,0.314 0.029,0.005 0.029,0.005 0.057,0.012 0.346,0.081 0.5,0.122 0.68,0.188 0.568,0.205 1.048,0.446 1.995,0.969 1.159,0.662 2.398,1.316 3.238,2.409 -0.747,1.486 -2.086,2.553 -3.371,3.526 -0.471,0.349 -1.983,1.414 -2.101,1.497 -0.532,0.388 -1.006,0.675 -2.004,1.244 -0.03,0.019 -0.03,0.019 -0.063,0.037 -0.33,0.188 -0.488,0.28 -0.679,0.39 -0.465,0.273 -0.845,0.503 -1.65,0.998 -0.047,0.028 -0.047,0.028 -0.091,0.055 -0.889,0.548 -1.337,0.816 -1.865,1.121 -1.104,0.637 -2,1.265 -3.72,2.556 -0.051,0.038 -0.116,0.086 -0.232,0.173 -0.493,0.369 -0.769,0.576 -1.077,0.8 -2.146,1.571 -4.087,3.419 -5.859,5.42 -0.138,0.043 -0.274,0.085 -0.411,0.126 -2.004,0.608 -2.907,0.957 -3.934,1.627 -2.664,1.888 -4.35,5.046 -4.683,8.323 -0.399,0.636 -0.22,0.32 -0.544,0.95 -0.75,1.564 -0.946,2.843 -1.089,5.912 -0.001,0.056 -0.013,0.287 -0.016,0.345 -0.041,0.868 -0.092,1.56 -0.226,3.135 -0.091,1.088 -0.13,1.577 -0.17,2.187 -0.073,1.108 -0.113,2.217 -0.079,3.328 0.008,0.33 0.039,0.659 0.059,0.989 -0.427,0.191 -0.831,0.481 -1.043,0.916 -0.068,0.173 -0.077,0.377 -0.04,0.643 0.012,0.078 0.023,0.155 0.044,0.271 0.04,0.212 0.044,0.241 0.054,0.317 0.135,1.079 0.209,2.164 0.27,3.249 -0.761,-0.541 -1.595,-0.963 -2.423,-1.384 -0.068,-0.033 -0.134,-0.067 -0.223,-0.111 -0.11,-0.055 -0.172,-0.086 -0.222,-0.11 -0.538,-0.269 -0.855,-0.432 -1.185,-0.612 -0.183,-0.098 -0.351,-0.191 -0.644,-0.356 -0.032,-0.017 -0.032,-0.017 -0.065,-0.035 -0.588,-0.329 -0.861,-0.478 -1.197,-0.651 -0.086,-0.044 -0.177,-0.09 -0.286,-0.144 0.008,0.004 -0.455,-0.227 -0.587,-0.294 -0.915,-0.463 -1.481,-0.81 -1.972,-1.26 -0.203,-0.179 -0.373,-0.395 -0.543,-0.607 0.032,-0.662 0.126,-1.315 0.244,-1.964 0.215,-1.026 0.256,-1.85 0.256,-3.716 v -0.17 c 0,-2.001 -0.142,-3.55 -0.454,-5.171 -0.22,-1.14 -0.414,-1.903 -1.108,-4.465 -0.259,-0.953 -0.526,-1.708 -1.162,-3.372 -0.028,-0.074 -0.028,-0.074 -0.057,-0.15 -0.4,-1.046 -0.606,-1.61 -0.813,-2.246 -0.887,-2.863 -1.396,-5.866 -1.457,-8.871 -0.01,-0.482 0.012,-0.964 0.018,-1.447 l 0.117,-0.465 c 0.087,-0.31 0.176,-0.569 0.374,-1.095 0.074,-0.199 0.094,-0.251 0.127,-0.344 0.444,-1.21 0.566,-1.963 0.331,-2.846 -0.434,-1.627 -2.227,-2.337 -5.143,-2.474 -0.806,-0.039 -1.532,-0.034 -2.757,0 -0.452,0.011 -0.211,0.005 -0.722,0.018 -0.644,-0.255 -1.324,-0.378 -2.006,-0.445 -0.152,-0.009 -0.276,-0.017 -0.549,-0.03 -0.026,-0.001 -0.026,-0.001 -0.051,-0.003 -0.614,-0.029 -0.923,-0.054 -1.276,-0.114 -0.286,-0.05 -0.509,-0.118 -1.002,-0.294 l -0.034,-0.011 c -0.185,-0.066 -0.287,-0.102 -0.403,-0.138 -1.347,-0.427 -2.81,-0.759 -4.187,-0.285 -0.454,-0.477 -0.976,-0.836 -1.596,-1.038 -0.762,-0.213 -1.254,-0.297 -1.753,-0.25 -1.217,0.114 -1.869,0.8 -1.359,1.847 0.079,0.163 0.187,0.268 0.445,0.469 l 0.016,0.011 0.113,0.092 c -0.246,0.457 0.099,0.841 0.373,1.172 -0.013,0.476 0.367,0.702 0.719,0.923 0.033,0.019 0.033,0.019 0.066,0.038 0.243,0.144 0.366,0.229 0.474,0.341 0.238,0.243 0.479,0.459 0.727,0.65 0.704,0.542 1.353,0.843 2.536,1.248 0.089,0.032 0.512,0.175 0.631,0.214 0.25,0.087 0.458,0.16 0.664,0.237 0.457,0.17 0.8,0.373 1.545,0.872 0.013,0.008 0.013,0.008 0.026,0.015 0.515,0.346 0.764,0.502 1.076,0.66 0.384,0.199 0.709,0.335 1.433,0.621 0.019,0.006 0.019,0.006 0.039,0.014 0.886,0.326 1.694,0.703 2.444,1.293 0.337,1.075 0.459,2.203 0.567,3.323 0.041,0.472 0.075,0.966 0.106,1.536 0.013,0.224 0.024,0.452 0.037,0.734 0.005,0.097 0.027,0.565 0.034,0.692 0.009,0.173 0.016,0.316 0.023,0.449 0.061,1.117 0.07,2.277 0.043,3.723 -0.011,0.528 -0.023,0.952 -0.049,1.902 -0.075,2.579 -0.088,3.724 -0.031,5.158 0.149,4.018 0.643,8.022 1.581,11.929 -0.138,0.357 -0.087,0.203 -0.163,0.462 -0.53,1.993 -0.802,4.204 -0.674,5.923 0.022,0.291 0.077,0.539 0.208,1.018 0.017,0.062 0.026,0.093 0.034,0.123 0.013,0.045 0.023,0.085 0.033,0.122 0.137,0.515 0.21,0.774 0.288,0.994 0.084,0.242 0.169,0.421 0.282,0.602 0.143,0.226 0.037,0.096 0.843,1.061 0.188,0.222 0.326,0.417 0.623,0.857 0.003,0.004 0.003,0.004 0.005,0.007 0.231,0.342 0.337,0.493 0.476,0.675 0.162,0.213 0.295,0.397 0.563,0.778 0.013,0.019 0.013,0.019 0.026,0.037 0.334,0.476 0.494,0.697 0.699,0.954 0.219,0.275 0.414,0.503 0.814,0.963 0.019,0.022 0.019,0.022 0.037,0.043 0.583,0.67 0.847,0.986 1.141,1.388 1.652,2.266 3.563,4.345 5.824,5.982 -0.149,0.35 -0.336,0.733 -0.276,1.128 0.052,0.22 0.268,0.47 0.633,0.778 0.124,0.105 0.262,0.214 0.425,0.337 0.082,0.061 0.164,0.123 0.272,0.201 -0.008,-0.005 0.2,0.147 0.253,0.187 0.188,0.139 0.304,0.227 0.383,0.298 0.375,0.337 2.296,2.341 2.188,2.231 0.456,0.464 0.855,0.848 1.235,1.186 0.522,0.5 1.12,0.88 1.735,1.241 -1.024,1.64 -2.477,2.919 -3.939,4.134 -0.142,0.118 -0.278,0.226 -0.506,0.408 -0.064,0.051 -0.064,0.051 -0.127,0.102 -0.808,0.646 -1.209,0.989 -1.636,1.427 -2.074,2.127 -2.56,3.032 -3.368,6.143 -0.056,0.213 -0.102,0.384 -0.205,0.765 -0.004,0.011 -0.004,0.011 -0.007,0.022 -0.076,0.289 -0.16,0.575 -0.23,0.865 l -0.016,0.003 c -0.147,0.029 -0.279,0.058 -0.515,0.115 -0.288,0.069 -0.368,0.087 -0.499,0.114 -0.088,0.019 -0.174,0.035 -0.306,0.062 -0.341,0.069 -0.421,0.085 -0.577,0.117 -0.906,0.191 -1.528,0.366 -2.12,0.627 -1.942,0.927 -3.3,2.735 -4.585,4.428 -0.621,-2.629 -1.757,-5.08 -3.044,-7.426 -0.23,-0.406 -0.444,-0.721 -0.924,-1.389 -0.013,-0.017 -0.013,-0.017 -0.026,-0.036 -0.409,-0.568 -0.599,-0.845 -0.803,-1.186 -0.591,-0.983 -1.249,-1.993 -1.964,-3.021 -0.453,-0.651 -0.842,-1.364 -1.387,-2.481 -0.148,-0.302 -0.295,-0.545 -0.614,-1.034 l -0.022,-0.035 c -0.118,-0.18 -0.059,-0.089 -0.178,-0.274 -0.838,-1.408 -1.506,-3.184 -2.734,-4.312 -0.456,-0.364 -0.902,-0.67 -1.368,-0.935 -0.053,-0.03 -0.109,-0.065 -0.182,-0.111 -0.035,-0.022 -0.167,-0.108 -0.195,-0.127 -0.173,-0.109 -0.296,-0.182 -0.42,-0.242 -0.146,-0.07 -0.279,-0.115 -0.404,-0.13 -1.704,-0.219 -3.599,0.672 -5.307,2.205 -0.274,0.244 -0.483,0.457 -0.93,0.928 -0.008,0.009 -0.008,0.009 -0.017,0.018 -0.469,0.495 -0.691,0.717 -0.975,0.967 -0.098,0.086 -0.751,0.646 -0.846,0.726 -0.016,0.015 -0.016,0.015 -0.034,0.029 -0.487,0.42 -0.782,0.686 -0.882,0.8 -0.122,0.14 -0.245,0.286 -0.412,0.486 -0.046,0.055 -0.217,0.259 -0.204,0.245 -0.479,0.573 -0.748,0.88 -1.057,1.198 -1.13,1.18 -2.257,2.385 -3.161,3.762 -1.132,0.566 -1.761,1.737 -1.933,2.98 -0.006,0.056 -0.014,0.103 -0.036,0.204 -0.003,0.017 -0.003,0.017 -0.008,0.033 -0.033,0.157 -0.044,0.252 -0.033,0.362 0.061,0.404 0.017,0.167 0.159,0.707 -0.385,0.627 -0.369,1.193 -0.131,1.864 0.039,0.106 0.107,0.201 0.161,0.302 -0.163,0.649 -0.142,1.254 0.293,1.777 0.072,0.078 0.159,0.141 0.239,0.211 -0.005,0.224 -0.004,0.129 -0.004,0.285 0.004,0.502 0.086,0.859 0.302,1.126 0.808,0.608 2.447,0.723 3.426,0.801 0.366,-0.028 0.864,0.078 1.203,-0.153 0.155,-0.136 0.224,-0.277 0.335,-0.601 10e-4,-10e-4 10e-4,-10e-4 10e-4,-0.004 0.046,-0.134 0.093,-0.268 0.168,-0.387 0.148,0.055 0.288,0.127 0.43,0.195 0.141,0.067 0.237,0.111 0.334,0.151 0.243,0.109 0.42,0.129 0.678,0.141 0.258,-0.061 0.153,-0.018 0.322,-0.105 0.523,-0.321 0.625,-0.802 0.46,-1.511 -0.028,-0.121 -0.059,-0.237 -0.111,-0.417 -0.098,-0.333 -0.111,-0.381 -0.139,-0.507 -0.011,-0.052 -0.022,-0.107 -0.035,-0.168 0.004,0.012 -0.176,-0.965 -0.243,-1.269 -0.189,-0.87 -0.419,-1.463 -0.763,-1.816 -0.11,-0.113 -0.208,-0.205 -0.41,-0.392 l -0.021,-0.019 -0.097,-0.09 c 0.227,-0.155 0.111,-0.084 0.344,-0.215 0.01,-0.004 0.01,-0.004 0.019,-0.01 0.144,-0.079 0.22,-0.122 0.302,-0.18 1.004,-0.685 2.061,-1.154 2.995,-1.261 0.077,-0.008 0.468,-0.048 0.572,-0.059 0.278,-0.031 0.516,-0.06 0.745,-0.096 0.307,-0.046 0.612,-0.108 0.908,-0.207 0.006,0.015 10e-4,0.003 0.014,0.034 0.163,0.377 0.23,0.55 0.288,0.766 0.047,0.178 0.076,0.323 0.132,0.654 0.003,0.019 0.003,0.019 0.007,0.039 0.056,0.32 0.089,0.49 0.143,0.68 1.007,3.537 2.491,7.038 4.958,9.773 -0.558,5.222 0.99,10.639 4.647,14.366 -0.571,-0.254 -1.115,-0.561 -1.653,-0.882 -0.092,-0.059 -0.429,-0.276 -0.486,-0.313 -0.743,-0.473 -1.238,-0.711 -1.77,-0.789 -0.97,-0.142 -1.81,0.393 -2.159,1.348 -0.015,0.04 -0.031,0.074 -0.07,0.143 -0.003,0.005 -0.003,0.005 -0.005,0.01 -0.065,0.116 -0.092,0.179 -0.107,0.267 -0.046,0.286 -0.059,0.56 -0.059,1.005 v 0.093 c -0.902,0.055 -1.119,0.575 -1.098,1.424 -0.166,0.016 -0.078,0.001 -0.264,0.052 -0.371,0.153 -0.47,0.455 -0.472,1.046 v 0.113 c 0,0.209 0.003,0.122 -0.005,0.261 l -0.015,-0.003 c -0.056,-0.008 -0.104,-0.017 -0.203,-0.036 -0.65,-0.125 -0.935,-0.101 -1.262,0.233 -0.168,0.172 -0.169,0.573 -0.082,1.574 0.005,0.046 0.005,0.046 0.009,0.092 0.028,0.312 0.053,0.623 0.062,0.937 l -0.218,0.295 c -0.158,0.237 -0.282,0.478 -0.428,0.816 -0.054,0.124 -0.257,0.616 -0.246,0.591 -0.064,0.153 -0.132,0.271 -0.291,0.527 l -0.009,0.013 c -0.1,0.154 -0.188,0.314 -0.266,0.482 -0.133,0.025 -0.055,0.013 -0.238,0.032 -0.121,0.011 -0.184,0.02 -0.257,0.037 -0.256,0.061 -0.476,0.223 -0.756,0.583 -0.189,0.24 -0.252,0.535 -0.267,1.006 -0.002,0.057 -0.003,0.102 -0.005,0.205 -0.004,0.243 -0.008,0.348 -0.022,0.467 -0.022,0.179 -0.063,0.339 -0.152,0.631 -0.007,0.023 -0.007,0.023 -0.014,0.047 -0.102,0.329 -0.142,0.48 -0.168,0.672 -0.021,0.143 -0.038,0.265 -0.073,0.509 -0.075,0.506 -0.105,0.715 -0.138,0.99 -0.064,0.587 -0.032,0.255 -0.081,0.997 -1.102,0.473 -1.505,1.547 -1.441,2.71 0.091,1.013 0.527,2.058 1.235,3.148 0.251,0.353 0.138,0.222 0.314,0.416 0.205,0.691 0.549,1.325 0.904,1.943 1.153,1.838 3.71,3.629 5.837,4.114 0.682,0.136 0.279,0.069 1.215,0.165 0.254,-0.003 0.367,0.002 0.651,-0.037 0.087,-0.012 0.171,-0.039 0.256,-0.059 0.533,0.339 1.154,0.491 1.751,0.657 0.585,0.155 1.182,0.278 1.788,0.323 C -0.432,-0.001 -0.216,-0.006 0,0"
             style="fill:#000000;fill-opacity:1;fill-rule:nonzero;stroke:none"
             id="path34" /></g></g></g></g></svg>
