<?xml version='1.0' encoding='utf-8'?>
<svg xmlns="http://www.w3.org/2000/svg" version="1.1" width="600px" height="976px" viewBox="0 0 600 976"> <g id="layer1"> <g> <g style="fill:rgb(0,0,0); fill-opacity:1.0; stroke-linejoin: miter"> <path d="M630.89,381.46826L630.89,394.7475L563.4074,394.7475Q564.01105,391.85022,565.45966,389.31512Q566.7876,386.9007,570.04706,385.08984Q573.1858,383.39978,578.85956,382.43402Q584.4127,381.46826,593.7081,381.46826 Z M381.48203,381.46826L381.48203,403.6808Q381.48203,410.19965,380.27484,414.5456Q379.18835,418.89148,376.5325,421.42664Q373.9974,423.96173,369.7722,425.04828Q365.54697,426.01404,359.39026,426.01404L310.37784,426.01404L310.37784,404.04297Q310.37784,397.52405,311.46432,393.1781Q312.5508,388.8322,315.08594,386.17633Q317.62106,383.64124,321.84625,382.55475Q326.07147,381.46826,332.46964,381.46826 Z M164.66853,361.54944L164.66853,413.45917L254.0015,413.45917Q252.31142,419.61584,247.3619,422.8753Q242.53308,426.01404,233.1169,426.01404L164.66853,426.01404L164.66853,446.0536L233.59978,446.0536Q243.74028,446.0536,251.5871,443.1563Q259.4339,440.37976,264.8663,434.94733Q270.17798,429.5149,272.95456,421.6681Q275.73114,413.94202,275.73114,404.04297L275.73114,361.54944L255.20871,361.54944L255.20871,394.9889L185.19098,394.9889L185.19098,361.54944 Z M332.10748,361.54944Q322.0877,361.54944,314.24088,364.56744Q306.39407,367.46472,300.96164,373.01782Q295.52924,378.45026,292.63196,386.29706Q289.85538,394.0232,289.85538,403.6808L289.85538,446.0536L359.87314,446.0536Q369.8929,446.0536,377.7397,443.1563Q385.58652,440.37976,391.01895,434.94733Q396.33063,429.5149,399.22794,421.6681Q402.0045,413.94202,402.0045,404.04297L402.0045,361.54944 Z M458.8637,361.54944Q448.7232,361.54944,440.87643,364.44672Q433.02957,367.22327,427.59717,372.65564Q422.2855,378.08807,419.5089,385.93494Q416.7324,393.78174,416.7324,403.6808L416.7324,446.0536L527.6742,446.0536L527.6742,394.38538L491.82034,394.38538L491.82034,413.33838L507.1518,413.33838L507.1518,426.01404L437.1341,426.01404L437.1341,404.4051Q437.1341,397.7655,438.22055,393.29883Q439.18634,388.8322,441.72144,386.17633Q444.25653,383.64124,448.60248,382.55475Q452.82773,381.46826,459.2259,381.46826L527.19135,381.46826L527.19135,361.54944 Z M583.68835,361.54944Q573.66864,361.54944,565.82184,364.44672Q557.975,367.22327,552.5426,372.65564Q547.2309,378.08807,544.3336,385.93494Q541.55707,393.78174,541.55707,403.6808L541.55707,446.0536L562.07947,446.0536L562.07947,413.33838L630.89,413.33838L630.89,446.0536L651.53314,446.0536L651.53314,361.54944 Z"/> </g> </g> <g> <g style="fill:rgb(0,0,0); fill-opacity:1.0; stroke-linejoin: miter"> <path d="M421.8815,203.72853C421.57047,203.89404,421.21317,204.07167,421.10956,204.13074C420.79852,204.29628,420.4275,204.2655,420.18182,204.04807C419.98303,203.8764,419.95987,203.87666,419.76483,204.05255C419.65024,204.16962,419.4658,204.25275,419.3499,204.25398C419.2341,204.25525,419.1082,204.3956,419.0408,204.59326C418.92856,204.93048,418.90552,204.94229,417.92154,205.01083C415.94177,205.13647,415.48047,205.32684,415.3031,206.0702C415.21393,206.39557,415.63022,207.39897,415.9217,207.56964C416.00333,207.61508,416.0744,207.76492,416.07568,207.88074C416.07706,208.00818,416.14767,208.11168,416.24036,208.11069C416.39093,208.10905,416.54514,208.44336,416.5493,208.82564C416.55115,208.99939,416.29803,209.16432,415.45605,209.5094C414.81012,209.77124,414.04932,210.127,413.8997,210.22128C413.80765,210.28021,413.5543,210.42197,413.33545,210.54019C413.1165,210.64682,412.92157,210.83426,412.88806,210.9505C412.86618,211.06659,412.73972,211.16063,412.62384,211.16187C412.4964,211.16322,412.40424,211.21059,412.405,211.2801C412.4056,211.33798,412.32516,211.39677,412.23245,211.39778C412.12823,211.39891,412.0134,211.49286,411.97974,211.59746C411.93466,211.71382,411.7868,211.97028,411.63834,212.16882C411.48987,212.36736,411.3764,212.58873,411.37717,212.65825C411.37793,212.72772,411.27457,212.80995,411.1592,212.85754C411.03217,212.89366,410.90674,213.0804,410.86243,213.26622C410.81818,213.46364,410.7503,213.615,410.70398,213.6155C410.57654,213.61687,410.3507,214.16383,410.35397,214.46501C410.35562,214.61562,410.2996,214.78998,410.23083,214.86024C410.13916,214.9539,410.09906,215.53362,410.09735,216.44887C410.10602,217.24815,410.06677,217.90892,410.02045,217.90944C409.97412,217.90994,409.93027,218.14214,409.9334,218.43172C409.93713,218.77924,409.89267,218.9535,409.78842,218.95464C409.57993,218.9569,409.35834,222.04094,409.5169,222.78072C409.57797,223.06967,409.6303,223.62518,409.63455,224.01904C409.63867,224.40134,409.72534,224.92175,409.82056,225.15242C409.92743,225.39453,410.01187,225.70644,410.01352,225.85703C410.015,225.99606,410.07468,226.1576,410.133,226.19174C410.20285,226.22572,410.25116,226.41055,410.2533,226.60751C410.25568,226.82758,410.39755,227.09251,410.66724,227.39081C410.88995,227.63168,411.0783,227.90775,411.0792,227.9888C411.09326,228.22038,411.50357,228.66777,411.7005,228.66565C411.79318,228.66464,411.93304,228.74422,412.01514,228.83603C412.0972,228.92784,412.24872,229.00728,412.36456,229.00604C412.64255,229.00305,412.74097,229.53491,412.78372,231.35335L412.81146,232.84756L413.16202,233.12183C413.36072,233.28189,413.57108,233.4534,413.65283,233.51042C413.73465,233.57907,413.87415,233.6239,413.97836,233.62277C414.07108,233.62177,414.1533,233.72516,414.15466,233.8526C414.15604,233.98,414.21506,234.08363,414.273,234.08301C414.3425,234.08224,414.39136,234.31345,414.39444,234.60304C414.3997,235.08954,414.42316,235.11249,414.78296,235.17813C415.1197,235.24399,415.22516,235.35872,415.57983,236.01523C415.80453,236.44148,416.08682,236.83234,416.21487,236.88887C416.5407,237.02438,418.01953,238.79259,418.42117,239.50653C418.81128,240.2322,418.84207,240.93857,418.5301,242.08887C418.18423,243.32063,417.8643,244.80702,417.86755,245.10818C417.86917,245.25879,417.813,245.42159,417.744,245.46867C417.6749,245.50415,417.56104,245.69077,417.48196,245.877C417.27893,246.38892,416.30594,247.47688,415.83374,247.73685C415.60342,247.86676,415.32706,248.02036,415.235,248.0793C414.6136,248.46829,412.03882,249.28386,411.4017,249.29074C411.32062,249.29161,411.0437,249.39886,410.79022,249.52902C410.53674,249.65923,410.22513,249.76682,410.09772,249.76819C409.9587,249.76968,409.79718,249.82938,409.7284,249.89964C409.55652,250.07529,408.23282,249.79991,407.3828,249.40361C407.2082,249.32439,406.35052,249.28732,405.00677,249.30182L402.91003,249.32443L401.87186,249.74112C400.8913,250.13397,399.70566,250.84192,399.3969,251.21596C399.31683,251.30952,399.17865,251.3921,399.0976,251.39297C399.00494,251.39397,398.84375,251.48839,398.74072,251.60535C398.07635,252.30763,397.20587,253.23227,397.0796,253.3379C396.43713,253.92412,395.1098,255.46768,394.67676,256.1327C394.38037,256.57614,393.98093,257.13654,393.78638,257.35876C393.6034,257.58087,393.44385,257.82587,393.4446,257.8954C393.4455,257.97644,393.31952,258.11682,393.15848,258.22284C392.99744,258.32886,392.87152,258.46927,392.87213,258.52716C392.87274,258.58508,392.67972,258.9463,392.45203,259.31952C392.21277,259.6928,391.8942,260.22916,391.7349,260.49734C391.57556,260.76556,391.31354,261.1739,391.14224,261.4074C390.9594,261.6411,390.82306,261.88586,390.8239,261.96692C390.82477,262.04803,390.66663,262.42047,390.47366,262.79327C390.2693,263.1778,390.04248,263.63208,389.95193,263.83C389.86127,264.0163,389.6914,264.37732,389.5666,264.62195C389.4535,264.87805,389.3521,265.14557,389.35287,265.2151C389.35376,265.2962,389.25122,265.45947,389.12506,265.57672C388.9989,265.69394,388.89688,265.9036,388.8985,266.05417C388.90015,266.20477,388.85544,266.35583,388.78632,266.39136C388.72876,266.4267,388.67233,266.56635,388.67358,266.68216C388.6762,266.92548,387.43762,268.09735,386.8385,268.405C385.4099,269.15027,383.27356,270.8648,383.27783,271.25864C383.27844,271.31656,383.20956,271.3752,383.1402,271.38754C383.05908,271.38843,382.7953,271.6346,382.5437,271.9385C381.82343,272.82675,381.0443,273.63455,380.5501,273.99905C380.28568,274.18726,380.0225,274.49133,379.96655,274.6773C379.89905,274.8634,379.59067,275.27222,379.2697,275.5885C378.96017,275.89307,378.69702,276.19708,378.69763,276.255C378.69876,276.35928,378.01392,277.3166,377.49942,277.94778C377.33926,278.13486,377.2148,278.41428,377.21646,278.56488C377.21817,278.72705,377.1386,278.8669,377.0233,278.9145C376.9078,278.9505,376.7364,279.1725,376.6232,279.417C376.05826,280.7438,375.8084,281.20993,375.67,281.26935C375.57773,281.30508,375.5096,281.43326,375.51086,281.54913C375.51212,281.66495,375.46692,281.7697,375.39737,281.77048C375.33948,281.7711,375.21396,281.9462,375.1235,282.15573C374.94327,282.63266,373.94498,283.5239,373.60904,283.52753C373.44687,283.52927,373.30908,283.64664,373.2189,283.8793C373.06097,284.2749,372.72583,284.34802,372.53702,284.0257C372.43088,283.853,372.41953,283.87634,372.4108,284.1429C372.4133,284.37454,372.34464,284.4564,372.1597,284.49316C372.00937,284.51794,371.8831,284.62357,371.8614,284.76285C371.79565,285.1111,371.61215,285.28687,371.31097,285.2901C371.16037,285.29175,370.92984,285.39847,370.79233,285.539C370.57462,285.76147,370.47052,285.7742,369.72842,285.71268C369.21814,285.6718,368.81143,285.56033,368.6829,285.45746C368.56595,285.35446,368.32193,285.2876,368.1367,285.30118C367.96323,285.32623,367.7775,285.2935,367.73038,285.22443C367.6949,285.15536,367.5089,285.09943,367.312,285.10156C367.12668,285.10358,366.97543,285.04727,366.97482,284.98932C366.9741,284.91983,366.823,284.8751,366.62607,284.87726C366.41757,284.87946,366.27792,284.82306,366.27692,284.73038C366.2758,284.62613,366.17117,284.59253,365.93985,284.62976C365.7548,284.6549,365.56906,284.6222,365.53357,284.55307C365.48648,284.48404,365.2773,284.42838,365.05725,284.43076C364.8372,284.43317,364.62802,284.3775,364.59262,284.31995C364.55713,284.2508,364.39444,284.2062,364.25546,284.2077C364.10486,284.20935,363.91864,284.13025,363.83658,284.03845C363.7545,283.94666,363.6378,283.86682,363.57983,283.86743C363.51035,283.8682,363.23068,283.7206,362.95053,283.52667C362.65897,283.34445,362.29776,283.15143,362.14676,283.1183C361.99582,283.08514,361.80936,282.98288,361.73886,282.89093C361.6569,282.81073,361.3077,282.6639,360.94748,282.5635C360.57565,282.46326,359.94748,282.2267,359.52832,282.0343C358.17786,281.42322,357.4682,281.15283,357.23657,281.15533C357.1323,281.1565,356.87595,281.02023,356.65408,280.8604C356.43225,280.70062,355.8027,280.3367,355.25528,280.0645C354.31183,279.59973,353.9373,279.24463,353.93268,278.81604C353.9294,278.51483,352.7955,276.49966,352.40897,276.10992C352.1981,275.8921,351.82242,275.43274,351.58698,275.08768C350.7276,273.82257,350.63354,273.69614,350.5293,273.69727C350.3903,273.69876,349.02716,271.91776,348.79004,271.41055C348.6834,271.1916,348.5075,270.99652,348.39142,270.97464C348.18225,270.91898,348.10776,270.45636,347.97687,267.99008C347.891,266.47336,347.68292,265.4445,347.13068,263.65475C346.91434,262.92722,346.62454,261.84128,346.50238,261.2518C346.24646,260.08444,346.25742,260.0264,346.78613,258.56088C346.99994,257.97934,347.04352,257.724,346.95935,257.43527C346.86267,257.06558,346.371,256.59592,346.10458,256.5988C345.93085,256.60065,345.22495,255.60037,345.22232,255.3571C345.21954,255.10225,344.53693,254.11328,344.15118,253.79306C343.89398,253.57571,343.8111,253.41441,343.80786,253.11322C343.80286,252.64986,343.6362,252.2346,343.18903,251.59065C343.00067,251.31462,342.83386,250.88779,342.78394,250.55234C342.6203,249.3492,341.74136,248.42027,340.76834,248.43077L340.25864,248.43628L340.30618,247.47418C340.33533,246.95253,340.46432,246.02434,340.59683,245.42044C341.1047,243.09793,340.97723,242.02187,340.16208,241.63676C339.82455,241.4898,339.73172,241.47922,339.44363,241.62134C339.1902,241.75153,339.0989,241.87991,339.0791,242.19295C339.03787,242.6684,338.7751,243.0072,338.4623,243.01057C337.92947,243.01633,337.79257,243.21475,337.80057,243.95613C337.80484,244.34999,337.74155,244.92995,337.6524,245.25526C337.5634,245.59224,337.44217,246.17279,337.3652,246.55594C337.28824,246.93906,337.13284,247.56636,337.021,247.93831C336.90927,248.32181,336.80966,248.75156,336.81113,248.89056C336.81277,249.04114,336.76804,249.19223,336.69894,249.22775C336.6414,249.26312,336.585,249.40276,336.58636,249.53018C336.58774,249.6576,336.50803,249.7859,336.41568,249.82166C336.32352,249.86897,336.24405,250.02045,336.2457,250.17104C336.2473,250.32164,336.1462,250.61237,336.02103,250.82227C335.89584,251.0321,335.79483,251.33446,335.7966,251.49661C335.8002,251.83257,335.57565,252.49535,335.24734,253.20558C335.11124,253.47353,335.01022,253.77583,335.01123,253.8685C335.0122,253.96117,334.96713,254.0775,334.89798,254.11299C334.84045,254.14839,334.78403,254.28802,334.78543,254.41542C334.78665,254.53128,334.74142,254.63603,334.67197,254.63678C334.61404,254.6374,334.55673,254.69595,334.5575,254.76547C334.5596,254.96239,333.65308,256.84894,333.5604,256.84995C333.45615,256.85104,332.39536,258.39175,332.20316,258.83408C332.0222,259.24152,331.61276,262.09592,331.35178,264.75174C331.32153,265.16916,331.23386,265.6335,331.1777,265.79633C331.00882,266.24997,331.10178,270.57028,331.29935,271.70352C331.4101,272.30472,331.65002,273.0668,331.93454,273.66614C332.34982,274.5769,332.38632,274.73868,332.4453,275.90817C332.4761,276.61456,332.4486,277.28677,332.38046,277.41495C332.21072,277.7875,332.1477,278.39066,332.0565,280.67392C332.01096,281.82138,331.9233,283.36316,331.87326,284.09357C331.6483,286.8649,331.58533,288.54544,331.60886,291.80066C331.61716,293.64267,331.60416,295.6586,331.5875,296.2612C331.5651,297.40842,331.1533,300.0427,330.97058,300.288C330.91342,300.35812,330.71735,300.4413,330.55545,300.46622C330.3124,300.49203,330.1865,300.63242,329.9597,301.08667C329.7106,301.62234,329.67798,301.8196,329.68228,303.2909C329.68863,304.95914,329.5036,306.0617,328.8788,308.28122C328.7559,308.69965,328.25113,311.31177,328.0556,312.51877C327.97964,312.99457,327.80417,313.91168,327.67206,314.55032C327.43045,315.78098,326.99423,318.2997,326.73395,319.9476C326.65872,320.49292,326.5383,321.14297,326.48315,321.39847C326.42795,321.65396,326.32004,322.38498,326.2574,323.02286C326.19473,323.6607,326.07745,324.60037,325.99026,325.11105C325.83798,326.02795,325.7122,327.25732,325.5105,330.03998C325.44965,330.84003,325.31415,332.24332,325.2083,333.17126C325.09088,334.09937,324.97498,335.16647,324.94434,335.54907C324.91373,335.93176,324.81845,336.7669,324.73267,337.40503C324.64688,338.04315,324.49796,339.27283,324.4145,340.13098C324.23596,341.83594,323.89014,344.1452,323.67993,345.0627C323.5138,345.7712,323.5886,350.55508,323.79654,352.64975C323.8747,353.4483,323.99292,354.7446,324.07104,355.54312C324.14917,356.34167,324.29855,357.30164,324.3954,357.68292C324.49213,358.0642,324.61374,358.59576,324.66296,358.8617C324.71228,359.13922,324.84308,359.45062,324.93686,359.55386C325.04236,359.66864,325.1845,359.9567,325.25653,360.18762C325.3401,360.41846,325.48184,360.67175,325.57526,360.74026C325.65726,360.8205,325.7397,360.94702,325.74045,361.01654C325.7412,361.08603,326.03506,361.47678,326.38696,361.87848C327.0439,362.63602,327.97812,363.32108,329.2012,363.93344C329.96997,364.31906,330.2506,364.55936,330.31216,364.89462C330.40994,365.36862,331.1061,365.46533,334.2457,365.46616C338.05725,365.45993,343.73578,365.61877,343.89905,365.72128C343.98077,365.77835,347.90808,365.7707,352.63434,365.7198C359.44574,365.64624,361.24088,365.5922,361.23962,365.47635C361.2385,365.37204,361.66672,365.3327,362.95242,365.30728C366.9835,365.2522,371.31418,365.0433,371.45166,364.90286C371.5319,364.82086,371.70502,364.76108,371.85562,364.7595C372.0062,364.75784,372.12143,364.69864,372.1208,364.64072C372.12006,364.57126,372.22382,364.52377,372.33963,364.5225C372.45547,364.52127,372.58203,364.4388,372.62735,364.34564C372.6611,364.2526,372.78766,364.1701,372.90347,364.1689C373.01932,364.16763,373.15787,364.11978,373.22675,364.0611C373.3413,363.94403,374.00058,363.8442,375.47073,363.73566C376.01474,363.68344,376.55838,363.60806,376.6852,363.5488C376.812,363.48953,377.1472,363.41635,377.43643,363.3785C377.72562,363.3406,378.7896,363.167,379.80725,362.99377C380.8249,362.8206,382.0508,362.62207,382.52512,362.55896C382.99945,362.49594,383.76282,362.38342,384.20227,362.30914C385.12747,362.16016,386.4579,361.98358,388.1822,361.80283C388.85333,361.7261,389.5821,361.62558,389.80145,361.55368C390.0325,361.49326,390.69165,361.3819,391.2585,361.30624C391.83698,361.2305,392.72745,361.08188,393.24768,360.9836C393.76797,360.88528,394.88998,360.72256,395.73462,360.62076C396.57916,360.50742,397.713,360.36777,398.2567,360.2924C398.8005,360.2286,399.76086,360.11392,400.39734,360.04916C401.0338,359.9844,402.07526,359.86887,402.71167,359.7925C405.09515,359.50034,405.94,359.42172,406.02173,359.4788C406.06833,359.50143,406.1642,359.80164,406.2489,360.1367C406.39493,360.7839,406.73938,361.56793,407.1158,362.0968C407.30414,362.37283,407.34076,362.5462,407.27765,363.13773C407.0809,365.30634,407.13785,365.213,406.1663,365.36255C405.57654,365.46158,405.30075,365.67307,405.7757,365.66797C406.30853,365.6622,406.635,365.85562,406.7787,366.28275C406.85065,366.51367,406.96848,366.69778,407.02643,366.69714C407.08435,366.6965,407.13165,366.78873,407.13278,366.89297C407.13403,367.0088,407.21722,367.2048,407.3112,367.3197C407.40524,367.44614,407.48932,367.72324,407.49152,367.93176C407.4948,368.2329,407.54202,368.31354,407.72736,368.31155C407.8432,368.3103,408.04114,368.40082,408.15836,368.527C408.45117,368.82504,408.82373,368.99484,409.17126,368.99103C409.33344,368.98932,409.48453,369.03403,409.5199,369.09155C409.55515,369.13754,409.99622,369.21384,410.48322,369.25497C410.98184,369.2959,411.90942,369.367,412.5473,369.42963C414.28668,369.57312,417.2648,369.63364,417.34464,369.51694C417.53867,369.24838,419.11954,368.66367,419.95258,368.562C420.45007,368.4987,420.71548,368.40314,420.9103,368.2041C421.0478,368.0636,421.20862,367.93442,421.24335,367.93405C421.28967,367.93353,421.4048,367.86282,421.49643,367.7691C421.59982,367.68692,422.62793,367.40933,423.78384,367.1652C424.93988,366.9326,426.28012,366.59372,426.7649,366.42636C428.2886,365.9117,428.58914,365.85052,429.48087,365.8177C429.9557,365.80106,431.49527,365.68024,432.89578,365.56082C435.82428,365.3207,443.9539,365.01294,444.12915,365.1501C444.19916,365.19562,445.46243,365.23993,446.94528,365.23553C448.96115,365.23694,449.66757,365.20615,449.73596,365.10117C449.79276,364.99625,451.35568,364.8983,455.5477,364.72562C458.6976,364.59903,462.4378,364.43124,463.87354,364.34622C465.30927,364.2728,467.8335,364.14133,469.48926,364.05392C471.14502,363.9666,472.75403,363.84497,473.06607,363.77206C473.85214,363.61298,477.98453,363.2788,480.35846,363.1837C482.33878,363.10437,482.33878,363.10437,482.3705,362.826C482.41296,362.46634,482.82813,362.2881,483.60428,362.27975C483.9518,362.27597,484.2411,362.2382,484.24045,362.18027C484.23996,362.1339,484.3548,362.04,484.50464,361.96884C484.87332,361.77954,486.39352,360.94058,487.06125,360.55103C487.38358,360.36218,488.08612,359.97232,488.65054,359.6766C489.60678,359.1797,491.15863,358.05075,491.24832,357.77173C491.27072,357.70197,491.3849,357.55014,491.4995,357.43307C492.16412,356.7539,492.6879,353.75922,492.45938,351.90802C492.39548,351.35266,492.27835,350.16064,492.2108,349.2693C491.9976,346.68808,491.80576,346.0877,490.6291,344.40897C489.8406,343.27048,488.1242,342.0262,486.46066,341.39536C484.12244,340.5054,481.03064,339.5771,479.35913,339.28238C479.01093,339.2166,478.46533,339.11816,478.14023,339.0522C477.82684,338.99768,476.67828,338.84787,475.5879,338.72064C473.5811,338.48737,472.5155,338.5104,471.30197,338.77838C470.03058,339.05862,469.54416,339.0754,469.04315,338.81433C468.78693,338.6897,468.46136,338.57733,468.34552,338.57858C468.2181,338.57996,468.02066,338.53577,467.90417,338.47906C467.50806,338.27478,466.76495,338.1206,466.02304,338.0823C462.9051,337.94217,461.5946,337.81723,460.9205,337.616C460.444,337.4821,459.4696,337.36523,458.31033,337.2966C457.29016,337.2381,455.69003,337.11627,454.76233,337.03363C453.8346,336.95093,452.90717,336.89145,452.69864,336.89368C452.5017,336.8958,452.11832,336.79565,451.83905,336.68283C451.5714,336.5699,451.25723,336.44586,451.15262,336.4122C451.0363,336.36716,449.78482,336.3459,448.3714,336.3495C445.70688,336.35504,445.0806,336.2923,444.89236,336.0279C444.83362,335.94745,444.81787,335.56528,444.8485,335.18268C444.87912,334.8,444.95013,333.86084,444.99976,333.09567C445.0494,332.3305,445.13287,331.4723,445.19925,331.18192C445.26553,330.88,445.2876,328.63223,445.2682,325.75925C445.21893,321.1952,445.22653,320.82437,445.42047,320.54425C445.53442,320.36923,445.70468,320.043,445.78342,319.822C445.86212,319.601,446.15604,318.9259,446.42767,318.33212C446.6993,317.73834,446.91367,317.2031,446.9129,317.1336C446.91214,317.0641,446.97952,316.86642,447.07043,316.70322C447.16125,316.52847,447.3417,316.07474,447.47662,315.69095C447.61148,315.30716,447.80325,314.8301,447.8821,314.6207C447.97266,314.42276,448.03992,314.21353,448.03928,314.1556C448.05038,314.10916,448.1403,313.8533,448.26495,313.59708C448.38962,313.34085,448.4793,313.06183,448.49002,312.98062C448.48926,312.91116,448.54645,312.841,448.60434,312.84036C448.6739,312.83966,448.85602,312.5365,449.01416,312.16406C449.1609,311.80334,449.34213,311.41904,449.4106,311.32562C449.46753,311.2323,449.54688,311.06927,449.5805,310.96466C449.6814,310.65076,450.1132,309.86987,450.58054,309.15814C450.8198,308.7848,451.07,308.35345,451.13776,308.19055C451.2055,308.0276,451.3535,307.7827,451.46793,307.65405C451.58228,307.5138,451.8198,306.9783,452.011,306.4433C452.19058,305.90842,452.42746,305.315,452.518,305.1171C452.67667,304.79102,452.99512,303.16562,453.221,301.5528C453.27444,301.1352,453.37305,300.61276,453.4286,300.39203C454.2538,297.41727,454.3371,296.54752,454.02637,294.59293C453.79016,293.10098,453.81543,292.2202,454.15005,291.02332C454.26126,290.59348,454.3943,290.03598,454.42624,289.78067C454.5671,288.87546,455.17648,286.297,455.3353,285.98245C455.4262,285.8193,455.49283,285.5521,455.49133,285.41312C455.48972,285.26254,455.6582,284.77414,455.87347,284.31998C456.11145,283.83084,456.3351,283.08694,456.44437,282.47177C456.61868,281.45035,456.61844,281.4272,456.35736,280.8507C456.21484,280.5279,455.99847,279.80035,455.87646,279.23398C455.75452,278.6676,455.59833,278.14795,455.52805,278.07922C455.4695,278.0219,455.40945,277.82562,455.4077,277.66342C455.40344,277.2696,455.00967,276.20795,454.45276,275.05542C454.19238,274.5485,453.91907,273.91428,453.82367,273.66043C453.73984,273.40643,453.29077,272.58875,452.84256,271.8521C452.3944,271.11548,451.96964,270.4018,451.88702,270.26367C451.81604,270.12543,451.66382,269.97644,451.57053,269.91956C451.46564,269.86273,451.38333,269.74774,451.38235,269.6551C451.38144,269.57397,451.25165,269.3553,451.09903,269.17157C450.95816,268.99933,450.80533,268.79242,450.7814,268.72314C450.75735,268.64233,450.56927,268.3895,450.35812,268.1485C450.02954,267.75812,449.47772,267.08057,448.99643,266.49487C448.91434,266.40308,448.76135,266.1846,448.65536,266.0236C448.39615,265.6209,447.01193,264.037,446.87228,263.98056C446.81412,263.95807,446.49802,263.64862,446.1698,263.29303C445.84152,262.93744,445.30255,262.37555,444.96313,262.0548C444.63516,261.7224,444.34216,261.41275,444.31848,261.3667C444.27106,261.26294,442.85666,260.0965,442.47165,259.84576C442.33167,259.75458,442.09796,259.57178,441.95746,259.4342C441.82858,259.30817,441.29065,258.839,440.7762,258.4043C440.26175,257.9696,439.77036,257.52307,439.68805,257.40808C439.6058,257.30472,439.44266,257.2138,439.31516,257.21515C439.0603,257.2179,438.00916,256.42987,437.6215,255.9359C437.55112,255.85553,437.32492,255.29031,437.12152,254.69006L436.7389,253.59361L436.75623,249.82819L436.77353,246.06279L437.10446,245.5958C437.50403,245.04695,438.17432,243.82327,438.2863,243.46292C438.331,243.31183,438.47913,243.07854,438.6166,242.93802C438.83423,242.70396,439.08844,242.6433,440.66202,242.45255C442.12,242.28621,442.721,242.1523,443.88684,241.75737C444.6948,241.48221,445.85022,241.1917,446.53253,241.08005C447.83963,240.8922,447.90866,240.84508,448.76752,239.90904C449.92386,238.63374,449.95654,237.3706,448.879,236.28163C448.1294,235.52509,448.20374,234.89868,449.18753,233.74107C449.3705,233.519,449.38107,233.42622,449.2742,233.18405C449.20297,233.02266,449.08575,232.89647,449.01624,232.89722C448.9583,232.89784,448.89874,232.74788,448.89676,232.56255C448.894,232.3077,448.96255,232.21425,449.1704,232.15411C449.32062,232.11772,449.52737,231.95326,449.64136,231.77829C449.80075,231.5217,449.8116,231.45204,449.65927,231.29149C449.27213,230.84386,448.86728,229.82872,448.86154,229.29588L448.85562,228.75139L449.61606,228.3609C451.37878,227.44978,451.3749,227.09068,449.57126,225.27966C449.18475,224.88995,448.82138,224.49997,448.7509,224.40805C448.69196,224.31598,448.49203,224.04012,448.3271,223.787C448.15073,223.54562,447.73984,223.05185,447.4117,222.70782C446.5098,221.79074,446.30734,221.28317,446.38867,220.22804C446.42987,219.7526,446.50647,219.33469,446.564,219.29932C446.74823,219.19307,446.67075,218.45245,446.45984,218.23462C446.34274,218.12001,446.1189,217.77487,445.95346,217.47543C445.78796,217.1644,445.59973,216.89996,445.51828,216.8661C445.3089,216.78728,445.0322,215.84024,444.9406,214.86807C444.8494,213.93065,444.59714,213.09923,444.28036,212.7319C443.96365,212.36461,443.57172,211.47676,443.56796,211.12926C443.5661,210.95549,443.6214,210.71161,443.6781,210.59512C443.74634,210.47856,443.84393,209.86348,443.89526,209.24892C443.95764,208.58788,444.05637,208.07704,444.14844,208.01813C444.25195,207.9475,444.22748,207.8319,444.05014,207.49785L443.8137,207.06017L442.93335,207.06966L442.06454,207.07904L441.49005,206.44803C440.77478,205.65636,440.37805,205.39417,439.5065,205.1487C439.1231,205.04858,438.6928,204.90259,438.54163,204.84628C438.3904,204.79,438.1698,204.74603,438.05396,204.74727C437.92654,204.74867,437.82166,204.69185,437.82104,204.63396C437.8203,204.56445,437.69235,204.51949,437.54178,204.5211C437.3796,204.52287,437.11194,204.4099,436.92496,204.26129C436.15356,203.63246,435.90942,203.55397,435.2277,203.72353C434.5577,203.90456,433.91937,203.79558,433.6376,203.45107C433.43817,203.22148,433.2878,203.2463,433.29083,203.5243C433.29294,203.72124,433.21222,203.75688,432.84155,203.76088C432.5867,203.76363,432.3428,203.70833,432.30743,203.65079C432.26038,203.58177,431.6691,203.54182,430.9277,203.54982C429.64185,203.56366,429.61868,203.56392,429.3326,203.89139C429.08087,204.18373,428.93088,204.24327,428.24808,204.30858C427.80823,204.34807,427.0903,204.379,426.6384,204.37228C425.88516,204.35722,425.827,204.3347,425.78964,204.09184C425.73953,203.74481,425.47214,203.65498,425.12662,203.8441C424.96545,203.93852,424.69922,203.96452,424.46704,203.9207C424.25806,203.87662,423.9566,203.85674,423.79443,203.85847C423.64386,203.86009,423.28363,203.75972,423.0158,203.63518C422.73642,203.51076,422.50363,203.409,422.4922,203.42072C422.46902,203.42096,422.2041,203.56284,421.8815,203.72853 Z M404.31042,277.11404C404.39328,277.27536,404.51056,277.40155,404.56848,277.40094C404.6148,277.40042,404.6619,277.46942,404.66263,277.53894C404.6635,277.62003,404.81683,277.87323,405.01617,278.09122C405.20392,278.3093,405.39273,278.63165,405.42938,278.80502C405.47742,278.9667,405.58392,279.1741,405.6775,279.25418C405.77094,279.3227,405.93582,279.57578,406.0426,279.80634C406.1609,280.03677,406.31403,280.2668,406.39587,280.33548C406.47754,280.39252,406.64233,280.634,406.77216,280.85275C406.89035,281.07156,407.16217,281.56683,407.3748,281.9468C407.57587,282.327,407.79993,282.69528,407.8469,282.75272C408.04645,282.9938,408.323,283.92923,408.328,284.3926C408.3325,284.80963,408.3681,284.89035,408.56506,284.8882C408.76196,284.88608,408.7976,284.96686,408.80286,285.45334C408.80634,285.7777,408.85568,286.0552,408.914,286.0894C408.9723,286.12344,409.057,286.45853,409.1072,286.8171C409.15753,287.1873,409.23077,287.5341,409.2895,287.60294C409.39508,287.72928,409.48254,288.31918,409.61224,289.60373C409.6636,290.06656,409.74908,290.47116,409.79578,290.5054C409.8541,290.53952,409.90527,290.9908,409.91104,291.5237C409.9167,292.04495,409.95654,292.5195,410.0034,292.56537C410.0618,292.61108,410.15836,292.96915,410.2321,293.3623C410.31744,293.75528,410.5124,294.64526,410.6938,295.35004C410.94818,296.37836,411.01184,296.91058,411.03717,298.1847C411.0538,299.7254,411.2407,300.93982,411.69736,302.46414C411.80536,302.81052,411.8937,303.48154,411.8986,303.9333C411.90634,304.6515,411.9427,304.80173,412.14087,304.91544C412.2692,304.99512,412.37552,305.19095,412.3773,305.35312C412.37903,305.5153,412.4629,305.76926,412.56866,305.90714C412.8158,306.2636,412.7069,306.91357,412.23166,307.96136C412.02792,308.40384,411.82477,308.9042,411.78015,309.0669C411.5119,309.97342,409.57007,313.60895,408.65735,314.91638L408.02985,315.8152L406.932,316.07034C406.33118,316.21585,405.59216,316.44397,405.29224,316.56305C405.0039,316.68204,404.4032,316.85068,403.96365,316.91333C403.53577,316.98746,402.98077,317.08615,402.74945,317.1234C402.495,317.1609,402.2876,317.26743,402.2541,317.38364C402.17538,317.60455,401.20758,318.1016,400.84845,318.10547C400.5241,318.10898,399.96176,318.6016,399.65497,319.16104C399.43903,319.54565,399.3471,319.61618,398.8728,319.67923C398.58356,319.71713,398.1795,319.8489,397.99542,319.96674C397.79987,320.09628,397.39566,320.2165,397.09485,320.2545C396.75946,320.30447,396.43634,320.4238,396.27576,320.57614C396.13818,320.70508,395.93085,320.82312,395.82657,320.82428C395.72232,320.82538,395.61856,320.87286,395.58447,320.93112C395.55035,320.98944,395.28473,321.0734,394.99554,321.11127C394.70645,321.16074,394.33752,321.32693,394.16528,321.46777C393.98154,321.62036,393.636,321.80948,393.38202,321.8933C392.85107,322.0728,392.06934,322.63736,391.11752,323.53967C390.739,323.8913,390.3032,324.3015,390.1541,324.4422C389.99353,324.59454,389.82104,324.71222,389.76312,324.71283C389.7168,324.71338,389.4646,324.95935,389.21298,325.2633C388.9615,325.5788,388.52652,326.07004,388.24005,326.3628C387.9653,326.66693,387.54248,327.20447,387.30304,327.56616C386.86993,328.23117,386.51447,328.571,386.24802,328.57385C386.07428,328.57574,385.7296,328.84592,385.21423,329.39597C384.9624,329.67676,384.8376,329.9214,384.8402,330.16464C384.84497,330.60483,384.43744,331.48975,384.2289,331.49203C383.78876,331.49673,383.16882,332.02475,382.66763,332.81802C382.38275,333.26132,382.0141,333.45065,381.67676,333.32684C381.57214,333.29324,381.29425,333.3078,381.06332,333.3798C380.6244,333.5004,380.3617,333.8508,380.3667,334.31418C380.3687,334.49948,380.28815,334.54672,379.97537,334.55008C379.7553,334.55246,379.53458,334.49692,379.4875,334.42792C379.44012,334.33575,379.16187,334.31558,378.69888,334.35532C377.9119,334.4333,377.44034,334.75116,377.10043,335.46155C376.7831,336.11377,376.65604,336.1499,375.01114,336.1676C374.1655,336.17673,373.36682,336.2433,373.2054,336.31458C372.64053,336.5755,371.63522,336.81805,370.60568,336.95663C368.9861,337.1826,367.36765,337.50128,365.26474,338.0222C364.61768,338.17975,363.99353,338.31387,363.90082,338.31488C363.7966,338.316,363.63528,338.3989,363.5436,338.49252C363.40598,338.62143,363.09372,338.67117,362.3408,338.6793C361.12442,338.6924,360.17688,338.92264,359.64844,339.33386C359.43005,339.49844,359.2115,339.6398,359.14197,339.64053C359.08405,339.64114,358.83087,339.7945,358.5781,339.99417C358.33682,340.1822,358.07214,340.3472,358.00266,340.348C357.93317,340.34872,357.74878,340.4434,357.5995,340.56085C357.45013,340.6783,357.03485,340.845,356.68817,340.92984C356.34155,341.01468,355.94943,341.18112,355.82327,341.29834C355.697,341.40396,355.30536,341.6167,354.94778,341.7596C354.40555,341.97397,354.02377,342.02444,352.46048,342.08768C351.25598,342.12378,350.37646,342.2144,349.9261,342.34674C349.10602,342.57565,348.4797,342.51288,348.47632,342.2001C348.4751,342.0843,348.57507,341.68927,348.69855,341.31726C349.04614,340.24768,348.95966,339.75043,348.32788,339.17798C347.9301,338.82315,347.9356,338.25537,348.36316,337.0807C348.58838,336.47583,348.83435,335.65063,348.9225,335.23257C348.99908,334.81467,349.12064,334.26886,349.18738,334.01324C349.4213,333.14185,349.5099,330.6153,349.36346,328.8559C349.18835,326.58707,348.97195,324.7821,348.86548,324.5747C348.77078,324.39038,348.57205,323.1529,348.38043,321.49826C348.32935,321.05853,348.24335,320.60767,348.18445,320.5156C347.91364,320.11304,347.3417,314.34973,347.0806,309.47513C346.99246,307.74988,346.84564,305.95575,346.74786,305.4818C346.36688,303.45847,346.04163,302.30347,345.7955,302.03967C345.56107,301.7873,345.54825,301.67157,345.56335,299.85254L345.5775,297.9408L345.2732,297.65445C345.10925,297.49402,344.97986,297.31003,344.97937,297.2637C344.97873,297.20578,344.86237,297.16074,344.73495,297.1621C344.5033,297.16458,344.4912,297.11838,344.55582,296.66586C344.5877,296.39905,344.6534,294.97336,344.70718,293.51303C344.8297,289.83914,344.9362,288.96912,345.3603,288.54745C345.54373,288.37167,345.7971,288.22995,345.9245,288.22855C346.04034,288.22733,346.43283,288.09564,346.7786,287.92972C347.12436,287.76376,347.48212,287.63248,347.58636,287.63135C347.8296,287.62872,348.4593,288.00427,348.54248,288.20032C348.6139,288.37332,350.497,290.03287,350.6244,290.03152C350.65918,290.03116,350.78735,290.09924,350.8926,290.19077C351.00946,290.28226,351.32507,290.54526,351.60547,290.76236C351.8743,290.9797,352.21262,291.19617,352.36374,291.24088C352.61945,291.31918,352.82993,291.50226,354.60883,293.16293C355.12375,293.64395,355.57974,294.03293,355.6261,294.03244C355.66086,294.03207,355.84756,294.1575,356.03455,294.3061C356.20993,294.4548,356.6297,294.70517,356.95593,294.8754C357.28204,295.0341,357.69073,295.33087,357.87808,295.51425C358.06555,295.70917,358.28723,295.8574,358.37994,295.85638C358.4726,295.85538,359.14813,296.18405,359.8824,296.5932C360.61667,297.00235,361.23428,297.33167,361.25745,297.33142C361.33853,297.33057,362.94913,298.42535,363.3583,298.76855C363.87253,299.18005,364.58423,299.64737,365.97134,300.4318C366.85733,300.94354,366.92737,300.98914,368.22592,302.1568C369.37247,303.1987,369.4658,303.25565,370.5226,303.48758C371.01038,303.59818,371.32315,303.5948,372.0285,303.4713C373.0231,303.30997,373.23074,303.22665,374.1049,302.63797C374.85257,302.14328,374.88705,302.11972,375.32516,301.9181C375.52106,301.82327,375.9236,301.5525,376.22232,301.31754C376.53247,301.07092,376.8315,300.87073,376.87787,300.8702C376.93576,300.8696,377.05087,300.79886,377.13107,300.7169C377.21143,300.6465,377.51047,300.44632,377.79843,300.29263C378.08643,300.13892,378.51263,299.9142,378.75455,299.78415C378.98486,299.65424,379.18018,299.50153,379.1794,299.432C379.17877,299.37408,379.4204,299.2209,379.7317,299.07852C380.0315,298.9478,380.41153,298.7352,380.58398,298.6175C380.7448,298.48834,380.96393,298.39325,381.06818,298.39212C381.17242,298.391,381.25287,298.3322,381.25226,298.2743C381.25153,298.20477,381.37842,298.15704,381.52905,298.15546C381.67963,298.1538,381.8297,298.10587,381.8524,298.05927C381.89746,297.94293,382.74945,297.44714,383.80942,296.90277C384.22418,296.68976,384.60394,296.45398,384.64954,296.38397C384.68365,296.32568,385.09778,296.0547,385.5699,295.78314C386.03046,295.52335,386.47925,295.24045,386.54773,295.14703C386.62784,295.05347,386.7544,294.971,386.83545,294.97012C386.91656,294.96924,387.1006,294.83987,387.24942,294.67606C387.39838,294.52383,387.5822,294.38284,387.66333,294.382C387.7328,294.38123,388.05493,294.16922,388.37653,293.9109C388.69815,293.65256,388.99707,293.44077,389.055,293.44016C389.1129,293.4395,389.26215,293.31046,389.39938,293.1468C389.53662,292.98312,389.70905,292.8538,389.76694,292.85318C389.83643,292.85245,390.03198,292.7229,390.204,292.55887C390.37604,292.3948,390.83563,292.04227,391.23816,291.77148C391.64075,291.50064,392.13483,291.1246,392.32977,290.93713C392.53613,290.73795,393.06412,290.28043,393.50043,289.91656C393.9483,289.55258,394.6138,288.95456,394.99222,288.59134C395.40497,288.19296,395.78442,287.92242,395.9466,287.92072C396.12036,287.91882,396.2007,287.84842,396.19894,287.68628C396.19733,287.53568,396.33444,287.3604,396.54175,287.2423C396.7259,287.13605,396.88663,286.99533,396.8861,286.94897C396.8836,286.7173,397.37585,286.16748,397.57278,286.16534C397.71176,286.16385,397.8032,286.047,397.84656,285.7685C397.89063,285.55945,398.01514,285.2917,398.14136,285.17444C398.26752,285.05725,398.37027,284.9171,398.36978,284.8708C398.36813,284.72018,399.20566,283.95813,399.36774,283.94476C399.4372,283.94403,399.53894,283.71124,399.58215,283.42114C399.63583,283.02664,399.70398,282.89844,399.85455,282.89682C399.99356,282.89532,400.08484,282.76694,400.12833,282.5C400.17215,282.26782,400.354,281.94147,400.53748,281.7657C400.7669,281.5547,400.88022,281.32178,400.87796,281.11328C400.87396,280.74255,401.10254,280.45047,401.4153,280.44708C401.57745,280.44537,401.5888,280.42206,401.4605,280.34235C401.09894,280.11453,401.78778,278.46198,402.73642,277.25848C403.0336,276.88452,403.13736,276.8371,403.6123,276.83194C404.06406,276.8271,404.18042,276.87213,404.31042,277.11404 Z"/> </g> <g style="fill:rgb(0,0,0); fill-opacity:1.0; stroke-linejoin: miter"> <path d="M373.51462,364.97324C373.51523,365.03116,373.5738,365.0884,373.64328,365.08768C373.7012,365.08704,373.72375,365.0289,373.6884,364.97137C373.65286,364.90222,373.59445,364.8565,373.5597,364.8569C373.53653,364.85715,373.5139,364.90372,373.51462,364.97324 Z"/> </g> </g> <g style="fill:rgb(0,0,0); fill-opacity:1.0; stroke-linejoin: miter"> <path d="M164.16812,444.53415L163.99632,502.5808L164.19029,502.67462L172.76903,502.7L652.0343,504.09467L652.2053,446.04794L164.73935,444.53583"/> </g> <g style="fill:rgb(0,0,0); fill-opacity:1.0; stroke-linejoin: miter"> <path d="M109.5047,499.2068L109.41769,568.69025L687.0432,569.7615L706.78394,569.7866L706.7742,500.3144L110.477974,499.2086"/> </g> <g style="fill:rgb(0,0,0); fill-opacity:1.0; stroke-linejoin: miter"> <path d="M26.247211,557.60364L26.655392,654.2604L760.62573,655.62146L789.7755,655.58734L789.95447,559.04785L26.36528,557.6039"/> </g> </g> </svg>