<?xml version="1.0" encoding="UTF-8"?>
<svg width="1080" height="1920" version="1.1" viewBox="0 0 285.74999 508.00001" xmlns="http://www.w3.org/2000/svg">
 <g transform="translate(0 211)">
  <g transform="matrix(.21346 0 0 .21346 1478.2 -1170.1)">
   <rect transform="rotate(-90)" x="-6873.2" y="-6924.9" width="2379.9" height="1338.7" rx="0" ry="0" fill="#5ac2ed" fill-rule="evenodd" style="paint-order:normal"/>
   <g transform="matrix(1.55 0 0 1.55 -7386.6 627.68)">
    <g transform="matrix(4.9773 0 0 4.9773 -7444.7 -4750.4)" fill-rule="evenodd">
     <circle cx="1642.3" cy="1574" r="82.055" fill="#e5e5e5"/>
     <circle transform="matrix(.33028 0 0 .33028 1544.1 1436)" cx="297.36" cy="417.72" r="231.28" fill="#212121"/>
     <path d="m1642.3 1501.5v144.93c40.023 0 72.473-32.45 72.473-72.473s-32.45-72.457-72.473-72.457z" fill="#e5e5e5"/>
     <circle cx="1642.3" cy="1537.8" r="36.234" fill="#212121"/>
     <circle cx="1642.3" cy="1537.8" r="9.078" fill="#e5e5e5"/>
     <circle cx="1642.3" cy="1610.2" r="36.234" fill="#fff"/>
     <circle cx="1642.3" cy="1610.2" r="9.078"/>
     <circle transform="matrix(.15667 0 0 .15667 1595.7 1544.8)" cx="297.36" cy="417.72" r="231.28" fill="#e5e5e5"/>
     <circle cx="1642.3" cy="1610.2" r="9.078"/>
    </g>
    <g transform="matrix(2.3268 0 0 2.3268 -715.95 -733.42)">
     <g transform="translate(-351.76 13.167)">
      <path transform="matrix(.11371 0 0 .11371 935.93 181.07)" d="m310.48 13077c-14.892-0.268-66.002 17.077-77.102 27.049-4.9921 4.485-17.981 12.622-28.861 18.086-21.55 10.82-43.467 31.027-66.773 61.56-19.804 25.944-26.839 40.13-35.996 72.602-15.786 55.973-18.524 78.892-14.225 119 3.6246 33.815 3.2146 39.17-3.2812 42.805-14.853 8.312-5.4267 71.282 18.359 122.63 9.47 20.442 14.693 26.486 24.791 28.704 13.328 2.926 16.801 10.691 24.289 54.302 1.7134 9.981 8.0329 29.829 14.043 44.108 26.625 63.258 4.0311 133.27-50.857 157.59-10.269 4.55-24.564 15.726-31.766 24.836-15.442 19.534-39.489 33.629-87.467 48.294-47.978 14.666-143.63 29.847-179.64 95.301-28.289 56.288-42.915 101.92-46.945 162.02-4.5756 18.553-4.5414 90.323 0 111.77-0.23756 40.575-11.473 134.08-27.189 180.91-15.717 46.826-39.534 104.46-56.592 158.98 0 2.836-1.2671 6.487-2.7988 8.111-1.5366 1.624-7.6148 12.728-13.508 24.676-5.8937 11.947-11.595 22.269-12.678 22.937-1.0903 0.669-2.6773 4.475-3.5215 8.457-1.9901 9.296-19.19 30.337-48.336 59.133-47.371 46.804-72.412 72.167-76.756 77.737-2.4606 3.153-9.7553 11.285-16.211 18.07-6.4531 6.784-11.732 12.856-11.732 13.492-41.024 55.391-100.12 118.01-125.9 143.94-41.619 41.87-63.701 62.59-70.618 68.851-6.9168 6.26-15.986 14.308-23.97 21.685-7.9869 7.377-18.61 15.658-23.613 18.408-5.0012 2.748-10.226 5.925-11.598 7.055-1.3754 1.131-8.8142 3.291-16.529 4.802-7.7149 1.511-14.559 3.622-15.219 4.686-1.7879 2.891-11.002 2.332-19.295-1.164-17.317-7.303-36.216-10.607-84.746-14.828-21.774-1.904-31.734-1.974-34.934-0.264-2.4606 1.318-23.964 3.085-47.781 3.935-49.228 1.758-58.213 2.919-58.213 12.907 0 0.09 0.3231 1.053 0.3496 1.113 0.7388 1.358 1.7105 2.714 3.0586 4.154l-3.1308-0.236c-0.4133 0-0.7486 0.194-0.9512 0.73-5.1366 10.654-6.3876 24.115-11.732 34.248-3.3243 6.242-3.7768 13.608-3.3282 57.711 0.5803 58.279 1.149 56.61-18.973 56.082-12.443-0.325-24.332-4.746-41.449-15.392-9.8527-6.128-17.134-6.49-30.145-1.522-10.857 4.147-11.448 6.615-3.9902 11.58 6.8453 4.559 14.378 8.93 18.424 15.801 2.4957 4.369 8.824 9.326 17.342 13.574 7.3775 3.679 19.951 11.231 27.943 16.788 11.982 8.334 16.294 10.108 24.59 10.107 15.942-4.842 34.152-8.144 48.764-14.766 11.264-5.178 14.545-5.69 28.797-4.507 8.8478 0.729 22.193 3.458 29.662 6.043 14.654 5.069 26.03 5.006 57.787-0.317 7.8091-1.309 12.067-1.839 14.857-1.582 8.2779-0.619 18.124-1.133 19.09-1.068-4.2019 2.969-7.2555 4.878-10.533 7.847-0.15357 0.628-2.0517 2.351-2.418 3.065-20.284 41.056-18.187 67.671-11.889 109.26 2.1704 14.328 17.279 59.161 21.514 63.839 1.7825 1.967 3.2363 4.627 3.2363 5.909 0 3.014 19.24 20.787 22.504 20.787 1.3674 0 8.1558 5.051 15.084 11.228 14.017 12.492 45.954 29.776 74.4 40.264 14.258 5.257 26.371 7.688 51.145 10.266 31.366 3.262 63.163 9.151 102.88 19.043 17.676 4.403 26.468 4.799 126.3 5.748 90.036 0.853 121.15 0.256 193.36-3.703 79.714-4.375 96.615-4.572 229.13-2.709 163.07 2.294 220.02 0.935 308.49-7.372 69.806-6.553 81.96-6.199 146.42 4.303 23.185 3.777 46.098 5.664 80.475 6.631 26.433 0.739 70.697 2.415 98.359 3.717 27.664 1.3 69.91 3.133 93.885 4.072h0.0918c64.923 2.532 72.49 2.536 101.71 0.09 37.531-3.158 61.465-9.231 93.262-23.676 43.068-19.564 112.85-37.17 176.61-46.617 14.926-2.211 33.69-2.622 48.088-10.117 4.586-2.459 9.4095-4.467 10.73-4.467 23.804-21.034 61.436-48.194 79.27-74.523 0-1.079 4.8391-8.146 10.756-15.698 5.9158-7.551 16.607-25.691 23.754-40.31 10.36-21.19 13.45-30.029 15.166-43.59 1.188-9.356 2.1132-18.517 2.1132-20.359-0.2464-13.992-3.9272-35.028-8.5449-48.799-4.2889-12.813-4.9268-17.08-2.8672-19.563 3.201-3.855 13.742-4.101 23.572-0.547 8.3719 3.028 29.997-0.676 34.314-5.867 5.8058-6.998 25.176-10.499 67.092-12.123 37.596-1.455 42.438-2.095 49.729-6.599 12.676-7.841 15.768-20.785 14.447-60.877-1.2101-36.992-2.6684-39.671-8.3476-48.518-1.794-2.793-5.0872-11.124-6.3809-14.506-3.2528-8.585-17.132-10.268-22.871-0.285-4.8692 8.476-5.2356 15.448-4.5762 45.521 0.431 19.868-3.5787 22.856-6.6777 25.963-6.0117 6.022-9.5585 2.397-12.555-12.812-1.5424-7.833-3.8051-18.529-4.9941-23.772-1.2134-5.243-2.1875-13-2.1875-17.236-1.1574-17.471-8.5716-26.938-13.215-32.879l-8.0937-4.267c5.1866-9.1 3.1244-19.493 2.3945-26.618 1.421-41.241-45.835-37.55-71.207-29.267-3.4615 1.344-12.036 2.445-19.059 2.445-34.445 6.084-63.079 25.766-96.07 26.727-6.0459 0.09-9.8937-2.278-20.838-12.756-7.3845-7.07-14.979-15.875-16.881-19.565-1.8977-3.688-7.1047-10.02-11.57-14.074-4.4639-4.054-8.8714-8.08-9.7949-8.943-59.731-74.142-94.224-157.4-157.24-226.76-14.115-17.189-25.031-28.13-35.605-46.414-4.9023-12.633-9.3678-24.14-12.348-34.951-2.3023-8.442-5.8654-20.877-7.9258-27.639-3.654-11.998-5.1239-22.395-9.6211-68.182-1.2057-12.295-3.2054-26.883-4.4199-32.416-4.3618-19.667-7.2924-89.225-6.3945-152.01 0.8616-60.889 2.7387-82.805 10.512-122.95 9.3729-48.341 13.296-106.45 9.084-134.12-4.4285-55.941-16.428-101.46-38.811-148.92-73.998-105-147.86-88.135-164.82-98.033-16.957-9.898-31.299-21.212-49.092-25.388s-32.104-8.787-51.768-26.87c-10.439-9.599-27.146-20.845-37.129-24.99-38.935-16.169-67.145-57.732-73.002-107.57-2.3196-19.737-1.1226-27.41 6.2793-40.236 10.239-17.739 21.018-52.61 28.471-92.125 3.9969-21.196 7.198-27.378 16.32-31.534 6.2418-2.844 16.217-14.783 22.168-26.527 13.644-26.925 33.036-104.59 28.926-115.85-1.7053-4.664-2.0575-18.993-0.79101-31.847 2.6935-27.347-5.2817-89.435-15.652-121.84-11.23-35.093-52.055-93.639-82.453-118.25-21.867-17.701-33.433-23.264-64.668-31.104-25.548-6.412-37.631-11.51-36.793-15.523 0.68686-3.284-0.57193-4.851-2.7949-3.477-2.2244 1.376-7.6965-1.537-12.16-6.47-4.4648-4.934-13.415-8.939-19.891-9.036-6.4773 0-14.361-1.713-17.52-3.716-0.68104-0.433-1.8364-0.65-3.377-0.678zm-340.62 1314.3c4.8306 10.04 10.016 23.762 15.443 33.869 27.863 51.892 26.651 120.13 43.727 171.09 2.3312 6.612 3.8788 16.412 10.225 64.828 1.7728 13.523 4.3686 29.185 5.7949 34.801 3.7938 15.045 1.705 49.788-3.8906 64.671-6.0012 15.972-11.12 25.913-18.869 36.661-3.4587 4.796-6.2891 9.565-6.2891 10.597 0 1.033-4.7753 9.084-10.615 17.897-5.8411 8.811-12.012 18.63-13.701 21.818-1.6946 3.187-4.8983 7.814-7.0898 10.272-29.758 55.59-73.234 155.14-73.652 216.63 0 12.433-3.8664 18.909-21.963 36.809-2.52 2.917-5.6604 5.969-8.0176 8.887l2.8379 6.763-5.127-4.302h-0.50977c-76.816-18.031-64.984-10.374-99.91-15.655-30.352-41.52-119.38-54.675-120.05 23.858l-0.29101 0.517c-3.103 0.273-6.209 0.538-9.2969 0.828 0 0-0.31928-0.296-0.32812-0.304-5.8083 1.052-19.969 2.156-35.779 2.699-21.816 0.747-40.82 2.605-48.725 4.754-7.1311 1.938-19.332 3.527-27.113 3.527-51.385 11.461-117.29 19.796-165.31 39.955-27.773 11.797-30.447 12.529-30.447 8.321 105.2-70.564 207.8-159.41 314.51-220.09 2.7007-1.415 12.327-9.575 21.385-18.127 9.0586-8.552 20.226-18.526 24.814-22.174 7.8308-6.222 24.514-22.22 37.201-35.674 3.0727-3.26 9.512-9.448 14.314-13.752 21.389-19.159 60.384-65.543 64.367-76.564 1.2225-3.381 3.0592-6.149 4.0625-6.149 15.004-30.056 30.045-62.73 40.475-97.238 22.397-65.721 57.54-143.08 72.443-195.37s30.984-107.04 34.643-114.06c0.20941-0.393 0.4547-0.597 0.73438-0.599zm697.3 93.556-6e-3 0.01h0.94528c0.69477 0.114 1.3701 0.474 2.0137 1.117 3.0841 3.084 3.4683 7.847 6.5312 81.16 0.76504 18.442 0.78928 36.012 10.229 110.41 9.439 74.396 12.552 88.435 13.344 101.96 1.0817 18.234 2.6897 27.187 6.2383 34.646 29.008 63.838 72.199 115.5 119.52 167.65 63.625 46.339 126.69 112.27 191.7 153.3 2.2688 1.326 9.6663 7.648 16.441 14.055 13.376 12.649 12.686 15.862-2.4844 11.648-4.7231-1.312-18.329-2.387-30.236-2.394-11.908 0-24.486-1.111-27.947-2.45-3.4588-1.337-17.879-2.986-32.047-3.66-20.068-0.954-28.55-0.411-38.352 2.438-46.158 1.908-104.48 33.599-142.97 34.986-2.9094 0-9.3083 1.482-14.229 3.254-23.693 8.536-39.14-2.821-45.523-33.465-1.6567-29.348-5.254-69.243-10.656-94.074-5.8918-27.087-13.109-39.511-15.805-67.99-11.468-70.153-50.444-130.62-59.389-199.84-2.7226-21.815-2.64-26.91 0.84179-48.799 9.9274-64.938 28.181-125.55 33.211-189.5 0.97445-12.91 3.4088-27.212 5.3887-31.783 1.9752-4.571 3.6094-13.469 3.6094-19.774 0-11.54 4.9994-22.266 9.6348-22.908zm-1667.7 658.43 18.143 1.022c17.924 1.01 45.986 4.375 47.279 5.671 0.36065 0.37-0.76418 6.172-2.5039 12.893-1.7456 6.72-3.1719 13.927-3.1719 16.016 0 2.088-7.6513 11.928-17 21.867-16.662 17.712-17.21 18.068-27.686 18.068-18.153 0-21.061-9.723-16.832-56.209z" fill="#d2a98b" stroke-width="4.5379"/>
      <g transform="translate(-97.865 487.43)" fill="#212121">
       <path transform="scale(.26458)" d="m3759.2 5344.9c-42.549-0.1625-79.833 8.6051-116.77 20.251-1.8217 0.6561-3.6153 1.3336-5.3379 2.0566-10.742 4.5626-12.741 5.2661-13.035 4.0449-31.422 15.99-55.091 41.212-86.73 45.885-0.3719 0.3515-2.4563 2.7062-3.3984 4.5937-8.7178 17.645-7.8163 29.084-5.1094 46.957 0.9329 6.1579 7.4262 25.427 9.2461 27.438 0.7661 0.8451 1.3906 1.988 1.3906 2.539 0 1.2956 8.2693 8.9336 9.6719 8.9336 0.5877 0 3.5049 2.1715 6.4824 4.8262 6.0242 5.3688 19.751 12.797 31.977 17.305 6.1277 2.2594 11.333 3.3043 21.98 4.4121 13.48 1.4022 27.146 3.9324 44.217 8.1836 7.5969 1.8924 11.376 2.0633 54.281 2.4707 38.696 0.3666 52.066 0.1094 83.104-1.5918 34.26-1.8799 41.524-1.965 98.475-1.1641 32.408 0.4558 55.012 0.5717 73.764 0.2168 12.477-12.823 18.51-27.795 20.646-44.064l20.102 2.2461 68.381 7.5078c-25.101 8.6177-37.903 20.31-53.785 31.232 1.1769-0.1058 2.2727-0.1933 3.4746-0.3066 30.001-2.8165 35.225-2.6639 62.93 1.8496 9.9643 1.6233 19.812 2.4342 34.586 2.8496 11.361 0.3175 30.385 1.0383 42.273 1.5976 11.89 0.559 30.046 1.346 40.35 1.75h0.039c27.903 1.0882 31.155 1.0897 43.715 0.037 16.13-1.3568 26.416-3.9679 40.082-10.176 18.51-8.4084 48.5-15.975 75.904-20.035 6.415-0.9502 14.48-1.1264 20.668-4.3477 1.971-1.0567 4.0436-1.9199 4.6113-1.9199 10.23-9.0402 26.404-20.713 34.068-32.029 0-0.4637 2.0802-3.5006 4.6231-6.7461 2.5425-3.2454 7.1373-11.041 10.209-17.324 4.4526-9.1071 5.7802-12.906 6.5175-18.734 0.5107-4.021 0.9063-7.9581 0.9063-8.75-0.1058-6.0132-1.6853-15.054-3.6699-20.973-1.7341-5.1821 0.079-8.2806-2.2246-7.7363-2.304 0.5438-10.227 3.2716-14.869 1.1445-5.6742-2.5996-16.086-2.597-23.967-7.9121-5.4262-1.6968-20.449-16.197-31.635-26.092l-11.574-7.3574c-0.1333 0.8306-1.8267 0.7363-5.125-0.1797-2.0299-0.5639-7.8786-1.0243-12.996-1.0274-5.1179 0-10.522-0.4794-12.01-1.0547-1.4865-0.5748-7.6882-1.2827-13.777-1.5722-8.6245-0.4101-12.266-0.1777-16.478 1.0468-19.838 0.8202-44.905 14.441-61.445 15.037-1.2506 0-4.0006 0.6368-6.1152 1.3984-2.8237 1.0174-5.3731 1.3742-7.6446 1.082-0.9256 0.5677-1.8522 1.1483-2.7812 1.7481-42.161 22.66-70.439 35.25-115.68 43.555l-83.34 2.8847s-14.25 30.675-22.631 43.443c-7.9884 12.171-23.676 32.016-23.676 32.016s-9.3047 0.3773-13.873-0.3457c-6.2752-0.9955-12.411-2.98-18.266-5.4473-14.982-6.3125-28.921-14.957-42.619-23.713-19.712-12.601-39.27-25.754-56.719-41.338-14.491-12.942-39.416-42.94-39.416-42.94-8.4291-7.5069-21.855-14.944-25.176-17.814-2.1747-3.6934-4.9355-8.0155-1.9629-11.365 0 0-6.4837-1.9871-9.1348-4.084-2.0885-1.652-3.4335-2.6928-4.7844-4.4121z" stroke="#212121" stroke-width="1px"/>
       <path d="m1026.5 1395.5c-1.6131 4.4042-2.8132 8.8656-2.8365 12.289 0 1.4138-0.4397 2.1504-2.4975 4.1858-0.3366 0.3897-0.8909 0.8883-1.1637 1.2708 0.048 0.072 0.1673 0.1868 0.2165 0.2588 1.3663 1.1895 3.4698 1.8124 5.1407 3.2494 4.4195 4.171 9.2111 13.287 21.759 10.46 4.8001-0.9041 9.063-0.9295 13.541 7.1769l24.199-0.8496 7.3282-5.6405c5.8332-7.0284 11.674-14.039 23.598-6.5003l-0.01-0.064c-1.1313-0.5123-1.9214-1.8059-2.3508-3.867-0.1884-3.3372-0.5975-7.8739-1.2118-10.698-0.2542-1.1684-0.5253-2.0803-0.7865-2.9595-2.1014 0.8487-5.7095 2.1864-8.2863 2.4768-4.2534 0.4794-22.94 1.9162-22.94 1.9162-7.4726 0.3203-16.314-0.4219-23.788-2.0547-10.266-2.2428-29.684-10.614-29.684-10.614z"/>
       <path d="m1099.4 1304.4c0.1987 0.4048-12.804 5.4354-29.546 5.2741-12.5-0.1203-29.232-4.8368-29.232-4.8368l-5.5508-31.292c-0.9426 0.2721-1.9295 0.5424-2.9409 0.8134l4.0472 31.537c-5.4229 8.774-3.3874 15.884-5.8745 23.924l0.3449 0.8129c0.2789 0.5731 0.9069 2.1091 1.524 3.2583 2.1197 3.9477 2.7604 8.7254 3.5332 13.192 6.957 0.061 13.883 0.5695 21.316-0.138 10.312-0.9815 21.072 0.01 31.127-0.4346 6.6222-0.293 19.154-0.2687 19.154-0.2687l0.6698 0.122c0.077-0.3621 0.1558-0.6581 0.2294-0.8279 0.2246-0.5198 0.4103-1.5315 0.4103-2.2484 0-1.2948 0.5533-2.4975 1.0744-2.5994l0.9565-12.555c0.3557-3.8303-0.6961-6.7108-1.2309-9.142-0.7349-5.3676-3.9045-10.8-5.656-13.348l5.9866-30.853c-0.6453-0.4707-2.8223-1.5985-3.0033-1.7792z" stroke="#212121" stroke-width=".2542"/>
      </g>
      <path transform="scale(.26458)" d="m3201.4 7384.2c-0.5363 0-2.5644 1.7555-4.5058 3.9004-1.9415 2.146-3.091 3.9023-2.5547 3.9023 0.5364 0 2.5644-1.7563 4.5059-3.9023 1.9414-2.1449 3.091-3.9004 2.5546-3.9004z" fill="#006064" stroke-width="1.9503"/>
      <path transform="scale(.26458)" d="m3637.7 6316.1c-2.1455 1.9276-7.728 5.4253-12.404 7.7735-9.2616 4.6503-18.68 13.334-28.697 26.457-17.036 23.438-24.148 57.157-21.584 82.348 0.8845 8.2518 1.2074 12.555 0.8125 15.023 5.1472 2.7939 8.61 11.052 18.172 34.207-5.9391-95.974 20.394-54.111 36.084-107.96 38.43 37.295 125.55 8.4255 129.78 54.543 4.8893 22.394 2.1743 38.852 1.097 64.031 1.9965-15.283 7.1938-45.558 17.512-46.756 0.394-0.078 1.3923-0.1004 1.7855-0.098-0.05-2.4292 0.047-5.2461 0.3105-7.9219 1.1576-11.753-2.2695-38.437-6.7266-52.365-4.8264-15.082-22.373-40.245-35.438-50.82-9.398-7.6075-14.369-9.9978-27.793-13.367-10.98-2.756-16.173-4.9472-15.812-6.6718 0.2952-1.4113-0.2458-2.085-1.2012-1.4942-0.956 0.5911-3.3082-0.6609-5.2266-2.7812-1.9189-2.1203-5.7655-3.8412-8.5488-3.8828-2.7838 0-4.9213-1.5562-9.5265-2.1905-4.6053-0.6342-27.822 7.6393-32.593 11.925z" fill="#212121"/>
     </g>
     <path transform="rotate(8.7412)" d="m884.05 1569.3a12.446 8.4739 0 0 1 -12.446 8.4738 12.446 8.4739 0 0 1 -12.446 -8.4738 12.446 8.4739 0 0 1 12.446 -8.4739 12.446 8.4739 0 0 1 12.446 8.4739z" fill="#212121" fill-rule="evenodd" style="paint-order:normal"/>
    </g>
   </g>
  </g>
  <path d="m140.99-116.01c-1.6723-0.43761-6.8359 1.9804-2.4861 0.85933-2.2838 1.4816-6.8944 1.7434-3.0142 0.30493 1.3075-0.46266 2.8296-0.92604 0.45082-0.64611 1.2872-0.50473-2.5188 0.69797-2.8994 0.7015-1.3709 0.60308-5.9994 2.0859-5.4307 2.3424 1.2093-0.64316 5.8632-2.2367 2.1927-0.57488-2.9066 1.5738-5.6432 2.1474-8.4364 4.2348-3.688 1.5227-6.3417 4.8341-9.227 7.498-1.4371 1.5525 1.0904-0.51417-0.73149 1.4339-2.1578 0.67344-3.5258 4.9784-4.8585 7.5712-1.3221 1.5218-2.0135 6.4873-2.7355 6.7026 0.93496-2.2091 0.46607-4.2462-0.16507-0.54145-0.42142 2.8427-2.712 6.3975-1.3971 8.9856 0.17166 3.0178-0.7124-0.05109-0.35523 2.8088-0.2692-1.6399-0.43942 3.8868 0.16997 5.1306 1.6521 4.7582 2.0888 9.9362 4.7571 14.303-1.1186-2.9264-0.54766-2.1252 0.47083-0.12381 0.92066 1.1966 3.1848 3.9637 1.8311 2.9569 9.9e-4 0.02628-3.093-3.99-0.99798-0.87752 2.7384 3.1308 5.1761 6.5916 8.4051 9.2092 2.2371 1.8205 6.7626 4.4457 8.0565 4.9557 0.0226-0.14584 4.4248 2.3238 6.7065 2.3488 2.4249 0.38827 1.0701 0.15199 0.56159-0.09484 0.85448-0.08228-2.6191-0.59955 0.0984-0.36414-1.8685-0.89634 5.4073 0.37386 1.1203-0.46682-2.98-0.24488-7.629-2.1978-7.8776-2.9015-5.4768-2.1986-10.037-6.1794-13.37-10.986-2.7241-2.9965-4.212-6.9119-5.8941-10.578-0.69953-2.1369-1.0278-6.7212-1.5155-6.1291-0.29063-1.6094-1.4378-6.1493-0.48397-4.951-0.4177-2.5739 0.83487 1.6354 0.36001-1.5732-0.79853-2.9664 0.52358-5.7163 0.42581-6.6693-1.0809 9.0585 0.9078 18.46 6.0016 26.082 4.3516 7.0303 11.518 12.579 19.658 14.323 0.71574-0.48512-4.816-2.2343-0.6522-1.0292 2.7003 0.99423 1.913-0.11885 0.0647-0.65973 1.4324 0.41202 5.082 1.2448 1.4934-0.0917-2.0256-1.6844-7.42-2.8068-5.8553-3.7249-0.13846-0.51204 4.0588 0.87597 0.97708-0.84064-2.3554-1.853-4.9604-4.0796-6.9748-6.6105-1.5498-1.5303-1.5287-2.8375-0.0783-0.51599-0.9329-2.8792 2.8784 1.6921 1.7872 1.3722 0.38817 1.2522 8.2375 4.1975 5.7242 1.7631 1.1485-0.02073 2.8625 2.2316 3.1716 0.43294 2.8495 1.3164-1.9055-1.8347 1.7429-0.3186 0.85544-1.0846-3.2686-3.7619-3.0894-2.6987-1.2212-1.015-1.3914-1.2355-0.81794-0.21227-1.7161-1.2294-3.1738-1.8546-4.4035-2.9988-1.4336-0.87004-3.7663-2.9517-4.9279-5.585-0.79398-0.8473-1.2439-3.3572-1.9046-1.1763-0.49055-2.1523-0.081-2.6482-0.56378-1.9441-1.3347-1.8535-2.1183-4.445-0.92911-4.7096-1.3864-0.29226 0.47594-5.6255-0.5363-5.7509 1.2249-2.2336 0.35515-4.3213 0.70086-7.4624 0.43745-1.3141 3.3705-4.9017 0.72175-4.0657 0.98064-1.1389 1.5019-2.7291 1.8531-0.4822 1.9336-1.9104-1.0656 0.80698 0.44944-1.6071 0.5972-1.2813 1.8628-2.0768 0.85054-0.03863 1.2813-3.0054 2.9966-5.6507 5.2282-7.6194-0.39779-1.3286 2.755-1.8161 2.5072-2.6998 1.6947-0.87414 6.5506-1.8213 4.9966-2.1111 1.7029-0.15861 7.5785-3.1809 6.569-0.20433-4.1541 0.33361 2.8762 0.0804 3.7998-0.49965 1.4941 1.1938 4.3734-0.0327 0.69394-0.60689-2.594-0.0538 2.449-1.8998 2.8384 0.0509 0.99815 1.1767 6.2992 2.1624 6.9762 2.1661-2.3027-1.828 3.2729 0.32727-0.19939-1.3663-1.8636 1.8211-6.0772-3.6368-2.2414-1.2751 2.1305 0.1502 5.95 2.5258 5.1631 3.7964-0.98244-0.25525 0.64652 1.5141 0.87314 0.84195 0.97118 1.3358-0.0124-1.1212 1.5741 0.61358 0.3761 0.7331 3.4681-0.40642 3.3974 2.0993 0.9166 2.1717 1.7032 3.8881 3.7656 3.9067 1.0361 2.554 1.9529 2.4859 2.8913 5.7725 0.26536-2.6315 1.1538 6.4812 1.1463 1.9049 1.1995 2.0989-0.35452 1.5349 0.81401 3.804-0.11281 1.9294-0.0518 2.3676 0.36011 0.79738 0.60711 1.2432 0.28026 4.2862 0.85762 1.12 1.7177 2.7363-0.0268 8.5928-0.67593 9.8151-0.52073-2.6808-2.1101 4.2112-2.1492 5.0296-0.19226-2.5989 4.6072-6.4328 2.1987-2.3601-1.9552 1.6869-1.7846 5.2083-3.5541 6.3272-2.7128 0.99803-0.80683 2.4955 0.95518 0.2102 0.17985 1.9063-4.3992 3.7075-2.8851 3.5935-0.99917 1.891-5.1499 3.1127-5.4465 4.1028 3.2918-1.2518-2.9276 2.2231-1.255 2.1592-3.062 2.3528-7.5695 2.8238-10.816 3.421 0.87446 0.83571 5.4107-0.7189 2.9483 0.83124-2.3017 1.1716-4.003-1.838-6.4631-0.31695 1.0096 1.4871-4.49 0.24251-1.7186 0.31918-1.227 0.1027-4.9214-1.0766-4.3484-0.38992 1.3257-0.26929 2.8922 0.9454 0.5261 0.55182 3.4978 1.8183 6.6753 0.07192 9.7336 0.88054 3.4056-0.90788 7.9828-2.4144 10.247-4.0017 3.8438-0.9202-2.9238 2.3743-4.4947 3.1763-4.6601 1.9893 2.72-0.88983 4.0888-1.9739 4.8307-2.7412 8.7063-6.8572 11.745-11.458-3.7588 6.4226-9.7822 11.384-16.675 14.126 8.3769-3.007 15.132-9.7789 18.783-17.801 0.88389-2.3978 1.9007-5.7816 2.4726-8.633-1.3653 15.003-14.829 27.201-29.574 28.592-1.1838 0.41415 3.7399-0.2668 5.1108-0.69374 4.3819-1.0453 8.4965-3.0437 12.162-5.6451-4.5549 3.6143-10.151 5.5241-15.764 6.7365 4.1447 0.04313 8.2048-1.8609 11.898-3.6745 3.1163-1.429 7.4956-5.417 8.7224-6.6598-8.2956 9.1785-21.678 13.132-33.661 10.145 8.0454 2.1737 16.756 0.8782 24.229-2.5943 0.50533 0.90018-4.7013 2.505-6.9723 3.2279-1.5509 0.68296-7.1114 1.1906-6.4958 1.2861 16.292-1.1353 31.197-14.347 33.248-30.737 0.80197-3.638-0.0183-9.4006-0.15426-11.732 2.9212 14.916-4.5784 31.163-17.951 38.451-7.3671 4.2827-16.163 5.5537-24.529 4.316 8.5489 2.1272 17.928 0.16504 25.462-4.2883 11.505-6.7563 18.651-20.109 17.89-33.43-0.0783-1.3935-0.67679-7.1052-0.14104-2.2256 1.0952 2.1653 0.0364 7.4596 0.30726 7.9361 0.44155-4.3896 0.14863 2.3959 0.38354 3.243 0.78626 1.7673-1.7925 7.8826-0.28017 3.4572-0.59709-4.1086-1.2496 4.0462-1.7566 5.1944-0.7314 2.173-2.9137 6.8744-4.1702 6.8377 0.98198-2.7149-2.737 4.278-4.9974 5.5284 0.48245 0.36995-4.6788 5.7879-1.9447 1.8741-2.214 1.6549-5.7399 5.2756-6.2312 4.6673-0.98797 1.9039-3.7722 1.224-3.7521 2.2885-1.3981 0.77458-7.8806 2.0382-4.5523 2.2162-1.6566 0.4929-5.2016 1.0626-1.4553 0.63879 1.6067-0.05402 1.8373-1.1653 4.1324-1.4432-3.6968 1.5843 2.9364-0.94937 3.8861-1.5744 2.6701-1.2427-0.31428 0.84317 2.4092-0.75905 1.1573-1.0701 5.8889-4.3285 2.303-1.5036-2.4641 2.6832-6.7122 4.0976-9.444 5.3278-0.66881 0.73242-6.1337 2.2333-1.6084 1.1359 2.1024 0.53562 3.9324-0.77054 5.5696-0.98452 0.3343 0.22933 6.6785-1.7019 5.8066-2.7235-0.20335 0.5045-2.9837 2.3313-3.179 1.5943 1.5864-0.90465 7.3155-5.3256 4.0901-1.624-0.35776 1.1402 2.1378-0.86586 1.4663-1.3732 1.8746-2.2124 5.0872-4.7788 3.1543-2.3971 1.0483-1.3632 4.1097-4.3292 1.2576-1.0002 3.1031-1.7065-7.303 5.6381-2.288 2.4179 2.7587-2.2515 3.8062-2.9024 5.6466-5.2583 2.5827-2.4773 4.7438-5.8225 6.0915-8.9759 0.70201-1.9268-0.88799 0.88926 0.23413-1.6985 0.23081-1.3128 1.9077-6.0126 0.92862-1.9007-0.6254 3.0437 2.3784-7.6678 0.32217-2.0285 0.0506-1.6933 1.9994-4.7298 2.0223-6.7288 0.16596 1.292-0.93104 6.9206 0.35295 3.0019 0.21188-0.90669 0.55668-3.839-0.16224-1.2142 0.0828-1.5556 1.2249-5.5389 0.0586-2.1887-0.10872-2.5159 0.36692-6.1925 0.2939-8.2106-0.46868-3.474-0.47352-6.8282-1.4467-9.4153-0.66188-1.7231-1.4126-3.1425-1.7621-3.0526-1.4753-4.159 3.0834 4.8181 0.7144-0.264 0.0885-2.5668 0.84539 2.5746 1.4865 3.4995 0.29886 2.0156 1.2788 3.8988 0.26616 0.75966 0.0923-2.0051-1.1389-6.354-3.9652-7.4245-1.0021-1.983-4.8887-7.9004-1.4432-3.2801 0.65806 1.9781 3.6071 4.6749 1.241 1.2425-1.6969-2.2099-1.4989-2.6236 0.0346-0.54401-1.3822-2.2833-4.2288-5.6893-5.4883-6.7942 2.3995 2.6325 0.31472 1.0645-0.84474-0.58351 0.78411 1.1276-3.1934-2.4112-0.32047 0.35607-0.23432 0.44902 5.4028 4.4711 2.6449 3.335-2.3206-2.0977-4.3068-5.0118-6.8195-6.6266 1.6392 0.71234-3.9498-3.5484-1.5164-1.2127-1.2304-0.57009-5.4983-2.8968-1.6031-2.0396 2.7882 0.96291-6.2561-3.6394-1.2175-1.5224 1.4137 1.0549 6.9358 4.0695 2.5075 2.3409 3.0973 1.9211 3.9727 2.2461 6.0567 4.708 3.6157 2.7756-2.0619-3.3526-3.2414-3.7563-3.0713-3.1369-7.2688-4.0327-11.106-5.7622 1.711 0.22585-2.3177-0.99281-2.6378-1.5181-3.5922-0.29517-6.5553-1.9923-9.546-1.2616-0.36247 0.43021 5.6118 0.16325 1.9538 0.55985 1.5653 0.1986 5.2033 1.1694 3.9638 0.47964 2.7581-0.15857 5.2889 1.4781 1.8093 1.3001-2.575-0.72395-5.2255-0.94766-7.5752-1.098 0.0317-1.3506-3.5204-0.84375-5.6381-0.99167 0.51579-0.31772 1.2498-0.26477 1.6987-0.70035zm4.9441 0.14593c-1.5134 0.0662 1.1125 0.17795 0 0zm-2.2292 0.86791c0.46578 0.1096-0.69863 0.0685 0 0zm-12.365 0.5103c-3.739 0.21091-4.4666 1.426 0 0zm-3.3755 0.70048c-1.5e-4 -3e-4 -1.1e-4 3.1e-4 0 0zm28.727 0.36387c-0.0599 0.43998 1.0486 0.18513 0 0zm-29.227 0.13291c-2.882-0.21524-2.205 1.8926-5.0828 1.9321-1.2462 0.67137-4.481 3.0874-2.0656 2.2034-2.1153 0.87204-4.3782 2.703-5.2271 4.3472 3.2674-3.3068 3.8538-2.9344 7.235-5.4189 2.628-0.89562 4.1759-2.3242 4.7876-2.7885 0.0264-0.10155 0.91993-0.23885 0.35289-0.27529zm-12.564 8.6088c5e-5 -8.2e-4 -1.1e-4 2.5e-4 0 0zm35.152-7.6428c2.2296 0.37034 7.9575 2.6035 2.8368 0.84862-0.93698-0.31107-1.8854-0.58592-2.8368-0.84862zm-32.137 4.0264c-1.841 1.151-4.0768 2.8902-1.165 1.2047 0.50562-0.2874 0.80671-0.77302 1.165-1.2047zm22.043 0.76773-0.35456 0.0269zm-2.2063 0.22873c3.8254 0.0916-1.9234 1.2127-0.0113 0.35702-0.13527 8e-3 -0.94638-0.59331 0.0113-0.35702zm8.8416 0.0427c1.2845 0.1501 0.38536 0.12303 0 0zm-31.754 1.2443c-5.2088 4.2863-9.1355 10.128-11.685 16.399-0.7631 1.8126-2.3094 6.7631-1.9839 6.9945 0.72195-1.5404 0.85908-1.842 0.54298 0.11026 1.0688-2.7224 1.0461-5.0579 2.7129-7.4945 0.77206-2.5723 3.133-6.7538 3.6529-6.8729 1.3729-1.7073 2.2805-3.7888 2.6464-4.448 1.0829-0.56949 0.0989 0.17752 1.5977-1.5687-1.2745 2.2532-1.3604 2.3736 0.28505 0.24049 1.5197-1.3566-1.0385-5e-3 1.1392-1.7339 1.1193-0.84453 0.47246-0.56652 1.0917-1.6263zm48.878 0.18358c2.7776 1.737 1.9741 1.9743 0 0zm-20.149 0.25106c1.0329 0.28325 1.7659 0.93509 0.062 0.0449zm-3.6322 0.47586c2.3357 0.44467 3.0996 0.29785 0.1426 0.37677-0.20457 0.0353-0.3279-0.29788-0.1426-0.37677zm25.628 0.4757c2.2778 1.5429 2.5636 2.9951 0.23609 0.61008 0.48106-0.0313-0.31486-0.4891-0.23609-0.61008zm-36.745 0.0223c-1.7327 1.1276-3.8718 1.9661-0.65512 0.32229l0.6548-0.32239zm41.137 0.11387c-0.16801 0.67866 1.1703 0.70918 0 0zm-28.735 0.37442c-0.50914 0.72242-1.0558-0.15923 0 0zm25.28 0.0172c1.441 0.88454 1.4487 1.5806 0 0zm-37.316 0.82778c3.1034 0.0732-3.9982 1.6784 0.0161 0.27613l-0.0105-0.18246-6e-3 -0.0937zm38.455 0.98491c0.64759 0.48675 1.0177 1.1485 0 0zm5.7255 0.23492c0.14201 0.35309 0.95709 1.0116 0 0zm-41.152 0.13143c-1.121 0.4978-1.4057 0.11721 0 0zm-3.0989 1.3275c-1.9069 1.0268-2.4457 2.0706-0.17287 0.33687l0.19891-0.32118-0.0261-0.0157zm45.701 0.39212c0.69301 1.9454 2.7385 3.2824 0.53768 0.66872l-0.39196-0.50854-0.14562-0.16018zm-3.0474 0.6985c1.4682 1.8283 4.6102 5.873 4.7887 6.6116 0.9722 1.092 2.4421 5.3088 3.2528 8.6363 1.0993 1.2048 0.19141 3.5929-0.27041 0.82518 1.1882 3.7311 2.0652 7.4342 1.5148 11.421 0.12112 2.2635-1.4409 7.8098-0.95141 2.6996 0.64869-0.52464 0.13555-4.4625 0.59495-5.7029-0.11072-1.4204-0.30778-3.8907-0.64719-1.1552-1.171-1.872 0.0979-5.0188-0.73218-3.9441-0.54002-3.2155-1.4808-6.3562-2.8934-8.9714 0.56309 0.22742-1.8467-3.9194 0.30759-0.99201-0.1469-1.9911-4.2842-6.1207-4.9974-9.4045l4e-4 -7.3e-5 0.0326-0.02324zm-1.4118 0.35324c1.4902 0.95407 1.1883 1.774 0 0zm2.1875 1.3736c0.94007 1.3662 0.1843-0.0246 0 0zm-53.13 0.6296c-1.0659 2.1324-2.0196 0.6582 0 0zm47.904 1.0354c2.0396 1.5678 3.1485 5.4102 0.93206 1.4021-0.28502-0.48415-0.6612-0.90954-0.93206-1.4021zm6.6915 0.24126c0.29552 1.157 0.78834 0.73205 0 0zm-55.85 0.6222c-0.0695 0.93185 1.4917 0.5061-0.17439 0.96974-0.81261 0.02764-1.1602 0.28707 0.17439-0.96974zm54.452 0.10322c0.77033 0.63947 0.45453 1.5777 0 0zm5.5376 0.13728c0.43452 1.1021 0.59659 0.62381-4.1e-4 2.1e-5zm0.4791 0.89923c0.0596 0.56105 1.1959 1.5621 0 0zm-4.3497 0.5463c1.0339 1.4919 3.2345 7.7234 0.96823 2.799-0.4265-0.96453-0.56435-1.8392-0.96823-2.799zm-3.7982 1.9305c1.1726 1.5328 3.1184 7.8165 1.5216 4.0207-0.51474-1.3373-0.97233-2.6969-1.5216-4.0207zm-1.0331 0.63307c1.0202 1.1856-0.21077 0.38462 0 0zm5.3993 0.13991c1.0284 1.9572 1.567 4.6401 0.25824 1.0295-0.59178-1.249 0.53423 0.6314-0.25824-1.0295zm-4.9484 0.80726c1.3003 1.5309-0.92995 2.8573 0 0zm7.4407 0.24852c-0.30905 0.70231 2.0252 7.596 1.4053 3.8306-0.15619-1.4331-0.83899-1.9337-1.4053-3.8306zm-7.5186 1.8057c1.5493 1.1982-0.22983 1.0883 0 0zm6.7302 0.90253 0.0739 0.25206zm-60.425 0.24778c0.1685 2.0248-1.4168 3.2814 0 0zm51.874 0.5225c0.21126 1.4873 0.75757 1.2924 0 0zm8.2747 0.01392c0.42989 0.76287 0.37144 1.5882 0 0zm-5.8028 2.8309c0.45688 0.82567 0.17075 1.2981 0 0zm-55.895 0.0448c0.40833 3.0073-1.8726 2.3117 0 0zm64.619 0.14874c-0.32103 0.40076 0.95306 1.667 0 0zm-76.525 0.16092c9e-3 0.71177-0.0624-0.11779 0 0zm79.913 0.79853c-3e-3 1.971 1.0474 5.3988 0.8797 8.7837-0.20132 0.9541-0.57435-3.7401-0.47918-0.10343 0.62696 4.4743 0.94878-4.0685 0.57264-5.625-0.67935-0.06731 0.0432-2.0424-0.97316-3.0553zm-11.554 0.14701c0.34763 1.0193-0.13005 3.9675-0.27723 0.9729l0.1228-0.6592 0.15475-0.31369zm-69.923 0.1676c-0.40792 3.1321-0.3271 3.2588-0.77813 6.5874-0.0402 3.0672 0.13993 7.9473 1.2174 9.8997 0.42294-2.0858-0.69779-5.5789-0.98945-5.999-0.24335-1.5052-0.013-5.8247 0.2937-1.7803 0.33419 3.9219 0.18346-3.6015 0.39371-4.468 0.26754-2.9234 0.18634-1.6436-0.1372-4.2398zm67.992 0.16084c2.4e-4 1.8075 0.48203 1.7607 0 0zm2.9058 0.87887c0.41341 0.76652-0.84024 0.73766 0 0zm2.0137 0.25165c0.46553 1.5481-0.4226 1.76 0 0zm-4.1211 1.8191c-0.3491 0.37874 0.0511 0.89181 0 0zm8.5168 0.08427c1.002 2.0169-0.24301 3.9518 0.0277 0.68986zm1.7027 0.16298c-0.0598 0.19776 0.20383 1.5026 0 0zm-5.9133 1.0564c4e-3 1.1092-0.17436 0.0536 0 0zm-69.836 0.14378c-0.51723 0.87917 0.33463 1.5442 0 0zm78.714 0.0178c-0.0667 0.30646 0.23824 0.30478 0 0zm-9.2589 0.0063c0.59242 0.62604-0.18971 1.1303 0 0zm-3.6141 0.11932c-1.0143 0.54741-0.44258 1.2187 0 0zm0.46268 3.9c-0.76261 2.1608 1.3993-0.22322 0 0zm-56.632 0.08008c0.95559 2.0525-0.54007 3.5262 0 0zm-8.8234 1.4405c0.81242 5.958 2.9441 11.732 6.3346 16.708-3.5994-4.796-5.6679-10.787-6.3346-16.708zm77.978 0.93243c-0.27197 0.25726 0.1444 0.94169 0 0zm-9.9373 1.7685c-0.0912 1.8253-0.64493 0.9904 0-4.2e-5zm5.0498 0.27531c-0.44328 1.2338 0.21591 0.90986 0 0zm-9.2396 0.01057c-0.49117 0.73997-0.29885 1.9581 0.0248 0.4735l-0.0248-0.47346zm-53.352 0.19232c-0.033 1.0436 0.7556 2.3895 0 0zm-8.3914 2.3331c1.1989 3.987 3.2572 7.6058 5.3928 11.151-2.4028-3.3786-4.2737-7.1557-5.3928-11.151zm62.255 8.48e-4c-0.99615 1.4044-1.6675 4.568-0.35411 1.1194 0.0575-0.39108 0.32584-0.72256 0.35411-1.1194zm5.2388 0.37748c-2.5558 8.3102-8.4262 15.539-16.038 19.75 7.2299-4.1742 12.789-10.978 15.572-18.838l0.40514-0.81829 0.0604-0.09421zm-57.846 0.71068c-0.0425 0.18946 0.52432 0.86546 0 0zm62.239 0.23715c-0.84436 3.4333-1.3637 7.724-3.5161 10.292-0.74327 2.3454-4.5122 6.1734-2.3151 1.9151-0.55312 2.0752-2.296 2.1997-0.49325 0.25912 0.75934-0.87758 2.0808-3.2664 2.1526-2.0134 0.46089-1.4214 3.1808-4.3131 2.3563-4.9982-0.87096 1.2744 0.67963-2.0539 0.0791-1.6542 0.0567-1.7146 1.3951-5.2098 0.71382-1.5803 0.39052-0.71764 0.57711-1.5305 1.0226-2.2203zm-9.0737 0.24686c0.16049 0.15861-0.0886 0.12445 0 0zm0.6386 0.05768c-0.0764 0.23273-0.42306 0.14682 0 0zm-0.53141 0.25378c0.19491 0.62973-0.71184 2.2104 0.48475 0.48683-1.1033 1.3934-0.70762 3.4362-2.1029 3.5289 0.74383-1.2542 1.2438-2.6152 1.6182-4.0157zm-68.041 1.1397c0.0155 0.91992 0.35264 0.50172-1e-5 -1.1e-5zm16.333 0.3235c-0.17674 0.30401 0.18605 0.19297 0 0zm62.912 0.0073c-0.78123 2.4546 0.43382 2.0019 0 0zm-9.7395 0.10753-0.041 0.09369zm6.2244 0.339c-0.23411 0.28302-0.066 0.78912 0 0zm-75.478 0.01047c-0.0495 1.1889 0.59383 0.43179 0 0zm0.12369 0.75684c-0.63703 1.2261 1.1688 2.23 0 0zm16.69 1.2118c0.90258 1.0566 1.3919 2.9532 0.0324 1.1441 0.0951-0.37868 6e-3 -0.76374-0.0324-1.1441zm-0.96671 0.30315c0.88439 0.58036-0.2562 0.20831 0 0zm0.32994 0.45929c0.95522 0.57969 0.0574 0.65618 0 0zm47.028 1.3031c-0.38529 0.16016-0.34375 0.38484 0 0zm-0.49317 0.23279c-1.4617 0.31565-1.0988 1.3145 0 0zm-49.218 0.11222c0.90618 1.0709 3.0196 4.0645 0.90578 1.2582l-0.47459-0.64595zm57.585 1.7831c-0.41705 0.28456-0.47784 1.2177 0 0zm-69.034 0.02617c0.54337 1.4129 0.29477 0.15556 0 0zm69.401 0.34707c-0.12131 0.1661 0.0809 0.24743 0 0zm-9.9217 1.1883c-0.22611 0.70396-0.44505 0.34404 5.1e-4 2.1e-5zm-58.059 0.30026c-0.99297 0.33912 2.4638 2.4593 0.0214 0.0021zm16.819 0.18879c1.4369 1.3479-0.48003 0.88461 0 0zm41.565 1.4459c-1.3582 1.2762-4.1668 4.0892-3.598 2.3892-3.8274 1.6467 1.5447-1.6376 3.598-2.3892zm9.7449 0.02334c-1.1204 0.9317-0.51913 1.0548 0 0zm-67.421 0.02711c0.9029 1.9014 1.7257 2.1851 0.51569 0.52116l-0.47883-0.49755-0.037-0.02366zm-4e-3 0.0042c2.1e-4 -1e-3 -3.3e-4 4.92e-4 0 0zm9.3248 1.7464c1.6967 1.722 6.5314 5.277 6.7955 5.626-2.4644-1.5749-4.907-3.4617-6.7955-5.626zm40.792 1.1856c-3.8663 1.3046 2.1567 0.4164 0 0zm-25.696 1.011c1.0577 1.5489 6.1776 2.0671 1.693 0.6533-0.56278-0.22162-1.1205-0.45712-1.693-0.6533zm19.813 0.43161c-1.8342 0.14492 1.5145 0.12778 0.63188 0.48298 1.9744-0.24508-0.38769-0.37311-0.63188-0.48298zm4.0349 0.32268c-0.36162 1.127-1.4865 0.15958 0 0zm-34.663 0.49415c2.3869 1.9795 7.043 4.0175 8.6845 4.8902-3.1114-1.1736-6.1156-2.8033-8.6845-4.8902zm19.711 0.14781c0.26286 0.84738 1.9734-0.07108 0 0zm-4.7778 0.27052c-0.27042 0.03329 0.52922 0.15096 0 0zm-0.16555 0.28683c-0.7384 0.4817 1.6957 0.64414 0 0zm4.411 0.11083c-0.0296 0.35961 1.1701 0.43763 0 0zm2.1669 0.17979c-2.446 0.06742 2.0884 0.17314 0 0zm-7.6169 0.08584c0.0797 0.28553 1.8214 0.61049 0 0zm15.639 0.08061c-1.0631 0.19291 2.3057 0.02879 0 0zm19.295 3.71c-0.41667 0.17413-0.96622 1.231 0 0zm-39.476 0.03664c0.94713 0.17531 0.6371 0.39854 0 0zm1.14 4.479c1.3864 0.59753 1.8974 0.2886 0 0zm17.736 0.72661c-0.39613 0.0042-0.49207 0.27136 0 0zm-0.37904 0.24299c-2.31 0.22059-3.7718 1.541-0.83521 0.4209-0.89705 0.31001 1.4935-0.36976 0.83521-0.4209zm0.10175 0.41743c-1.325 0.29975-1.1404 0.59083 0 0zm3.4585 0.45179c-1.8194 0.72418 1.5232-0.03025 1e-5 3.1e-5zm-1.7626 0.62978c-1.0555 0.14999 0.74035 0.06312 0 0zm0.88975 0.0358c-1.246 0.20775-1.2655 0.60518 1.7e-4 0zm-1.9834 0.93473c-2.3003 0.51025 0.41086 0.52562-2.6331 0.98126 0.95391 0.21401 1.4224-0.11478-0.2817 0.55882 1.6567 0.35743 8.2253-2.1584 3.2439-0.89258-3.4896 0.28212 4.5016-0.87088-0.18894-0.33869-1.7961 0.06585-0.45534-0.0692-0.14014-0.3088zm-1.7199 0.01298c-1.7088 0.42935-6.3989 0.16333-4.9862 1.0625-3.1073 0.43391 3.5905 0.90684 1.4714-0.01738 2.2701-0.37124 2.3941-0.44044 2.8306-0.78264-0.8695 0.60671 1.1989-0.30156 0.68416-0.26245zm-10.527 0.11594c1.5109 0.57015-3.9598-0.31847-0.35511 0.32672 1.7988 1.0752 7.0039-0.24296 2.5492-0.06553-0.9232 0.31374-1.1995-0.54467-2.1941-0.26116z" fill="#00b0ff" stroke-width=".050749"/>
  <g transform="matrix(2.4553 0 0 2.4553 46.788 -564.06)">
   <path d="m62.835 222.36c-0.19359-0.31582-0.20887-0.55015-0.0458-0.703 0.0611-0.0611 0.13753-0.0866 0.22924-0.0764 0.31582 0.0612 0.85071 0.29039 1.6047 0.68772 0.46865 0.22416 0.79977 0.50434 0.99337 0.84053 0.30563 0.65208 0.30054 1.1106-0.0153 1.3754-0.12228 0.1019-0.25982 0.14775-0.41263 0.13754-0.48905-0.0611-1.2736-0.81504-2.3535-2.2618m7.0147-2.1854c-0.1019-0.26487-0.0306-0.4126 0.21396-0.44319 0.25468-0.0611 0.61127 0.0153 1.0698 0.22923 0.8558 0.377 1.2888 0.75396 1.299 1.1309-3e-5 0.1936-0.12229 0.35661-0.36678 0.48904-0.29549 0.16304-0.79472 0.53492-1.4977 1.1156-0.85584 0.7132-1.7728 1.3958-2.7508 2.0478-0.23436 0.0815-0.34134 0.0357-0.32094-0.13754-2e-5 -0.0509 0.0204-0.12224 0.0611-0.21395 1.1513-1.5792 1.8441-2.6184 2.0784-3.1176 0.20374-0.44826 0.27506-0.81504 0.21395-1.1003m-5.8532 19.959c-0.1019 0.63168-0.28019 0.95771-0.53488 0.97808-0.11209 0.0102-0.22417-0.0509-0.33622-0.18339-0.33623-0.37697-0.52981-0.84563-0.58074-1.406-0.0611-0.62149-5e-3 -1.4671 0.16811-2.5369 0.24451-3.2603 0.15281-5.3285-0.27508-6.2047-0.15284-0.20375-0.22926-0.41771-0.22924-0.64186-0.0102-0.11206 0.0203-0.18848 0.0917-0.22924 0.29545-0.13243 0.68261-0.0509 1.1615 0.24452 0.12224 0.0815 0.21903 0.15793 0.29036 0.22924 0.20375-0.0509 0.5145-0.0968 0.93224-0.13755 0.71317-1.8033 1.0698-2.812 1.0698-3.0259-0.64188 0.11209-1.7218 0.36171-3.2399 0.74885-0.73358 0.1834-1.2634 0.21397-1.5894 0.0917-0.22416-0.0815-0.46358-0.23941-0.71828-0.47376-0.28529-0.30563-0.24453-0.47373 0.12226-0.50432 6.0417-0.97806 10.362-1.7677 12.96-2.3688 0.60108-0.15281 1.406 0.0866 2.4146 0.71828 0.31581 0.25473 0.42788 0.48396 0.33621 0.68771-0.13247 0.18341-0.74377 0.27511-1.8339 0.27509-2.9852 0.0917-5.4202 0.30057-7.305 0.62658 0.75392 0.65207 0.90165 1.1462 0.4432 1.4824-0.20379 0.17321-0.47378 0.45339-0.80998 0.84053-0.16303 0.18341-0.3617 0.39227-0.59601 0.62659-0.0204 1e-5 -0.0306 0.0102-0.0306 0.0306 1.518-0.3362 2.8222-0.73354 3.9123-1.192 0.50939-0.23432 1.248-0.0204 2.216 0.64186 0.38714 0.25472 0.64694 0.46868 0.77941 0.64187 0.16299 0.15284 0.17318 0.35151 0.0306 0.59602-0.23436 0.41773-0.3719 0.70301-0.41263 0.85582-0.0612 0.22416-0.0866 0.45849-0.0764 0.70299 0.12223 2.6082 0.26487 4.8344 0.42791 6.6785 0.0713 1.1309-0.12738 2.0988-0.59602 2.9037-0.25473 0.42791-0.50435 0.64696-0.74885 0.65715-0.16303 0.0102-0.32604-0.0968-0.48904-0.32094l-1.0851-1.6047c-0.21397-0.30565-0.4483-0.62148-0.70299-0.94752-3.2501 0.13245-4.9719 0.30566-5.1655 0.51961m5.1655-1.6811c0.45845 0.29547 0.72844 0.53489 0.80997 0.71828 0.37695 0.18339 0.60619 0.0815 0.68772-0.30565 0.11204-0.3464 0.1528-1.0494 0.12226-2.109 0.0611-3.9429-0.0917-6.0672-0.45848-6.3728-0.23435-0.163-0.60113-0.20885-1.1003-0.13755-3.189 0.67245-4.8497 1.0087-4.9821 1.0086-0.0611 0.6215-0.0917 1.2277-0.0917 1.8186 0.46865-0.0203 1.3907-0.15281 2.7661-0.39734 1.0494-0.19357 1.7269-0.19357 2.0326 0 0.12224 0.0713 0.21394 0.17321 0.27509 0.30565 0.0713 0.12227 0.0407 0.24453-0.0917 0.36678-1.0698 0.32604-2.3026 0.49923-3.6984 0.5196-0.60113 0.0102-1.0392-0.0255-1.3143-0.10698-0.0204 0.7132-0.0306 1.3907-0.0306 2.0326 0.40752-0.0815 0.88637-0.12225 1.4366-0.12226 1.5588-0.31583 2.542-0.433 2.9495-0.3515 0.45846 0.17321 0.74883 0.3617 0.87111 0.56546 0.0407 0.13245-0.0102 0.27-0.15283 0.41262-0.0815 0.0407-0.33114 0.0917-0.74884 0.15283-1.1513 0.13246-2.0682 0.24453-2.7509 0.33621-0.58075 0.11208-1.08 0.1019-1.4977-0.0306-0.051-0.0204-0.0866-0.0204-0.10698 0v2.3535c0.67242-0.10188 1.8339-0.32603 3.4844-0.67243 0.70297-0.15282 1.1971-0.16301 1.4824-0.0306 0.0407 0.0102 0.0764 0.0255 0.10698 0.0458m-15.145-14.839c-0.0407-0.26487-1e-5 -0.44317 0.12226-0.53488 0.23432-0.11205 0.78449-0.0153 1.6505 0.29036 1.1411 0.38718 1.8441 0.82018 2.109 1.299 0.0306 0.0408 0.0509 0.0866 0.0611 0.13754 0.14263 0.67245 0.17319 1.1615 0.0917 1.4671-0.15283 0.29548-0.33113 0.44322-0.53489 0.4432-0.37697 2e-5 -0.703-0.13753-0.97808-0.41263-0.53999-0.61128-1.2175-1.2837-2.0326-2.0173-0.28529-0.25468-0.4483-0.47882-0.48904-0.67243m1.8645 16.933c0.3464-0.87619-0.0459-2.2109-1.1768-4.004-0.37698-0.53997-0.49414-1.029-0.3515-1.4671 0.12226-0.26489 0.38715-0.6928 0.79469-1.2837 0.26489-0.38715 0.35149-0.70299 0.25981-0.94752-0.0306-0.0917-0.0917-0.19357-0.18339-0.30565-0.19359-0.17319-0.3566-0.21395-0.48905-0.12226-1.2939 0.56037-2.3178 0.65207-3.0718 0.27508-0.17321-0.11206-0.24453-0.20375-0.21396-0.27508 0.0611-0.11206 0.16301-0.1681 0.30565-0.16811 0.36678 0.0306 1.2735-0.33111 2.7203-1.0851 0.77431-0.65204 1.3805-0.82014 1.8186-0.50432 0.72337 0.34641 1.2888 0.69282 1.6964 1.0392 0.37696 0.33623 0.33621 0.68772-0.12226 1.0545-1.8645 1.4977-2.4401 2.7203-1.7269 3.6678 1.1818 1.3856 1.5231 2.5369 1.0239 3.4538-0.15284 0.29547-0.39226 0.53998-0.71828 0.73356 0.70298-0.10188 2.0937 0.25471 4.1721 1.0698 4.8904 1.7524 10.754 2.4605 17.59 2.1243 0.36675 0.0102 0.56543 0.0611 0.59602 0.15282 0.0305 0.13245-0.0255 0.22924-0.16811 0.29037-1.732 0.95771-3.5456 1.783-5.4406 2.4758-1.0087 0.39734-1.9358 0.46866-2.7814 0.21396-0.71321-0.24452-2.0122-0.7896-3.897-1.6352-2.7203-1.243-5.5221-2.328-8.4054-3.2552-1.4671-0.49923-2.8222-0.51451-4.0652-0.0458-0.30565 0.11207-0.52471 0.22414-0.65715 0.33621-0.68262 0.34641-1.2277 0.39735-1.6352 0.15283-0.86601-0.63168-1.3041-1.0494-1.3143-1.2532-0.0204-0.25471 0.12736-0.36678 0.4432-0.33622 0.53998 0.0102 1.2583-0.0611 2.1548-0.21395 0.87619-0.16301 1.8237-0.20886 2.8426-0.13754" fill="#00b0ff" stroke="#00b0ff" stroke-width=".48904"/>
  </g>
 </g>
</svg>
