<?xml version='1.0' encoding='utf-8'?>
<svg xmlns="http://www.w3.org/2000/svg" version="1.1" width="1080px" height="2132px" viewBox="0 0 1080 2132"> <g id="layer1"> <g style="fill:rgb(255,255,255); fill-opacity:1.0; stroke-linejoin: miter"> <path d="M-302.001,391.0185C-302.26105,391.0185,-302.51044,391.12183,-302.6943,391.3057C-302.87817,391.48956,-302.9815,391.73895,-302.9815,391.999L-302.9805,1475.0C-302.9805,1475.5415,-302.5415,1475.9805,-302.0,1475.9805L1213.001,1475.9814C1213.261,1475.9814,1213.5105,1475.8782,1213.6943,1475.6943C1213.8782,1475.5105,1213.9814,1475.261,1213.9814,1475.001L1213.9805,392.0C1213.9805,391.4585,1213.5415,391.0195,1213.0,391.0195L-302.001,391.0185 Z"/> </g> <g style="fill:rgb(0,0,0); fill-opacity:1.0; stroke-linejoin: miter"> <path d="M968.7458,1395.1493L990.3766,1403.4727Q977.22815,1398.286,968.7458,1395.1493"/> </g> <g style="fill:rgb(165,179,188); fill-opacity:1.0; stroke-linejoin: miter"> <path d="M1127.5308,913.00366L1122.631,973.91516Q1083.3284,1158.4347,878.58374,1272.3225Q672.40686,1386.1465,389.9529,1370.4121Q120.221405,1346.1704,-43.7209,1207.9675Q-96.25703,1163.2859,-130.70447,1110.1008L-159.83804,1055.3093Q-184.0536,998.652,-185.42987,936.60986Q-181.81369,746.07153,1.152008,616.30237Q184.11777,486.53317,462.99405,476.7126Q742.0431,476.50208,929.5553,599.6103Q1117.0675,722.7185,1127.5308,913.00366"/> </g> <g style="fill:rgb(57,68,88); fill-opacity:1.0; stroke-linejoin: miter"> <path d="M1095.8893,913.89343L1091.2258,971.86914Q1053.8176,1147.4955,858.9412,1255.8939Q662.70166,1364.2318,393.86163,1349.2559Q137.1309,1326.1825,-18.909622,1194.6407Q-68.91358,1152.1128,-101.70071,1101.4908L-129.43008,1049.3403Q-152.47849,995.4137,-153.78844,936.3618Q-150.34656,755.00696,23.800446,631.4924Q197.94746,507.97784,463.38232,498.6306Q728.9816,498.43024,907.45605,615.60486Q1085.9305,732.77954,1095.8893,913.89343"/> </g> <g> <g style="fill:rgb(255,255,255); fill-opacity:1.0; stroke-linejoin: miter"> <path d="M568.3462,735.8543L568.49603,735.85547Q569.38226,735.88446,569.1965,736.0245L567.17126,736.49225L550.13446,739.25397Q546.63605,740.24835,545.3297,742.14984Q544.28394,744.1769,546.043,746.03845Q546.93726,746.91766,548.63165,747.73364L554.5121,750.31213Q554.48553,750.452,553.81036,750.81525L550.68054,752.34814Q549.10004,753.3722,548.9163,753.63794Q547.398,755.0424,546.8864,756.8866Q546.2797,759.53284,547.0082,761.5216Q547.0806,762.42444,549.97626,765.7338Q546.8214,766.9556,545.2822,767.20154Q542.44855,767.76984,539.2963,768.0422Q537.5117,768.27625,536.36365,768.6713Q535.21533,769.06604,534.683,769.6879L534.2994,770.38275L534.2136,771.2243Q534.2765,772.13885,534.91425,773.41254Q535.73816,775.1275,540.5864,781.8735Q542.37506,784.829,542.37885,785.4077Q543.26166,791.99207,538.26117,793.9262Q537.96124,793.8663,538.1791,793.5355Q539.6759,792.0909,540.21356,790.5707Q540.4946,788.5311,540.1534,788.0016Q539.6189,786.14734,537.71747,783.7198Q530.9887,776.27454,530.8126,775.2943Q529.4838,773.30145,529.6148,770.12695Q530.9896,765.692,534.86633,764.0736Q541.6561,763.11035,547.3115,764.8834Q544.6175,761.93854,544.42706,758.3916Q544.2613,756.5263,544.6124,754.7682Q544.53955,754.555,545.59924,751.84296Q545.77344,751.0869,545.6887,751.0067Q545.73694,750.89716,545.2996,750.27673Q543.46606,748.47833,542.7784,747.386Q541.9695,746.1209,541.8137,744.85065Q541.52997,743.0968,542.9043,740.6866Q544.38806,738.0937,547.1414,737.8316Q551.1739,736.9439,568.3462,735.8543 Z"/> </g> <g style="fill:rgb(255,255,255); fill-opacity:1.0; stroke-linejoin: miter"> <path d="M611.88934,795.8966L611.9761,795.9278Q612.39716,796.08905,617.4034,800.7413Q619.1111,802.1761,621.0081,803.3521Q624.8054,805.70447,629.3191,807.0157Q633.83295,808.32697,639.0094,808.5905Q641.3726,808.7335,644.78455,808.5673Q646.32007,808.5164,652.0887,807.8709Q652.9446,807.82764,653.07764,808.1421Q653.17865,808.65295,652.7697,809.39215L652.17596,810.0318Q651.4263,810.6503,650.12366,811.171Q647.48267,812.21906,643.0638,812.7986Q635.8092,813.6508,628.3202,813.2938Q622.12054,813.16364,619.068,811.985Q615.66125,810.5526,612.60754,807.89496Q607.27094,802.7397,604.53284,798.58887Q604.2113,798.1403,604.6657,798.0154Q604.78357,797.8799,607.1853,797.6648Q607.81006,797.5566,608.45013,797.36615L609.3437,797.0485L611.88934,795.8966 Z"/> </g> <g style="fill:rgb(255,255,255); fill-opacity:1.0; stroke-linejoin: miter"> <path d="M466.86035,859.9646L466.98077,860.01044L481.88657,868.242Q487.9181,871.12494,489.6802,871.2672Q493.86026,872.0646,498.11264,871.75385Q500.95676,871.58386,502.063,871.4277Q502.2553,871.48517,507.2494,870.5486Q508.14075,870.40027,508.46255,870.44556Q508.3032,871.21735,504.03894,873.0825Q502.0306,874.0528,497.53137,875.15936Q510.9009,879.6106,515.8446,874.70593Q523.4769,878.73694,524.4839,878.873Q527.06506,879.82495,530.81274,879.9785Q525.9958,884.99554,524.61084,885.6752Q522.99304,886.8702,520.4497,887.03314Q510.6534,887.73737,498.4386,883.43726Q489.30545,880.1386,477.76468,872.54596Q473.79263,869.5251,473.7188,869.1495Q468.43332,862.75055,466.86035,859.9646 Z"/> </g> <g style="fill:rgb(255,255,255); fill-opacity:1.0; stroke-linejoin: miter"> <path d="M715.4524,580.5164L714.4401,580.53186Q707.1334,578.7612,704.98553,586.9588Q703.69745,588.6997,702.5729,621.34265Q702.5189,623.74396,701.57526,623.8107Q700.44183,623.9,700.1026,623.0553Q697.0316,613.2667,695.3891,611.87317Q691.687,607.4586,684.8014,604.7136Q678.8838,606.96045,677.8884,606.9586L668.65485,605.6169Q665.1977,606.3182,662.7541,608.3931Q659.1306,606.88525,657.61066,607.12225Q653.84045,607.7238,650.5131,610.1949Q646.32446,609.10864,644.0499,609.9017Q637.7138,611.4242,636.55255,623.9906Q632.68665,624.11554,630.59454,623.67804Q627.37354,589.4221,626.4819,590.0629Q623.96747,581.5238,620.3124,581.7499Q613.6113,581.1732,610.2615,582.7748Q608.0804,583.97363,604.35944,592.6172Q601.01025,592.33966,599.3177,593.3222Q595.7769,595.35364,594.6745,599.1283Q581.7554,601.0028,582.58386,604.5485Q579.44025,608.3272,580.33386,631.94775Q580.98364,642.7331,583.5975,658.20844Q583.9176,661.3624,586.1684,663.40063Q589.61005,667.0206,597.8136,666.4237Q600.82416,673.2256,607.21643,672.37115Q608.71576,677.3469,613.02264,679.7611Q618.3962,681.5709,623.97906,680.0795Q630.4907,672.67114,631.05286,640.48926L634.399,640.8057Q635.6229,648.96344,639.45276,651.12036Q660.65643,656.5788,662.80316,660.95715Q669.87756,668.882,674.2307,686.3323Q682.1327,718.8339,668.5227,749.7211L667.5089,750.73016Q665.21844,747.64777,643.27014,745.7718Q632.16846,744.7536,631.5617,746.6565Q626.326,749.8792,624.7715,759.25433Q622.6612,766.0002,630.0392,776.57025Q629.93427,778.3718,625.28296,781.11176Q623.8734,778.1447,628.5596,775.88135Q618.9988,768.46643,619.9906,760.0156Q620.211,752.9117,629.78076,745.6146Q628.0816,744.7681,606.9346,749.2325Q602.42163,749.69214,599.3549,748.9853L584.96454,742.5693Q575.6711,735.8419,561.4291,729.0506Q555.87024,726.6381,547.00134,727.1204Q535.7702,728.09656,523.4774,733.9053L529.15656,739.8287Q530.6377,749.82294,529.8049,752.56836Q523.39014,737.37445,520.4336,735.59454Q496.7144,725.6601,492.77737,719.31134Q487.763,714.52747,486.24112,705.35156Q481.27402,700.5866,479.36017,695.2945Q476.08276,686.58325,476.31842,679.8852Q476.24216,677.24866,476.62057,678.3563Q482.01312,697.2689,486.54846,702.9217L489.44498,675.7683Q491.20093,672.72943,491.29767,678.19104Q492.3013,678.4262,493.50616,677.34265Q495.98425,674.97595,497.62573,668.5731Q499.4636,660.8061,498.60876,651.4362Q499.3898,645.1781,492.35187,650.51746Q495.76028,633.83777,490.99985,622.20276Q480.3606,590.7837,449.5896,595.18286L449.59302,960.8853L516.50836,960.7501Q529.4742,960.5921,527.8644,959.9785Q524.067,916.10443,527.0786,906.59625Q528.5136,898.8827,531.80554,891.3534L543.9695,867.1345Q547.3689,859.50745,548.8421,853.33093Q537.0395,856.13995,521.2734,844.88293Q508.78574,836.3439,509.32852,823.2959Q513.62146,824.295,519.2039,836.7043Q519.599,837.6534,524.96924,841.17065Q535.83234,847.7283,540.1763,847.48376Q541.50085,848.66974,540.2808,840.40405Q543.3852,845.9459,550.4866,849.81573Q573.79193,816.16046,578.0267,812.08466Q638.84937,825.75665,651.9117,821.3023Q699.15344,814.05536,728.89844,794.9775Q730.25006,790.9949,729.3039,791.38965Q713.56683,798.91895,705.6093,795.04614L716.5821,794.19214Q730.01276,788.38446,730.3291,789.66113Q730.0925,773.0127,729.36993,774.879Q709.03046,779.23505,708.9941,772.69696Q705.0684,764.7237,706.17255,751.9362Q706.5875,751.12946,706.78754,752.32983Q707.5606,758.64374,708.5237,762.1279Q708.9601,764.1669,710.81915,767.2847Q714.42664,772.6364,719.26605,771.4515Q721.99316,771.6079,730.3291,765.6204L729.8275,748.92175Q729.1138,735.54614,726.3036,726.4425L708.3549,687.40717L698.5642,657.89154Q696.9729,650.71704,697.26996,644.36194Q697.4834,640.8288,700.0574,643.07544L700.5769,639.9254Q702.82745,639.36224,702.95526,640.3906Q706.4378,674.78735,713.32,679.66736Q721.24426,679.77277,723.3517,678.4365Q727.12573,676.8526,729.12476,670.7692Q736.0304,669.9606,738.1605,663.86786Q746.17163,664.664,750.8443,658.2383Q753.7083,645.4436,752.94617,619.60333Q751.4975,601.7623,747.67426,599.2705Q746.7652,597.3267,736.9329,596.7617Q734.9855,592.85516,731.98486,590.9605Q731.68646,590.4807,726.5872,590.9359Q722.12555,578.969,715.4524,580.5164 Z M640.9463,642.29254L641.07837,642.3089Q641.53235,642.4068,642.5112,643.0584Q647.3746,646.8768,647.66504,646.78284Q647.8989,646.7687,648.51556,646.3718Q651.2369,644.2433,651.62317,644.251Q652.8045,643.78485,653.78595,644.2361Q654.2907,644.3439,655.46436,645.609Q655.84314,645.96594,657.4386,648.5261Q657.5882,648.7795,658.3103,649.5723Q659.176,650.4429,659.94745,650.5733Q661.5435,650.7841,662.1939,648.15924Q662.2654,647.5036,661.9935,646.9504Q661.8577,646.58136,660.822,645.6469Q660.61707,645.3712,660.54803,645.12524Q660.41907,644.62726,660.7268,644.3241Q662.2826,643.43164,664.1903,645.33466Q666.7749,648.0999,670.19604,653.14777Q673.61554,658.399,673.519,658.9726Q674.1381,661.31274,673.599,662.8016Q673.43414,663.78864,670.684,670.8793Q671.19586,662.29333,671.1082,662.4474Q670.94586,660.41797,670.6912,660.0643Q669.4464,657.0983,664.0654,649.8395Q663.5771,649.39276,663.3621,649.5728L662.4109,650.6729Q662.1922,650.9395,661.3354,651.1991Q660.23096,651.4712,658.7567,651.1339Q658.15424,650.9408,657.5513,650.4451Q654.0545,646.7204,653.39166,646.78284Q653.19305,646.72925,651.98486,647.3295Q649.1534,649.1448,648.90857,649.15393Q648.1591,649.52594,647.1519,649.242Q646.3619,649.19666,643.83875,646.475Q640.9404,643.146,641.12836,643.25244Q640.5035,642.40393,640.9463,642.29254 M689.2835,666.6027L689.30145,666.6048Q689.5464,666.63336,689.88043,668.5507Q691.06085,676.7685,691.1801,676.8089Q692.35565,681.9287,692.8053,682.9925Q694.1386,687.1171,696.475,692.1302L701.6498,702.4422Q702.5036,704.17395,703.13153,705.76324Q705.03326,711.20294,705.0716,713.84534Q705.4604,716.0191,705.08905,724.5403Q704.7449,730.2679,704.17444,730.26807Q700.08795,723.37695,695.57385,717.938Q696.59534,722.43353,696.73785,724.0199Q697.4243,728.9912,697.71423,734.7629Q698.23315,747.1611,697.1048,753.0903Q690.33777,736.8883,685.0709,726.15204Q683.979,723.67035,683.1135,721.038Q682.71155,719.9134,681.6408,718.9379Q681.961,718.55066,682.76215,719.11743L686.99347,722.7111Q686.4227,720.1204,686.16,714.88574Q685.99915,710.9568,686.33765,710.485Q686.65704,708.59485,690.1877,712.2681Q689.93286,708.09076,684.6838,699.0749Q683.3646,697.1179,683.4272,697.5132Q682.39136,700.53827,681.5018,698.87006Q681.0801,697.6358,681.0302,696.54736Q680.9903,690.3546,680.17865,687.7346Q680.1239,687.3067,680.3456,687.3047Q680.5772,687.37103,680.9349,688.341Q681.097,688.67847,681.51184,690.67017Q681.6532,691.1195,681.7214,691.12964Q681.6948,691.5976,682.9039,689.94666Q683.1858,689.898,683.32605,690.3637Q685.11176,696.9748,685.3286,697.237Q685.4901,698.1079,689.33105,706.50726Q691.29517,711.5294,692.2598,715.16956Q692.85455,717.42303,692.28546,717.0363Q692.2359,717.3223,688.09216,713.1187L687.9647,713.3663Q687.9054,713.86176,688.0405,715.0638Q689.1712,723.52783,691.41327,729.71136Q691.57574,730.50903,691.01624,731.3237Q690.94214,731.75415,691.1517,732.651L693.9072,740.678Q694.9061,743.7137,695.929,747.7356Q696.2737,748.8653,696.49915,749.21216Q697.1464,750.3048,696.21906,740.0003L695.4402,732.72974Q693.61725,719.942,693.59375,718.1101Q693.384,716.7304,693.703,713.4021Q697.90607,717.49554,698.9077,719.1328Q699.9969,720.3622,703.458,727.26697Q704.051,728.33234,704.10095,728.05853Q703.69037,717.00104,701.179,709.733Q700.9843,708.9224,699.3739,705.3596Q694.206,696.25134,693.10443,693.6548Q691.4961,690.6221,689.8139,684.1962Q689.5179,683.3416,688.88354,678.3635Q688.7814,677.81213,688.64825,674.4944Q688.63727,666.61487,689.2835,666.6027 M486.06647,734.1374L486.30753,734.1523Q486.88342,734.1324,488.30194,735.0822Q491.43054,737.80115,491.87604,738.0442Q492.62558,738.58466,493.24304,738.9298Q494.73065,739.5939,495.1788,739.93097Q495.72235,740.3183,495.50027,740.5168Q495.3689,741.03955,493.25406,742.13086Q492.77853,742.3532,492.2792,742.533Q489.61536,743.26953,489.1322,743.5138L488.2004,743.9415Q487.31677,744.3993,486.58768,745.02264L485.88742,745.6983Q485.49875,745.90857,484.0953,748.4011Q483.86426,748.5996,482.45065,752.65845Q482.41364,752.80695,481.97134,753.63196Q481.0062,755.37604,479.54132,756.41437Q478.27518,757.2317,477.11542,757.23816Q475.3822,757.3669,472.20615,757.2023Q466.67657,756.8369,465.41824,756.3959L465.4849,756.3199Q466.37668,756.31866,468.33173,755.7542Q470.1593,755.1601,472.1048,754.10425Q476.2262,751.76105,478.16052,749.3812Q480.55493,746.7166,481.87897,743.58405Q482.5161,742.61176,483.68106,736.96735Q484.1712,735.50745,484.30847,735.3874Q485.00275,734.13354,486.06647,734.1374 M666.21533,768.27637L666.27136,768.2967Q666.7401,768.49725,670.0832,771.3971L671.59546,772.5169Q673.8171,774.0626,675.43665,774.78015Q676.9872,775.41144,679.6152,776.0287L682.26245,776.58936Q686.0666,777.19403,689.2815,777.8502Q690.2025,778.0011,693.4832,778.9089Q697.9848,780.1522,700.9033,782.79956Q697.54565,784.20374,696.84424,784.37103Q694.09717,784.74243,689.85455,785.9746Q686.48566,786.85535,678.60895,789.6421Q677.9508,789.89276,674.5058,790.7275Q667.8147,792.32745,661.38556,791.6441Q669.2747,787.48193,673.3913,786.577Q674.0,786.3547,677.135,785.90283Q678.3994,785.7593,679.7189,785.714Q682.57275,785.7209,684.2274,785.5353Q685.44464,785.38293,685.4818,785.1242Q685.4641,784.86554,685.0424,784.71313Q685.2497,784.63763,682.74963,784.4034Q681.3886,784.08984,679.7847,783.2727Q676.4928,781.5712,673.2334,778.6569Q669.47076,774.99146,669.0971,774.189Q667.0214,771.23395,666.21533,768.27637 M592.9945,796.5442L593.0102,796.5454Q590.8453,799.41833,576.32806,807.57Q569.4705,810.9566,562.488,812.5441Q558.36786,813.33856,557.64087,813.3225Q556.57355,813.4564,553.6511,813.5043L552.1227,813.6589Q551.0914,813.80206,550.2243,814.02277L547.6845,814.8416Q547.188,814.9697,546.2369,814.9301Q545.0215,814.85156,542.9624,814.1787L533.1352,810.6387L536.77637,815.2099Q537.2132,815.6892,536.4881,815.7072L535.5423,815.59235Q534.3388,815.3573,532.4481,814.7693Q528.4952,813.5293,523.8526,811.6404Q519.21,809.7515,516.6244,808.2327Q514.63293,806.8699,515.09045,806.75085Q518.49023,806.9134,522.05994,808.17847Q523.7133,808.6084,530.37964,811.72327Q531.34644,812.1142,531.6093,812.1252Q531.8433,811.9207,527.9635,808.8232Q527.47095,808.3669,527.354,808.04645Q526.9181,807.1435,530.62836,806.9385Q538.0887,806.46136,543.0765,806.91016Q546.89716,807.36646,547.813,807.7956Q548.54926,808.0406,549.1143,808.3403Q550.08057,808.99713,551.1427,809.4532Q552.2494,809.9057,553.5947,810.15125Q556.77966,810.7856,561.94495,810.10345Q569.5641,809.0066,578.1897,805.16205Q581.9173,803.8811,592.9945,796.5442 M486.33334,776.24927L486.55014,776.2501Q490.48706,776.28876,492.6835,777.045Q494.34464,777.5134,500.93326,780.8718Q508.70074,780.87384,516.46814,780.87195Q511.32333,783.9806,505.51953,784.8359Q502.88293,785.2152,499.5226,784.7863Q498.30408,784.77185,491.82077,782.78296Q490.18018,782.38324,487.56665,782.3131Q481.9558,782.58466,480.54733,784.9214Q479.72787,785.78314,479.69064,788.4179Q479.5376,788.85065,480.31693,792.9909Q481.53857,797.6685,482.0807,798.9459Q483.4736,802.87146,486.45255,809.6891Q487.3165,812.00183,487.35437,812.3034Q488.32303,815.4667,488.00647,821.9773Q487.56982,821.60406,486.28693,817.187Q485.7957,815.9117,485.00864,814.4224L483.66467,812.0748Q479.17734,805.2958,478.475,803.8129Q476.93872,801.0448,475.86072,798.46674Q473.69995,793.29315,473.42908,789.0929Q473.12598,782.74786,476.82736,779.3915Q478.30237,777.9567,480.3078,777.1928Q481.62717,776.4473,486.33334,776.24927 M487.66626,823.3946L492.03183,832.1828Q496.6366,841.31805,499.0522,845.3766Q499.86392,846.9011,501.49048,852.03033Q501.70905,852.71106,501.99942,852.9226Q503.26724,853.9541,507.10098,854.8019Q509.97427,855.532,517.4258,856.0795Q518.4837,856.1686,518.822,856.5582Q518.0253,858.1611,514.9229,858.9585Q511.4969,859.8239,507.6014,859.9004Q504.23468,859.73004,503.2011,858.86847Q501.66803,857.989,499.89716,856.0459Q492.19925,847.0026,490.30917,842.22345Q489.14804,839.49176,488.05685,832.4369Q487.50262,828.3412,487.66626,823.3946 M484.8314,914.96063L484.964,914.98724Q485.865,915.16705,503.34482,920.26715L507.1248,921.30133Q507.43008,921.3744,507.71542,921.7392Q507.7977,922.03314,507.09897,922.2234Q506.128,922.4701,503.2011,922.389Q509.29877,924.64777,509.36362,924.76825Q510.64645,925.29297,511.18988,925.91Q511.24545,926.0593,511.04434,926.13727Q511.0163,926.2197,510.03265,926.2062Q507.51212,925.91876,504.2713,925.76166L491.6644,925.17285Q487.83923,924.90173,488.0423,924.84015Q486.84204,924.6122,488.7948,924.30084L489.96136,924.1345L494.5783,923.61505L495.46964,923.467Q497.0175,923.1613,496.6314,922.6857L496.31406,922.4314Q495.87436,922.16406,494.94028,921.8353Q493.31213,921.27057,488.72324,920.0511Q487.6951,919.7406,486.88083,919.4355Q485.26135,918.8304,484.38834,918.19666Q483.0467,917.0661,483.19598,916.4413Q483.46246,915.2284,484.8314,914.96063 Z"/> </g> </g> <g> <g style="fill:rgb(165,179,188); fill-opacity:1.0; stroke-linejoin: miter"> <path d="M339.34906,736.47296L339.19913,736.4742Q338.31287,736.50323,338.49866,736.6432L340.52386,737.1109L357.56085,739.8727Q361.05923,740.86707,362.36548,742.7686Q363.4113,744.7956,361.6522,746.6573Q360.75793,747.5364,359.0636,748.3524L353.18323,750.9309Q353.20978,751.07086,353.88483,751.434L357.01468,752.9669Q358.5952,753.99097,358.77896,754.2566Q360.2972,755.6612,360.80893,757.50543Q361.41537,760.1515,360.68698,762.1402Q360.61438,763.04315,357.71875,766.3525Q360.87372,767.5742,362.41293,767.8202Q365.24655,768.3884,368.39877,768.6608Q370.1833,768.8949,371.33145,769.29Q372.47974,769.6848,373.012,770.30664L373.3957,771.0015L373.4815,771.84296Q373.41858,772.75757,372.78082,774.0314Q371.957,775.7463,367.10864,782.4922Q365.32013,785.4477,365.31625,786.0264Q364.4335,792.6107,369.43393,794.54504Q369.73373,794.4851,369.51602,794.1543Q368.01926,792.7095,367.48157,791.1893Q367.20047,789.1499,367.54172,788.6203Q368.0762,786.7661,369.97757,784.3386Q376.7063,776.8933,376.88242,775.91315Q378.2112,773.9203,378.0802,770.7458Q376.70535,766.3107,372.8287,764.6924Q366.039,763.72894,360.38358,765.502Q363.0776,762.5572,363.2681,759.0103Q363.43387,757.145,363.0828,755.38696Q363.1557,755.1737,362.096,752.46173Q361.92188,751.7057,362.00656,751.6255Q361.95825,751.516,362.39548,750.8955Q364.2292,749.0971,364.9168,748.00476Q365.7258,746.73956,365.88156,745.4694Q366.16528,743.71545,364.79092,741.30524Q363.30707,738.7124,360.5538,738.4503Q356.5213,737.56256,339.34906,736.47296 Z"/> </g> <g style="fill:rgb(165,179,188); fill-opacity:1.0; stroke-linejoin: miter"> <path d="M295.80585,796.51526L295.71915,796.5464Q295.298,796.70764,290.29166,801.3599Q288.58405,802.79474,286.687,803.97076Q282.88968,806.32324,278.376,807.6344Q273.86215,808.94574,268.68567,809.2092Q266.3225,809.3523,262.91043,809.1861Q261.37494,809.13525,255.60637,808.4897Q254.75052,808.4465,254.61737,808.76086Q254.51634,809.2718,254.92526,810.011L255.51904,810.6507Q256.26883,811.2691,257.57147,811.7898Q260.2124,812.8379,264.6313,813.4174Q271.88583,814.26965,279.37497,813.9126Q285.57452,813.7824,288.6271,812.60376Q292.03397,811.1713,295.08755,808.5137Q300.42426,803.35834,303.16232,799.20746Q303.48383,798.7589,303.02942,798.6339Q302.9116,798.4985,300.5099,798.28345Q299.88513,798.17523,299.245,797.98474L298.3515,797.66705L295.80585,796.51526 Z"/> </g> <g style="fill:rgb(165,179,188); fill-opacity:1.0; stroke-linejoin: miter"> <path d="M440.83478,860.5833L440.71436,860.62915L425.8086,868.86066Q419.77704,871.7436,418.0149,871.8859Q413.83478,872.6834,409.5824,872.3726Q406.7383,872.20264,405.63202,872.0465Q405.4398,872.10394,400.44562,871.1674Q399.5543,871.0191,399.23254,871.0644Q399.39178,871.83624,403.656,873.7013Q405.6644,874.6716,410.16367,875.7782Q396.7941,880.2294,391.85043,875.32477Q384.21802,879.3557,383.2112,879.49176Q380.63,880.4437,376.88232,880.59735Q381.69925,885.6143,383.08417,886.2939Q384.70206,887.489,387.2453,887.6519Q397.04156,888.35614,409.25644,884.0561Q418.38962,880.75726,429.93045,873.1646Q433.90253,870.14374,433.9763,869.7681Q439.2618,863.36926,440.83478,860.5833 Z"/> </g> <g style="fill:rgb(165,179,188); fill-opacity:1.0; stroke-linejoin: miter"> <path d="M192.24263,581.1351L193.25494,581.1506Q200.56163,579.38,202.70956,587.5775Q203.99765,589.3184,205.12238,621.96124Q205.17625,624.3626,206.11996,624.4293Q207.2534,624.5187,207.59253,623.67395Q210.66344,613.8854,212.30597,612.4919Q216.0081,608.0773,222.89362,605.3323Q228.81131,607.5792,229.8067,607.5773L239.04025,606.23553Q242.4974,606.9369,244.94102,609.01184Q248.56447,607.50397,250.08458,607.74097Q253.85455,608.3426,257.182,610.8137Q261.37073,609.72736,263.6452,610.52057Q269.98138,612.04297,271.14264,624.6093Q275.00842,624.73425,277.10062,624.29675Q280.32172,590.0408,281.2134,590.68164Q283.72766,582.14246,287.38284,582.3685Q294.0838,581.7919,297.43372,583.3934Q299.6147,584.5923,303.3358,593.2359Q306.68497,592.95825,308.37738,593.94086Q311.91824,595.9724,313.0206,599.74695Q325.93976,601.62146,325.1113,605.1671Q328.255,608.9459,327.36124,632.56647Q326.71158,643.35175,324.09763,658.827Q323.7776,661.98114,321.5268,664.01917Q318.0851,667.6393,309.8816,667.04236Q306.87094,673.8443,300.47864,672.9898Q298.9794,677.9655,294.6725,680.3797Q289.29898,682.1897,283.71606,680.6983Q277.20438,673.2899,276.64233,641.10803L273.29626,641.4245Q272.0723,649.5822,268.24243,651.7391Q247.03871,657.1976,244.89203,661.5758Q237.81763,669.5008,233.46446,686.95105Q225.5624,719.45276,239.17252,750.33997L240.18631,751.349Q242.47679,748.26654,264.42505,746.3906Q275.52664,745.37244,276.1334,747.2754Q281.36917,750.498,282.92368,759.87317Q285.03403,766.6189,277.65594,777.18896Q277.76074,778.99054,282.41208,781.73047Q283.8217,778.76337,279.13556,776.5Q288.69635,769.0851,287.70453,760.6343Q287.4841,753.53046,277.91434,746.2334Q279.6136,745.3869,300.76056,749.8512Q305.27344,750.3108,308.34024,749.604L322.73074,743.188Q332.02402,736.4606,346.2661,729.6693Q351.82492,727.2568,360.69385,727.7391Q371.925,728.7153,384.2177,734.5241L378.53848,740.4474Q377.0574,750.4417,377.89017,753.18726Q384.305,737.9932,387.26154,736.2133Q410.98074,726.2788,414.9178,719.93005Q419.93213,715.1462,421.45407,705.9703Q426.4211,701.2052,428.33493,695.91315Q431.61234,687.20197,431.3767,680.5039Q431.453,677.8673,431.0746,678.975Q425.68204,697.8876,421.14667,703.5404L418.25018,676.387Q416.49426,673.3482,416.39746,678.80975Q415.39383,679.0449,414.18903,677.9614Q411.71088,675.59467,410.0694,669.19183Q408.23163,661.4248,409.08633,652.055Q408.30536,645.7968,415.3432,651.1363Q411.93478,634.45654,416.69525,622.82166Q427.33456,591.40234,458.10553,595.8016L458.10205,961.504L391.1867,961.3691Q378.22083,961.21094,379.83063,960.5974Q383.62808,916.7232,380.6164,907.2149Q379.18137,899.50146,375.88947,891.97217L363.72562,867.7533Q360.32617,860.12616,358.85297,853.9497Q370.65546,856.7587,386.42166,845.50165Q398.90927,836.9625,398.36646,823.9147Q394.0736,824.91364,388.49115,837.32306Q388.096,838.2721,382.7258,841.7894Q371.86273,848.34705,367.51886,848.1024Q366.1943,849.28845,367.41418,841.0226Q364.31,846.5647,357.20856,850.43445Q333.90323,816.7792,329.66864,812.7034Q268.8456,826.3754,255.78331,821.921Q208.5417,814.6741,178.79668,795.5962Q177.445,791.6135,178.39116,792.00836Q194.12822,799.5377,202.08588,795.66486L191.11307,794.81085Q177.6823,789.0033,177.36595,790.27985Q177.60258,773.6315,178.32506,775.4978Q198.66464,779.8538,198.70093,773.3157Q202.62662,765.34247,201.5226,752.55493Q201.10759,751.7482,200.90758,752.9486Q200.13434,759.2625,199.17133,762.7467Q198.73497,764.7856,196.87587,767.9035Q193.26842,773.2552,188.4291,772.07025Q185.70186,772.2267,177.36595,766.2392L177.86761,749.5406Q178.5813,736.165,181.39146,727.0613L199.34012,688.026L209.13098,658.51013Q210.7223,651.3357,210.42508,644.9806Q210.21179,641.4474,207.63782,643.69415L207.11836,640.5441Q204.86772,639.9809,204.7398,641.0093Q201.25728,675.4061,194.37505,680.28613Q186.45085,680.3915,184.34334,679.0552Q180.56932,677.4713,178.57037,671.388Q171.66463,670.5793,169.5345,664.4867Q161.52336,665.2828,156.85078,658.85706Q153.9867,646.06226,154.74875,620.222Q156.19753,602.38104,160.02098,599.88916Q160.92984,597.9454,170.76216,597.3804Q172.7095,593.4738,175.71025,591.57916Q176.0087,591.09937,181.10782,591.55457Q185.5696,579.5877,192.24263,581.1351 Z M266.74896,642.91125L266.61685,642.92773Q266.16278,643.0256,265.18396,643.67725Q260.32068,647.49554,260.0301,647.4017Q259.7963,647.38745,259.17963,646.9906Q256.45828,644.86206,256.07196,644.8698Q254.89069,644.4037,253.90929,644.85486Q253.40446,644.96265,252.23088,646.2277Q251.85214,646.5847,250.25656,649.1449Q250.10692,649.39825,249.3849,650.19116Q248.5192,651.0616,247.74774,651.1921Q246.1517,651.4029,245.50131,648.7781Q245.42987,648.1224,245.70168,647.5692Q245.83751,647.20026,246.8733,646.26575Q247.07814,645.9899,247.14719,645.744Q247.27612,645.24603,246.96844,644.94293Q245.41261,644.0505,243.50497,645.9534Q240.9203,648.7187,237.49919,653.7665Q234.07968,659.0177,234.17625,659.59143Q233.55713,661.93146,234.09613,663.4203Q234.26097,664.4074,237.01115,671.4981Q236.49931,662.9121,236.58688,663.0661Q236.74936,661.0368,237.004,660.683Q238.2488,657.717,243.62987,650.4582Q244.11813,650.01154,244.3331,650.1916L245.28445,651.2917Q245.50304,651.5583,246.35983,651.8178Q247.46423,652.08997,248.93858,651.75275Q249.541,651.5595,250.14383,651.0639Q253.64075,647.33923,254.3036,647.4017Q254.5021,647.348,255.71036,647.9483Q258.5418,649.7636,258.78656,649.7727Q259.53613,650.1448,260.54327,649.8608Q261.33337,649.8154,263.85645,647.0938Q266.75473,643.7649,266.56683,643.8712Q267.19183,643.0228,266.74896,642.91125 M218.41159,667.22144L218.39374,667.2236Q218.14871,667.25214,217.81477,669.16943Q216.63432,677.38715,216.51492,677.42755Q215.33946,682.5475,214.88982,683.61115Q213.55656,687.73596,211.22023,692.74884L206.04526,703.06085Q205.19156,704.79266,204.56364,706.3819Q202.66179,711.8217,202.62346,714.4641Q202.23476,716.63776,202.60608,725.15906Q202.95021,730.88666,203.52069,730.8867Q207.60725,723.9957,212.12122,718.55676Q211.09987,723.0523,210.95735,724.6386Q210.27077,729.60986,209.98094,735.38165Q209.46196,747.7797,210.59033,753.7089Q217.35747,737.5071,222.62433,726.7708Q223.71626,724.2891,224.58168,721.6568Q224.9836,720.53217,226.05435,719.5568Q225.73416,719.16943,224.93295,719.73615L220.70166,723.32996Q221.2725,720.7392,221.53519,715.50446Q221.69603,711.5756,221.3575,711.1037Q221.03815,709.2136,217.50745,712.8869Q217.7623,708.70953,223.01144,699.69366Q224.33058,697.73663,224.26799,698.1319Q225.30388,701.15704,226.19334,699.48883Q226.61516,698.25464,226.66501,697.16614Q226.7049,690.9734,227.51659,688.3534Q227.5713,687.92554,227.3496,687.9235Q227.11806,687.98975,226.76033,688.95984Q226.59814,689.29724,226.18335,691.28894Q226.04199,691.73834,225.97379,691.7484Q226.00032,692.21643,224.7913,690.5653Q224.50943,690.51685,224.36922,690.9825Q222.58345,697.5935,222.36662,697.8558Q222.20503,698.7266,218.36407,707.126Q216.39996,712.14825,215.43526,715.7884Q214.84065,718.04175,215.40973,717.655Q215.45917,717.941,219.60307,713.7374L219.73036,713.985Q219.78975,714.4805,219.65466,715.6825Q218.52399,724.1466,216.2819,730.3301Q216.11938,731.1278,216.67902,731.94257Q216.7531,732.37286,216.54347,733.26965L213.78787,741.29663Q212.78897,744.3325,211.76616,748.3543Q211.42139,749.48395,211.19595,749.83075Q210.54866,750.9234,211.47623,740.6191L212.25491,733.3485Q214.07794,720.5608,214.10133,718.7289Q214.31123,717.3491,213.99225,714.02094Q209.78902,718.1142,208.78746,719.7516Q207.69818,720.98083,204.23712,727.88574Q203.6442,728.9511,203.5942,728.6773Q204.00475,717.61975,206.51607,710.3516Q206.71077,709.5411,208.32129,705.97833Q213.48909,696.87006,214.59079,694.27356Q216.19913,691.24084,217.8813,684.815Q218.17728,683.9604,218.8116,678.9823Q218.91385,678.43097,219.04689,675.1131Q219.05792,667.2337,218.41159,667.22144 M421.62866,734.7561L421.38763,734.7711Q420.81174,734.7511,419.39322,735.70087Q416.26462,738.4199,415.81912,738.66284Q415.0695,739.20337,414.45206,739.5486Q412.9645,740.2126,412.51633,740.54974Q411.97278,740.937,412.19485,741.13556Q412.3263,741.65826,414.4411,742.74963Q414.91666,742.972,415.41592,743.15173Q418.0798,743.8883,418.56293,744.1327L419.49472,744.56036Q420.37836,745.01807,421.10745,745.6414L421.80774,746.3171Q422.19644,746.52734,423.59985,749.01984Q423.83087,749.2182,425.2445,753.27716Q425.28152,753.4256,425.72382,754.2506Q426.68896,755.9947,428.15384,757.033Q429.4199,757.85034,430.57968,757.85693Q432.31293,757.9856,435.48895,757.82086Q441.01855,757.4557,442.27686,757.01465L442.21024,756.93866Q441.31845,756.9374,439.3634,756.37286Q437.53583,755.7788,435.59036,754.72296Q431.46893,752.3797,429.53458,749.9998Q427.1402,747.33527,425.8162,744.2027Q425.17905,743.23047,424.01407,737.586Q423.52396,736.12616,423.3866,736.00604Q422.6924,734.7522,421.62866,734.7561 M241.47981,768.89514L241.42369,768.91547Q240.95508,769.1161,237.61194,772.01587L236.0997,773.13574Q233.8779,774.68134,232.25847,775.3989Q230.7079,776.0302,228.07994,776.6475L225.43266,777.208Q221.62862,777.81274,218.41365,778.46893Q217.49251,778.6198,214.21184,779.52747Q209.7102,780.77106,206.79175,783.4183Q210.14941,784.8226,210.85092,784.98975Q213.59793,785.3611,217.84052,786.5934Q221.2094,787.47406,229.08623,790.26074Q229.74425,790.5115,233.1893,791.34625Q239.88039,792.94617,246.30952,792.2628Q238.42036,788.10065,234.3039,787.1958Q233.69519,786.9734,230.56006,786.5216Q229.29576,786.37805,227.97624,786.3327Q225.12227,786.33966,223.46762,786.154Q222.25037,786.0016,222.21321,785.74286Q222.23097,785.4842,222.6526,785.33185Q222.44534,785.2562,224.94539,785.02203Q226.30637,784.70856,227.91042,783.89136Q231.20235,782.19,234.46165,779.2757Q238.22427,775.61017,238.5979,774.80774Q240.67377,771.85284,241.47981,768.89514 M314.70062,797.16284L314.6849,797.1641Q316.84988,800.03705,331.3672,808.18866Q338.22464,811.5753,345.20728,813.16284Q349.3273,813.95734,350.0543,813.9413Q351.1216,814.07526,354.04407,814.12305L355.5725,814.2776Q356.6037,814.42084,357.4709,814.6415L360.01056,815.4602Q360.50717,815.5884,361.45822,815.54877Q362.6736,815.47015,364.73267,814.7974L374.55984,811.2575L370.91873,815.8286Q370.48184,816.308,371.20688,816.326L372.1527,816.2111Q373.35623,815.9761,375.24692,815.388Q379.1998,814.1481,383.84247,812.25916Q388.485,810.3703,391.0707,808.85156Q393.06213,807.4887,392.60458,807.3696Q389.20483,807.53217,385.63504,808.7973Q383.9817,809.2273,377.31537,812.342Q376.34863,812.733,376.0858,812.744Q375.8517,812.5396,379.73148,809.4419Q380.224,808.98566,380.34097,808.6652Q380.77682,807.7623,377.06674,807.5573Q369.60648,807.0801,364.61868,807.5289Q360.798,807.98517,359.8821,808.41425Q359.14578,808.6593,358.58072,808.95905Q357.6146,809.61584,356.5525,810.07184Q355.4458,810.5244,354.10046,810.76996Q350.91547,811.40436,345.7502,810.72235Q338.13098,809.62537,329.50546,805.78076Q325.778,804.4998,314.70062,797.16284 M421.36172,776.868L421.14496,776.8688Q417.20798,776.9074,415.0116,777.6637Q413.35043,778.13226,406.76178,781.4906Q398.99423,781.4926,391.22687,781.49066Q396.37173,784.5993,402.1756,785.45465Q404.81207,785.8339,408.17242,785.40515Q409.39096,785.3906,415.8743,783.4017Q417.5149,783.0019,420.12848,782.9318Q425.7393,783.20325,427.1478,785.54004Q427.9673,786.4018,428.00452,789.0366Q428.1575,789.4693,427.37823,793.60956Q426.15656,798.28723,425.61444,799.5645Q424.22153,803.4902,421.24255,810.3078Q420.3786,812.6206,420.34073,812.92206Q419.37204,816.0854,419.68866,822.59595Q420.12527,822.2227,421.4082,817.80566Q421.89944,816.53033,422.68652,815.04114L424.03046,812.6934Q428.51776,805.91437,429.2201,804.4315Q430.7564,801.66345,431.83444,799.08545Q433.99518,793.91187,434.26608,789.7116Q434.56915,783.3665,430.8678,780.0102Q429.39276,778.57544,427.38733,777.81146Q426.06796,777.06604,421.36172,776.868 M420.0288,824.0133L415.66318,832.8015Q411.05844,841.93677,408.6429,845.9954Q407.8311,847.52,406.20456,852.6491Q405.986,853.32996,405.69568,853.5415Q404.42776,854.57294,400.5941,855.42065Q397.7208,856.1508,390.26935,856.6983Q389.21136,856.7873,388.873,857.177Q389.66974,858.77985,392.7721,859.5774Q396.19815,860.44275,400.0936,860.5192Q403.4604,860.34894,404.49387,859.4873Q406.02707,858.6078,407.79788,856.66473Q415.49585,847.6213,417.38593,842.84216Q418.54706,840.1105,419.6382,833.0555Q420.19244,828.9598,420.0288,824.0133 M422.86365,915.5793L422.73102,915.60583Q421.83002,915.7858,404.35025,920.8859L400.57022,921.92017Q400.26495,921.99316,399.97958,922.35803Q399.89728,922.65186,400.59598,922.84216Q401.56702,923.08887,404.49387,923.00775Q398.39627,925.26666,398.33145,925.38715Q397.04852,925.91174,396.50516,926.5289Q396.44952,926.67816,396.65076,926.756Q396.6787,926.8385,397.66235,926.82495Q400.18292,926.5375,403.4237,926.3805L416.03064,925.7917Q419.8558,925.5205,419.65274,925.459Q420.85303,925.23096,418.9002,924.9196L417.7337,924.75336L413.11673,924.2338L412.22543,924.08575Q410.6776,923.78015,411.06363,923.3045L411.38104,923.0502Q411.82065,922.78284,412.7547,922.4541Q414.38297,921.88934,418.97183,920.6699Q419.9999,920.35944,420.8142,920.05426Q422.43372,919.4492,423.3067,918.8153Q424.64832,917.68475,424.49902,917.05994Q424.2326,915.8471,422.86365,915.5793 Z"/> </g> </g> <g style="fill:rgb(255,255,255); fill-opacity:1.0; stroke-linejoin: miter"> <path d="M698.7399,632.652L698.2875,632.8546Q696.894,633.4255,695.8257,634.3303Q695.4816,634.6443,695.20984,635.0325L694.9606,635.44385L694.7565,635.9016L694.60205,636.4104L694.50037,636.9733L694.4483,637.5872L694.44135,638.24756Q694.45703,638.931,694.5449,639.6887Q694.74664,641.56445,695.666,645.5121Q696.4389,641.30365,697.14954,637.96295Q697.7205,635.47504,697.8135,635.27313Q698.02136,634.564,698.2061,634.1763Q698.4137,633.75775,698.56586,633.77826L698.7014,633.8416Q698.8313,633.97186,698.9381,634.28735Q699.3642,635.8348,699.4224,637.56604Q699.39197,637.83185,698.7399,632.652"/> </g> <g style="fill:rgb(165,179,188); fill-opacity:1.0; stroke-linejoin: miter"> <path d="M599.32635,871.91785L599.3261,1213.3761L681.01843,1213.3767L681.01843,1090.3774L723.70056,1213.376L773.2666,1213.3768L815.0309,1094.0485L815.0309,1213.376L896.72345,1213.3768L896.72345,871.9177L819.6206,871.91876L748.4841,1070.1836L677.80615,871.91754 Z"/> </g> <g style="fill:rgb(255,255,255); fill-opacity:1.0; stroke-linejoin: miter"> <path d="M172.96474,871.9173Q141.7565,871.9174,117.89112,882.9322Q94.02587,893.94727,77.96274,912.7641Q61.899574,931.12164,53.63862,955.90485Q45.3776,980.68854,45.377598,1008.2253L45.377594,1078.9036Q46.29538,1108.2765,55.01544,1133.0591Q63.73545,1157.8423,79.79858,1175.7415Q95.40262,1193.6404,118.80893,1203.7372Q142.21503,1213.8342,172.96463,1213.8342L173.42365,1213.8354Q193.15817,1213.8342,211.05714,1208.3271Q228.9562,1203.2788,244.10141,1194.5585Q258.78766,1185.8385,271.17908,1173.9056Q283.11194,1162.4321,291.83176,1150.0403L291.83176,1030.7139L181.68471,1030.7146L181.68468,1096.8024L217.94133,1096.8027L217.94133,1113.7833Q212.89299,1122.9628,202.79613,1128.929Q193.84688,1134.4686,179.35783,1134.4689Q178.24281,1134.4689,177.09505,1134.4364Q165.62138,1134.4364,155.98347,1129.8464Q146.34573,1125.2573,139.00253,1117.4548Q132.11842,1110.1118,127.98794,1099.0969Q123.85724,1088.5414,123.85724,1076.1497L123.857254,1009.6019Q123.85747,984.3597,137.62585,968.7557Q150.9355,953.6101,173.88272,953.6101Q185.81517,953.6101,193.61745,957.7411Q201.41953,961.41254,206.92677,966.9201Q211.97523,972.4277,215.18791,978.853Q217.94148,985.27814,220.23624,990.3267L283.57092,948.5623Q278.9816,941.678,273.01498,929.28625Q267.0489,916.89484,255.11635,904.5031Q243.64255,892.11115,223.90782,882.4735Q204.63211,873.2942,173.42384,871.9173 Z"/> </g> <g style="fill:rgb(255,255,255); fill-opacity:1.0; stroke-linejoin: miter"> <path d="M392.64175,871.9175C392.64102,871.91785,392.64032,871.9181,392.63965,871.91846L398.70782,871.9179L398.70782,871.91895L392.6454,871.9175 Z"/> </g> <g style="fill:rgb(255,255,255); fill-opacity:1.0; stroke-linejoin: miter"> <path d="M398.71396,871.9179L398.70782,871.91895L398.70782,871.9179L398.70782,871.91895L398.70782,871.9179L398.71396,871.91895 Z"/> </g> <g style="fill:rgb(255,255,255); fill-opacity:1.0; stroke-linejoin: miter"> <path d="M231.66368,713.1795L231.66368,713.1805C231.66335,713.1795,231.66301,713.1795,231.66263,713.1795L231.6667,713.1805C231.716,713.1805,231.74277,713.2029,231.74309,713.2497L231.7437,713.2506C231.7437,713.2025,231.71701,713.1802,231.66782,713.1795 Z"/> </g> <g style="fill:rgb(255,255,255); fill-opacity:1.0; stroke-linejoin: miter"> <path d="M417.58316,871.9175L411.73392,871.9179L411.73392,871.91895L417.58316,871.91846L419.63757,876.07355L417.58316,871.9175 Z"/> </g> <g style="fill:rgb(255,255,255); fill-opacity:1.0; stroke-linejoin: miter"> <path d="M403.68137,871.82825C404.02948,871.87305,404.39038,871.9027,404.76395,871.91846L398.70782,871.9179L398.70782,871.91895L392.64523,871.91846L404.76395,871.91943L404.78845,871.91846L404.76395,871.9175C404.39038,871.9027,404.02948,871.87305,403.68515,871.82825 Z"/> </g> <g style="fill:rgb(255,255,255); fill-opacity:1.0; stroke-linejoin: miter"> <path d="M405.89572,871.9175L405.89572,871.91846C405.8871,871.91785,405.8784,871.9181,405.86972,871.91846L405.8698,871.91943L411.72638,871.9179L405.89957,871.91846L411.73392,871.9179L411.73392,871.91895L405.89957,871.9175 Z"/> </g> <g style="fill:rgb(255,255,255); fill-opacity:1.0; stroke-linejoin: miter"> <path d="M380.65463,805.02325C380.63434,805.0244,380.5949,805.03326,380.538,805.0493L380.54037,805.0503C380.59177,805.03503,380.62863,805.02655,380.64975,805.0246L380.65775,805.02374L380.6613,805.02466C380.66248,805.0239,380.66364,805.02423,380.6647,805.0246L380.66815,805.0256C380.6667,805.0241,380.6651,805.02374,380.66345,805.0235L380.65973,805.0244C380.65924,805.0234,380.6587,805.0233,380.65817,805.02325 Z"/> </g> <g style="fill:rgb(255,255,255); fill-opacity:1.0; stroke-linejoin: miter"> <path d="M309.1169,792.2221C309.06314,792.22266,309.0004,792.2319,308.92758,792.25055L308.92828,792.2515C308.99747,792.23303,309.05884,792.22394,309.1136,792.22394C309.1159,792.22394,309.11823,792.22394,309.12546,792.2223L309.1283,792.22327C309.8403,792.24426,308.86188,793.90497,307.17798,796.0081L307.17935,796.009C308.86972,793.8982,309.85086,792.23364,309.129,792.22217L309.1262,792.22314C309.12604,792.22217,309.12592,792.2222,309.1258,792.2222L309.1258,792.22327C309.12378,792.22217,309.12177,792.22217,309.11972,792.2221 Z"/> </g> <g style="fill:rgb(255,255,255); fill-opacity:1.0; stroke-linejoin: miter"> <path d="M225.81793,707.5037C225.76425,707.5072,225.53197,707.70056,225.19582,708.01404L225.19662,708.01495C225.52713,707.7065,225.75824,707.5144,225.81981,707.5037L225.82181,707.5047C225.82117,707.5037,225.82056,707.5037,225.81992,707.5037 Z"/> </g> <g style="fill:rgb(255,255,255); fill-opacity:1.0; stroke-linejoin: miter"> <path d="M437.46362,672.32544C437.49078,672.3286,437.51266,672.35114,437.53152,672.39215C437.5162,672.3494,437.49368,672.3266,437.46777,672.32544 Z"/> </g> <g> <g style="fill:rgb(255,255,255); fill-opacity:1.0; stroke-linejoin: miter"> <path d="M233.54903,681.6805C233.53745,681.6809,233.5251,681.68335,233.5114,681.6882L233.51204,681.6891C233.52328,681.6844,233.53441,681.6822,233.5458,681.6822C233.54591,681.6822,233.54602,681.6822,233.54614,681.6822C233.54782,681.6822,233.54973,681.6821,233.55449,681.68085L233.55656,681.68176C233.63641,681.6886,233.67789,681.7993,233.67853,681.9886L233.67949,681.98956C233.67949,681.79626,233.6379,681.6852,233.5575,681.68054L233.55542,681.6815C233.55528,681.68066,233.55515,681.68066,233.55501,681.6807L233.55501,681.68164C233.55371,681.68066,233.55241,681.6805,233.5511,681.6805 Z"/> </g> <g style="fill:rgb(255,255,255); fill-opacity:1.0; stroke-linejoin: miter"> <path d="M272.04312,646.8025C272.0281,646.8099,272.01175,646.8175,271.99405,646.82544Q271.2011,647.3533,270.10748,647.9589C270.7751,647.61597,271.4234,647.2352,272.0456,646.8025 Z"/> </g> <g style="fill:rgb(165,179,188); fill-opacity:1.0; stroke-linejoin: miter"> <path d="M280.1416,635.621C280.1662,635.7033,280.2021,635.79443,280.24857,635.8951C281.43494,638.6388,281.1182,641.62506,279.53598,644.23535L278.8011,656.4117L281.65317,637.2625L280.14413,635.621 Z"/> </g> <g style="fill:rgb(165,179,188); fill-opacity:1.0; stroke-linejoin: miter"> <path d="M211.83821,623.97437C214.35857,629.01904,216.87889,634.0629,219.1197,634.0629C220.01248,634.0629,220.8609,633.2624,221.64726,631.3421L211.84007,623.97437 Z"/> </g> </g> <g style="fill:rgb(255,255,255); fill-opacity:1.0; stroke-linejoin: miter"> <path d="M403.68512,871.82825C404.03967,871.8736,404.40747,871.9033,404.78845,871.9175L404.76395,871.91846L404.76395,871.9175C404.39038,871.9027,404.02948,871.87305,403.68137,871.82825 Z"/> </g> <g style="fill:rgb(255,255,255); fill-opacity:1.0; stroke-linejoin: miter"> <path d="M397.38428,775.257L401.268,775.2575L397.38608,775.258L397.38608,775.2589L397.38428,775.257 Z"/> </g> <g style="fill:rgb(255,255,255); fill-opacity:1.0; stroke-linejoin: miter"> <path d="M404.76395,871.9175L404.77618,871.9179L404.77618,871.91895L404.78845,871.9175 Z"/> </g> <g style="fill:rgb(255,255,255); fill-opacity:1.0; stroke-linejoin: miter"> <path d="M380.5614,805.04285C380.55826,805.0437,380.55508,805.0446,380.55185,805.04553L380.55612,805.04645C380.5591,805.0446,380.56207,805.0437,380.56494,805.04285 Z"/> </g> <g style="fill:rgb(255,255,255); fill-opacity:1.0; stroke-linejoin: miter"> <path d="M404.77618,871.9179L404.77618,871.91895L404.77618,871.9179L404.77618,871.91895 Z"/> </g> <g style="fill:rgb(165,179,188); fill-opacity:1.0; stroke-linejoin: miter"> <path d="M331.3014,871.9176L418.96002,1042.6465L418.96,1213.3756L491.47345,1213.3762L491.4735,1042.6465L583.26306,871.91766L496.98108,871.9189L457.51154,952.6925L417.58316,871.9175 Z"/> </g> <g style="fill:rgb(255,255,255); fill-opacity:1.0; stroke-linejoin: miter"> <path d="M403.92154,871.8565C404.1877,871.885,404.46118,871.90533,404.7418,871.9175L331.3014,871.9186L418.96002,1042.6465L418.96,1213.3756L457.20093,1213.376Q457.201,1082.7246,457.20102,952.073L419.55173,875.8999L417.58316,871.9175L404.78845,871.91846L404.77628,871.9179L404.77695,871.91895C404.48593,871.90594,404.20267,871.8858,403.92712,871.8565 Z"/> </g> </g> </svg>